<?xml version="1.0" encoding="utf-8"?>
<!-- Generator: Adobe Illustrator 22.1.0, SVG Export Plug-In . SVG Version: 6.00 Build 0)  -->
<svg version="1.1" id="Layer_1" xmlns="http://www.w3.org/2000/svg" xmlns:xlink="http://www.w3.org/1999/xlink" x="0px" y="0px"
	 viewBox="0 0 504 504" style="enable-background:new 0 0 504 504;" xml:space="preserve">
<style type="text/css">
	.st0{fill:#FFFFFF;}
	.st1{fill:#353744;}
	.st2{fill:#808080;}
	.st3{fill:#55525B;}
	.st4{fill:#5C76B2;}
	.st5{fill:#6FA4D8;}
	.st6{fill:#F68820;}
	.st7{fill:#FBBE18;}
	.st8{fill:#DBDEE3;}
</style>
<circle class="st0" cx="252" cy="252" r="252"/>
<g>
	<g>
		<path class="st1" d="M378.7,309.9V110.6c0-14.2-11.9-25.7-26.7-25.7h40c14.7,0,26.7,11.5,26.7,25.7v199.3c0,10.7-9,19.3-20,19.3
			C387.6,329.1,378.7,320.5,378.7,309.9z"/>
	</g>
	<path class="st2" d="M412,329.1h-13.3c-2.4,0-4.6-0.5-6.7-1.2v26.9c0,19-10.8,35.6-26.7,44.5v7c0,14.2-11.9,25.7-26.7,25.7
		c44.1,0,80-34.6,80-77.1V328C416.6,328.7,414.4,329.1,412,329.1z"/>
	<g>
		<path class="st1" d="M392,72c-22.1,0-40,17.3-40,38.6v90h13.3v-90c0-14.2,11.9-25.7,26.7-25.7s26.7,11.5,26.7,25.7v199.3
			c0,10.7-9,19.3-20,19.3H412c11,0,20-8.6,20-19.3V110.6C432,89.3,414.1,72,392,72z"/>
	</g>
	<g>
		<g>
			<path class="st1" d="M272,200.6v-90c0-14.2-11.9-25.7-26.7-25.7h40c14.7,0,26.7,11.5,26.7,25.7v90H272z"/>
		</g>
		<g>
			<path class="st3" d="M285.3,72h-40c-22.1,0-40,17.3-40,38.6v90h40v-90C245.3,89.3,263.2,72,285.3,72z"/>
		</g>
		<g>
			<path class="st1" d="M285.3,72c-22.1,0-40,17.3-40,38.6v90h13.3v-90c0-14.2,11.9-25.7,26.7-25.7c14.7,0,26.7,11.5,26.7,25.7v90
				h13.3v-90C325.3,89.3,307.4,72,285.3,72z"/>
		</g>
	</g>
	<g>
		<g>
			<path class="st1" d="M378.7,309.9V110.6c0-14.2-11.9-25.7-26.7-25.7h40c14.7,0,26.7,11.5,26.7,25.7v199.3c0,10.7-9,19.3-20,19.3
				C387.6,329.1,378.7,320.5,378.7,309.9z"/>
		</g>
		<g>
			<path class="st3" d="M392,72h-40c-22.1,0-40,17.3-40,38.6v90h40v-90C352,89.3,369.9,72,392,72z"/>
		</g>
	</g>
	<g>
		<path class="st4" d="M258.7,97.7H192c-58.9,0-106.7,46-106.7,102.9v205.7c0,14.2,11.9,25.7,26.7,25.7h226.7
			c14.7,0,26.7-11.5,26.7-25.7V200.6C365.3,143.8,317.6,97.7,258.7,97.7z"/>
	</g>
	<g>
		<path class="st5" d="M192,97.7c-58.9,0-106.7,46-106.7,102.9v205.7c0,14.2,11.9,25.7,26.7,25.7h160c14.7,0,26.7-11.5,26.7-25.7
			V200.6C298.7,143.8,250.9,97.7,192,97.7z"/>
	</g>
	<g>
		<path class="st6" d="M245.3,239.1H98.7c-14.7,0-26.7,11.5-26.7,25.7v115.7c0,14.2,11.9,25.7,26.7,25.7h146.7
			c14.7,0,26.7-11.5,26.7-25.7V264.9C272,250.7,260.1,239.1,245.3,239.1z"/>
	</g>
	<g>
		<path class="st7" d="M205.3,239.1H98.7c-14.7,0-26.7,11.5-26.7,25.7v115.7c0,14.2,11.9,25.7,26.7,25.7h106.7
			c14.7,0,26.7-11.5,26.7-25.7V264.9C232,250.7,220.1,239.1,205.3,239.1z"/>
	</g>
	<g>
		<path class="st6" d="M72,277.7h160v12.9H72V277.7z"/>
	</g>
	<g>
		<path class="st8" d="M235.3,174.9h-90c-3.7,0-6.7-2.9-6.7-6.4s3-6.4,6.7-6.4h90c3.7,0,6.7,2.9,6.7,6.4S239,174.9,235.3,174.9z"/>
	</g>
	<g>
		<path class="st3" d="M325.3,200.6v19.3c0,3.5,3,6.4,6.7,6.4s6.7-2.9,6.7-6.4v-19.3c0-56.8-47.8-102.9-106.7-102.9h-13.3
			C277.6,97.7,325.3,143.8,325.3,200.6z"/>
	</g>
</g>
</svg>
