<svg height="512" viewBox="0 0 512 512" width="512" xmlns="http://www.w3.org/2000/svg"><g id="Flat"><path d="m384 176-13.57 88.18-34.43 223.82h-160l-22.62-147.03-25.38-164.97z" fill="#e5d2b8"/><path d="m384 176-13.57 88.18a16.161 16.161 0 0 0 -2.43-.18 15.979 15.979 0 0 0 -16 16v40a16 16 0 1 1 -32 0v-24a16 16 0 1 0 -32 0v72a16 16 0 1 1 -32 0v-56a16 16 0 1 0 -32 0v16a16 16 0 1 1 -32 0v-32a16 16 0 1 0 -32 0v32a15.987 15.987 0 0 1 -6.62 12.97l-25.38-164.97z" fill="#92563a"/><g fill="#693924"><circle cx="196" cy="468" r="20"/><circle cx="236" cy="468" r="20"/><circle cx="276" cy="468" r="20"/><circle cx="316" cy="468" r="20"/><circle cx="212" cy="428" r="20"/><circle cx="252" cy="428" r="20"/><circle cx="188" cy="388" r="20"/><circle cx="324" cy="404" r="20"/></g><ellipse cx="256" cy="176" fill="#ffb531" rx="128" ry="80"/><path d="m193.728 149.405-7.194-14.292a125.712 125.712 0 0 1 16.087-6.689l5.141 15.151a109.861 109.861 0 0 0 -14.034 5.83z" fill="#ffbf57"/><path d="m161.17 197.95c-6-7.067-9.17-14.657-9.17-21.95 0-11.183 7.363-22.729 20.732-32.514l9.45 12.911c-8.882 6.503-14.182 13.828-14.182 19.603 0 3.449 1.855 7.458 5.367 11.594z" fill="#ffbf57"/><path d="m232 48h48v128h-48z" fill="#4db7e5"/><circle cx="256" cy="48" fill="#3b9dc7" r="24"/></g></svg>