<svg height="512" viewBox="0 0 60 61" width="512" xmlns="http://www.w3.org/2000/svg"><g id="100---Movies" fill="none"><g id="Icons" transform="translate(1)"><path id="Shape" d="m43 58.91c0 .139 1.316.09-16.92.09-.3824923-.001757-.7304753-.221544-.8964082-.5661738s-.1207435-.7537221.1164082-1.0538262l2.4-3c.1886474-.2387374.475728-.3785972.78-.38h5.53c2.2388232 2.7498693 5.4663376 4.5126163 8.99 4.91z" fill="#d84315"/><path id="Shape" d="m33.32 37.93c-2.2410924 3.3115629-2.9002143 7.4457221-1.8 11.29l-19.64 6.03c-.4813742.1442155-.9950079-.0912-1.2-.55-.2091849-.7831802-.72819934-1.4474474-1.43753278-1.8398446s-1.54784926-.4791042-2.32246722-.2401554c-.2493031.077112-.51903702.0519304-.74975843-.0699956-.23072141-.1219259-.40349364-.330589-.48024157-.5800044-5.92-19.28-5.57-18.06-5.57-18.32-.00041442-.4305441.27912213-.811362.69-.94.5685506-.1670861 1.07152462-.505895 1.44-.97.77 1.59 1.92 4 6.08 12.66.19911441.392329.62677571.6134081 1.062.549.49387093-.2247184 1.0260143-.3533423 1.568-.379 1.1544826.0004738 2.2071179.6607985 2.71 1.7.1145232.2408.3204738.4258895.5720915.5141435.2516176.0882539.5280615.0723624.7679085-.0441435 7.34-3.53 13.37-6.44 18.31-8.81z" fill="#f57c00"/><path id="Shape" d="m57.88 36.26c.0004144.4305441-.2791221.811362-.69.94-.5437187.1573377-1.0256426.4786203-1.38.92-2.2843035-3.504989-6.0687295-5.7482963-10.24-6.07 3.33-1.62 9.42-4.54 9.64-4.65 2.89 9.4 2.67 8.62 2.67 8.86z" fill="#f57c00"/><path id="Shape" d="m33.32 37.93c-1.9959546 2.9427866-2.7472455 6.5554534-2.09 10.05-3.6 1.654.2.351-20.55 6.72-.2091849-.7831802-.72819934-1.4474474-1.43753278-1.8398446s-1.54784926-.4791042-2.32246722-.2401554c-.2493031.077112-.51903702.0519304-.74975843-.0699956-.23072141-.1219259-.40349364-.330589-.48024157-.5800044-5.92-19.28-5.57-18.06-5.57-18.32-.00041442-.4305441.27912213-.811362.69-.94.5685506-.1670861 1.07152462-.505895 1.44-.97.77 1.59 1.92 4 6.08 12.66.19911441.392329.62677571.6134081 1.062.549.49387093-.2247184 1.0260143-.3533423 1.568-.379 1.1544826.0004738 2.2071179.6607985 2.71 1.7.1145232.2408.3204738.4258895.5720915.5141435.2516176.0882539.5280615.0723624.7679085-.0441435 7.34-3.53 13.37-6.44 18.31-8.81z" fill="#ff9801"/><path id="Shape" d="m54.88 36.26c.0005734.1611459-.0407806.3196696-.12.46-2.3217569-2.7166491-5.6273671-4.4000284-9.19-4.68 3.42-1.65 5.63-2.71 7.02-3.38l.01.01c0 .118 2.28 7.23 2.28 7.59z" fill="#ff9801"/><path id="Shape" d="m58 20.99c.0027797.3882694-.2194455.7430498-.57.91-.7179127.3428001-1.2694141.9578278-1.5322266 1.7087207-.2628125.7508928-.2152196 1.5756036.1322266 2.2912793.1152722.2385095.1304658.5131907.042202.7629586s-.2726673.4539147-.512202.5670414c-.35.17-1.56.77-10 4.82-4.8417572-.3903267-9.5186507 1.8564163-12.24 5.88-4.94 2.37-10.97 5.28-18.31 8.81-.239847.1165059-.5162909.1323974-.7679085.0441435-.2516177-.088254-.4575683-.2733435-.5720915-.5141435-.5028821-1.0392015-1.5555174-1.6995262-2.71-1.7-.5419857.0256577-1.07412907.1542816-1.568.379-.43522429.0644081-.86288559-.156671-1.062-.549-7.27-15.14-5.36-11.17-8.23-17.13-.11611195-.238381-.13174536-.5133768-.04339794-.7633812.08834743-.2500044.2732908-.4541198.51339794-.5666188 1.48968493-.7192957 2.11598354-2.5087203 1.4-4-.11650594-.239847-.13239741-.5162909-.04414346-.7679085.08825395-.2516177.27334349-.4575683.51414346-.5720915 43.52-20.93 40.66-19.6 40.98-19.6.3882694-.00277966.7430498.21944547.91.57.7192957 1.48968493 2.5087203 2.11598354 4 1.4.239847-.11650594.5162909-.13239741.7679085-.04414346.2516177.08825395.4575683.27334349.5720915.51414346 8.79 18.29 8.33 17.22 8.33 17.55z" fill="#ffdc00"/><path id="Shape" d="m8.489 44.623c.22392745.2562792.56389193.3794219.9.326-.28061829-.1561359-.58448548-.2662034-.9-.326z" fill="#fec108"/><path id="Shape" d="m49.67 3.44c-.1145232-.24079997-.3204738-.42588951-.5720915-.51414346-.2516176-.08825395-.5280615-.07236248-.7679085.04414346-.567391.27398934-1.2071022.3608248-1.827.248.0657839.06581805.1219994.14054769.167.222 8.794 18.292 8.33 17.222 8.33 17.55.0027797.3882694-.2194455.7430498-.57.91-.7177228.3430063-1.2690463.958044-1.5318315 1.708859-.2627853.750815-.2153376 1.5754226.1318315 2.291141.1152722.2385095.1304658.5131907.042202.7629586s-.2726673.4539147-.512202.5670414c-4.68 2.272 2.469-1.2-39.031 18.779.0522288.0840721.0993151.1712318.141.261.1145232.2408.3204738.4258895.5720915.5141435.2516176.0882539.5280615.0723624.7679085-.0441435 48.768-23.478 35.743-17.176 40.55-19.51.2395347-.1131267.4239382-.3172735.512202-.5670414s.0730702-.5244491-.042202-.7629586c-.3471691-.7157184-.3946168-1.540326-.1318315-2.291141.2627852-.750815.8141087-1.3658527 1.5318315-1.708859.3505545-.1669502.5727797-.5217306.57-.91 0-.328.464.742-8.33-17.55z" fill="#fec108"/><circle id="Oval" cx="44.5" cy="45.5" fill="#707070" r="13.5"/><ellipse id="Oval" cx="43" cy="45.5" fill="#9e9e9e" rx="12" ry="13.41"/><circle id="Oval" cx="44.5" cy="37.5" fill="#56595e" r="2.5"/><circle id="Oval" cx="44.5" cy="53.5" fill="#56595e" r="2.5"/><circle id="Oval" cx="44.5" cy="37.5" fill="#37474f" r="2.5"/><circle id="Oval" cx="44.5" cy="53.5" fill="#37474f" r="2.5"/><circle id="Oval" cx="44.5" cy="45.5" fill="#56595e" r="2.5"/><circle id="Oval" cx="44.5" cy="45.5" fill="#37474f" r="2.5"/><circle id="Oval" cx="37.572" cy="41.5" fill="#56595e" r="2.5"/><circle id="Oval" cx="51.428" cy="49.5" fill="#56595e" r="2.5"/><circle id="Oval" cx="37.572" cy="41.5" fill="#37474f" r="2.5"/><circle id="Oval" cx="51.428" cy="49.5" fill="#37474f" r="2.5"/><circle id="Oval" cx="51.428" cy="41.5" fill="#56595e" r="2.5"/><circle id="Oval" cx="37.572" cy="49.5" fill="#56595e" r="2.5"/><g fill="#37474f"><circle id="Oval" cx="51.428" cy="41.5" r="2.5"/><circle id="Oval" cx="37.572" cy="49.5" r="2.5"/></g></g><g id="Outline" fill="#000" transform="translate(0 -1)"><path id="Shape" d="m17.081 37.124c.3437975-.0003138.663329-.1772117.8460887-.4684088.1827596-.2911971.2031196-.6558595.0539113-.9655912l-3.466-7.209.9-.433c.4705306-.2536847.6583427-.8325655.4263697-1.3141705-.2319731-.4816051-.8016914-.6956088-1.2933697-.4858295l-3.605 1.734c-.4193738.2031115-.6428819.6689551-.5388898 1.1231734.1039921.4542184.5079193.7764123.9738898.7768266.288 0 .363-.065 1.334-.532l3.467 7.21c.1674319.3455979.5179808.5647881.902.564z"/><path id="Shape" d="m22.02 34.858c.2389748-.115088.4224367-.3204033.5100182-.5707704.0875816-.2503671.0721073-.5252728-.0430182-.7642296l-3.9-8.111c-.2536847-.4705306-.8325655-.6583427-1.3141705-.4263697-.4816051.2319731-.6956088.8016914-.4858295 1.2933697l3.9 8.112c.2396386.4964976.8359022.7053912 1.333.467z"/><path id="Shape" d="m45.155 13.746.9-.434c.4734118-.2524404.6632568-.8334876.430219-1.3167456-.2330377-.4832581-.8059096-.6965062-1.298219-.4832544l-3.6 1.733c-.4193738.2031115-.6428819.6689551-.5388898 1.1231734.1039921.4542184.5079193.7764123.9738898.7768266.289 0 .372-.07 1.333-.532l3.467 7.209c.1444737.3386157.4633163.5704654.8299772.6035263.3666609.033061.7218343-.1380142.9245496-.4453247s.2201842-.7011502.0454732-1.0252016z"/><path id="Shape" d="m29.663 30.045c.3101859-.8756073.2568866-1.8389556-.148-2.675-.2536847-.4705306-.8325655-.6583427-1.3141705-.4263697-.4816051.2319731-.6956088.8016914-.4858295 1.2933697.1736268.3581478.1963217.7709781.063 1.146-.2011147.5717075-.726503.9662225-1.3316158.9999128-.6051129.0336903-1.1710483-.3000641-1.4343842-.8459128l-1.734-3.605c-.3130535-.7372214.0083076-1.5903337.729952-1.9377921.7216443-.3474584 1.5889573-.0666706 1.970048.6377921.1444737.3386157.4633163.5704654.8299772.6035263.3666609.033061.7218343-.1380142.9245496-.4453247s.2201842-.7011502.0454732-1.0252016c-.8682765-1.6856974-2.9210145-2.3733949-4.6295498-1.5509675s-2.4514284 2.855841-1.6754502 4.5859675l1.733 3.6c.6128227 1.2758827 1.9337915 2.057063 3.3470823 1.9793615 1.4132908-.0777014 2.6406595-.998987 3.1099177-2.3343615z"/><path id="Shape" d="m37.248 25.65-5.01-1.771 1.715-5.079c.12822-.3419693.0598153-.7266407-.1784384-1.0034413s-.6084581-.4017005-.9657031-.32581c-.3572451.0758905-.6447049.3404998-.7498585.6902513l-1.5 4.455-1.155-2.4c-.1444737-.3386157-.4633163-.5704654-.8299772-.6035263-.3666609-.033061-.7218343.1380142-.9245496.4453247s-.2201842.7011502-.0454732 1.0252016l3.9 8.111c.1444737.3386157.4633163.5704654.8299772.6035263.3666609.033061.7218343-.1380142.9245496-.4453247s.2201842-.7011502.0454732-1.0252016l-1.155-2.4 4.417 1.606c.3375931.130357.7192734.0681497.998003-.1626574.2787295-.230807.4110114-.5941954.3458855-.9501739-.0651258-.3559785-.3174963-.6489952-.6598885-.7661687z"/><path id="Shape" d="m36.542 21.217 2.167 4.506c.1665476.345726.5162495.5656496.9.566.321 0 .175.026 4.037-1.832.4705306-.2536847.6583427-.8325655.4263697-1.3141705-.2319731-.4816051-.8016914-.6956088-1.2933697-.4858295l-2.7 1.3-1.3-2.7 1.8-.866c.4705306-.2536847.6583427-.8325655.4263697-1.3141705-.2319731-.4816051-.8016914-.6956088-1.2933697-.4858295l-1.8.866-.866-1.8 2.7-1.3c.3386157-.1444737.5704654-.4633163.6035263-.8299772.033061-.3666609-.1380142-.7218343-.4453247-.9245496s-.7011502-.2201842-1.0252016-.0454732l-3.6 1.733c-.2389748.115088-.4224367.3204033-.5100182.5707704-.0875816.2503671-.0721073.5252728.0430182.7642296z"/><path id="Shape" d="m40.188 29.45-1.845.887c-.3386157.1444737-.5704654.4633163-.6035263.8299772-.033061.3666609.1380142.7218343.4453247.9245496s.7011502.2201842 1.0252016.0454732l1.845-.887c.4705306-.2536847.6583427-.8325655.4263697-1.3141705-.2319731-.4816051-.8016914-.6956088-1.2933697-.4858295z"/><path id="Shape" d="m23.585 37.434-1.845.887c-.4679516.2547649-.6539723.8316898-.4229765 1.3118198.2309959.4801299.7978746.6948266 1.2889765.4881802l1.846-.888c.3386157-.1444737.5704654-.4633163.6035263-.8299772.033061-.3666609-.1380142-.7218343-.4453247-.9245496s-.7011502-.2201842-1.0252016-.0454732z"/><path id="Shape" d="m29.119 34.773-1.845.887c-.4705306.2536847-.6583427.8325655-.4263697 1.3141705.2319731.4816051.8016914.6956088 1.2933697.4858295l1.845-.887c.3386157-.1444737.5704654-.4633163.6035263-.8299772.033061-.3666609-.1380142-.7218343-.4453247-.9245496s-.7011502-.2201842-1.0252016-.0454732z"/><path id="Shape" d="m34.654 32.111-1.846.889c-.4705306.2536847-.6583427.8325655-.4263697 1.3141705.2319731.4816051.8016914.6956088 1.2933697.4858295l1.846-.887c.4705306-.2536847.6583427-.8325655.4263697-1.3141705-.2319731-.4816051-.8016914-.6956088-1.2933697-.4858295z"/><path id="Shape" d="m51.558 20.139c.3174202.5324327.5753046 1.0981687.769 1.687.0911027.3456545.3596896.6164496.7045865.7103796.3448969.0939299.7137058-.0032755.9675-.255s.3540162-.6197251.2629135-.9653796c-.2355651-.7076024-.5368807-1.3915888-.9-2.043-.2547649-.4679516-.8316898-.6539723-1.3118198-.4229765-.4801299.2309959-.6948266.7978746-.4881802 1.2889765z"/><path id="Shape" d="m51.257 24.127-1.845.887c-.3386157.1444737-.5704654.4633163-.6035263.8299772-.033061.3666609.1380142.7218343.4453247.9245496s.7011502.2201842 1.0252016.0454732l1.876-.9c.2373057-.114541.4187571-.3194744.5037175-.5689044.0849604-.2494301.0663304-.5225148-.0517175-.7580956-.2479171-.4973646-.8499771-.702511-1.35-.46z"/><path id="Shape" d="m48.926 10.049c-.2750215-.71529402-.6450052-1.39034603-1.1-2.007-.2291859-.27420136-.587247-.40530466-.9393053-.34392455-.3520583.06138012-.6446277.30591855-.7675.64150003-.1228724.33558147-.0573806.71122318.1718053.98542452.3369891.49693521.6161306 1.0307263.832 1.591.2536847.4705306.8325655.6583427 1.3141705.4263697.4816051-.2319731.6956088-.8016914.4858295-1.2933697z"/><path id="Shape" d="m45.723 26.788-1.846.888c-.3386157.1444737-.5704654.4633163-.6035263.8299772-.033061.3666609.1380142.7218343.4453247.9245496s.7011502.2201842 1.0252016.0454732l1.846-.887c.4705306-.2536847.6583427-.8325655.4263697-1.3141705-.2319731-.4816051-.8016914-.6956088-1.2933697-.4858295z"/><path id="Shape" d="m49.365 13.271c-.4974505.2392808-.7069275.8363797-.468 1.334l.887 1.845c.2536847.4705306.8325655.6583427 1.3141705.4263697.4816051-.2319731.6956088-.8016914.4858295-1.2933697l-.884-1.844c-.1149077-.2391515-.3201462-.4228342-.5705312-.5106097-.2503851-.0877754-.5253892-.0724473-.7644688.0426097z"/><path id="Shape" d="m36.4 12.409 1.845-.887c.3386157-.1444737.5704654-.4633163.6035263-.8299772.033061-.3666609-.1380142-.72183426-.4453247-.92454957s-.7011502-.22018423-1.0252016-.04547323l-1.845.887c-.4705306.2536847-.6583427.8325655-.4263697 1.3141705.2319731.4816051.8016914.6956088 1.2933697.4858295z"/><path id="Shape" d="m8.432 29.679c-.30594905-.5346048-.56106693-1.0967346-.762-1.679-.13558591-.5357162-.67978379-.8600859-1.2155-.7245s-.86008591.6797838-.7245 1.2155c.23125765.7127747.53273738 1.4008185.9 2.054.14447365.3386157.46331627.5704654.82997716.6035263.3666609.033061.7218343-.1380142.92454961-.4453247s.22018423-.7011502.04547323-1.0252016z"/><path id="Shape" d="m19.8 20.393 1.845-.887c.3386157-.1444737.5704654-.4633163.6035263-.8299772.033061-.3666609-.1380142-.7218343-.4453247-.9245496s-.7011502-.2201842-1.0252016-.0454732l-1.845.887c-.4705306.2536847-.6583427.8325655-.4263697 1.3141705.2319731.4816051.8016914.6956088 1.2933697.4858295z"/><path id="Shape" d="m11.094 35.214-.887-1.845c-.1444737-.3386157-.46331627-.5704654-.82997716-.6035263-.3666609-.033061-.7218343.1380142-.92454961.4453247s-.22018423.7011502-.04547323 1.0252016l.887 1.845c.25368466.4705306.8325655.6583427 1.3141705.4263697.4816051-.2319731.6956088-.8016914.4858295-1.2933697z"/><path id="Shape" d="m30.864 15.07 1.845-.887c.3386157-.1444737.5704654-.4633163.6035263-.8299772.033061-.3666609-.1380142-.7218343-.4453247-.9245496s-.7011502-.2201842-1.0252016-.0454732l-1.842.885c-.4705306.2536847-.6583427.8325655-.4263697 1.3141705.2319731.4816051.8016914.6956088 1.2933697.4858295z"/><path id="Shape" d="m14.26 23.054 1.845-.887c.3386157-.1444737.5704654-.4633163.6035263-.8299772.033061-.3666609-.1380142-.7218343-.4453247-.9245496s-.7011502-.2201842-1.0252016-.0454732l-1.844.887c-.3403309.1432048-.5740573.4622926-.607937.8299677-.0338798.367675.1376007.724101.4460316.9270866.3084309.2029855.7036175.2194964 1.0279054.0429457z"/><path id="Shape" d="m8.742 25.708 1.829-.879c.4705306-.2536847.6583427-.8325655.4263697-1.3141705-.2319731-.4816051-.8016914-.6956088-1.2933697-.4858295l-1.845.888c-.23841162.114522-.42115132.3195961-.50754648.5695786s-.06927628.5241287.04754648.7614214c.2450886.4964594.8449978.7019384 1.343.46z"/><path id="Shape" d="m41.933 9.747 1.845-.887c.4705306-.25368466.6583427-.83256552.4263697-1.31417055-.2319731-.48160503-.8016914-.69560874-1.2933697-.48582945l-1.845.887c-.3386157.14447365-.5704654.46331627-.6035263.82997716-.033061.3666609.1380142.7218343.4453247.92454961s.7011502.22018423 1.0252016.04547323z"/><path id="Shape" d="m25.329 17.732 1.845-.887c.3386157-.1444737.5704654-.4633163.6035263-.8299772.033061-.3666609-.1380142-.7218343-.4453247-.9245496s-.7011502-.2201842-1.0252016-.0454732l-1.845.887c-.4705306.2536847-.6583427.8325655-.4263697 1.3141705.2319731.4816051.8016914.6956088 1.2933697.4858295z"/><path id="Shape" d="m18.05 40.1-1.845.888c-.4705306.2536847-.6583427.8325655-.4263697 1.3141705.2319731.4816051.8016914.6956088 1.2933697.4858295l1.845-.887c.4705306-.2536847.6583427-.8325655.4263697-1.3141705-.2319731-.4816051-.8016914-.6956088-1.2933697-.4858295z"/><path id="Shape" d="m12.868 38.9c-.1444737-.3386157-.4633163-.5704654-.8299772-.6035263-.3666609-.033061-.7218343.1380142-.9245496.4453247s-.2201842.7011502-.0454732 1.0252016c.2823755.7077022.6483027 1.3791282 1.09 2 .2174351.3028544.5852926.459603.9543392.4066555s.6779951-.3067981.8015103-.6585691c.1235153-.3517709.0410853-.743044-.2138495-1.0150864-.3388408-.4990264-.6180759-1.0360169-.832-1.6z"/><path id="Shape" d="m58.856 23.805c1.0010048-.4785649 1.4245395-1.6779831.946-2.679l-8.231-17.118c-.479529-.99541534-1.6734296-1.4160295-2.671-.941-.9918781.46149774-2.1710252.0531102-2.665-.923-.3338822-.69933138-1.0400539-1.14443352-1.815-1.144-.668 0 1.927-1.143-41.412 19.7-.99567307.4803441-1.41618766 1.6748557-.941 2.673.47763294.9909986.06524516 2.1816957-.923 2.665-.69677623.3299667-1.1418563 1.0310457-1.144 1.802 0 .595.013.478 2.03 4.675-.16012432.1033855-.33376644.1841493-.516.24-.8316176.2552785-1.39790799 1.0250922-1.394 1.895 0 .458-.409-1.111 5.614 18.612.15421667.5037922.50267525.9254502.96839196 1.1718185.46571671.2463682 1.01036158.2971699 1.51360804.1411815 1.03949773-.3145033 2.1387582.2647584 2.467 1.3.3256682 1.0503118 1.4365382 1.6423296 2.49 1.327l18.72-5.745c.3230396.8854803.73199 1.737209 1.221 2.543h-3.634c-.6078143.0023089-1.181837.2799432-1.561.755l-2.4 3c-.4774799.600294-.5695803 1.4207857-.2370727 2.1120011.3325076.6912153 1.0310412 1.1313743 1.7980727 1.1329989 18.245 0 16.93.033 17.221-.061 5.3543258.4412971 10.5133742-2.1159285 13.4043712-6.6442487s3.0394171-10.2844608.3856288-14.9557513c.1243607-.0754085.2568746-.1364655.395-.182.8333969-.2558108 1.4001217-1.0282477 1.394-1.9 0-.451.115.055-2.481-8.4.7038815-.5823787.9236644-1.5676975.534-2.394-.4782634-.9889151-.0652343-2.1783315.923-2.658zm-46.256 31.495c-.3036168-1.0077734-.9979249-1.8521212-1.9280575-2.3447101-.93013254-.4925889-2.01871699-.5924431-3.0229425-.2772899l-5.549-18.011c.27841673-.0877194.5466183-.2050576.8-.35l5.533 11.524c.48837248.9842996 1.6761036 1.3947524 2.668.922.9954848-.4376793 2.1598938-.0300269 2.665.933.3337267.6990053 1.039415 1.144048 1.814 1.144.648 0-.59.5 16.462-7.709-1.077088 2.6687148-1.3262218 5.5997829-.715 8.412zm14.481 3.7 2.4-3h5.092c1.0359476 1.1889543 2.2577976 2.2020969 3.618 3zm18.419 0c-5.0557781 0-9.6137317-3.0455272-11.5484942-7.7164571s-.8653155-10.0474027 2.7096594-13.6223777c3.574975-3.5749749 8.9514478-4.6444219 13.6223777-2.7096594s7.7164571 6.4927161 7.7164571 11.5484942c-.0077154 6.900361-5.599639 12.4922846-12.5 12.5zm11.474-21.331c-1.8355619-2.3900645-4.3688143-4.1503062-7.249-5.037l5.875-2.827 2.307 7.437c-.3284773.1005456-.6422015.2441258-.933.427zm-.852-10.338-9.786 4.711c-4.9836373-.3039973-9.7690893 1.9952599-12.646 6.076l-18.121 8.715c-.9640736-1.9834094-3.3485249-2.8164932-5.338-1.865l-8.223-17.128c1.98625831-.9625508 2.82047051-3.3498462 1.866-5.34l40.557-19.493c.9617635 1.98593808 3.3481204 2.8205818 5.338 1.867l8.231 17.126c-1.9892226.9548543-2.8295238 3.3401822-1.878 5.331z"/><path id="Shape" d="m45.5 42c1.9329966 0 3.5-1.5670034 3.5-3.5s-1.5670034-3.5-3.5-3.5-3.5 1.5670034-3.5 3.5 1.5670034 3.5 3.5 3.5zm0-5c.8284271 0 1.5.6715729 1.5 1.5s-.6715729 1.5-1.5 1.5-1.5-.6715729-1.5-1.5.6715729-1.5 1.5-1.5z"/><path id="Shape" d="m45.5 51c-1.9329966 0-3.5 1.5670034-3.5 3.5s1.5670034 3.5 3.5 3.5 3.5-1.5670034 3.5-3.5-1.5670034-3.5-3.5-3.5zm0 5c-.8284271 0-1.5-.6715729-1.5-1.5s.6715729-1.5 1.5-1.5 1.5.6715729 1.5 1.5-.6715729 1.5-1.5 1.5z"/><path id="Shape" d="m42 46.5c0 1.9329966 1.5670034 3.5 3.5 3.5s3.5-1.5670034 3.5-3.5-1.5670034-3.5-3.5-3.5-3.5 1.5670034-3.5 3.5zm5 0c0 .8284271-.6715729 1.5-1.5 1.5s-1.5-.6715729-1.5-1.5.6715729-1.5 1.5-1.5 1.5.6715729 1.5 1.5z"/><path id="Shape" d="m36.822 45.531c1.6742058.9661283 3.8146187.3921415 4.7807809-1.2820448s.3922186-3.8146108-1.2819482-4.7808068-3.8146029-.3922957-4.7808327 1.2818516c-.9621505 1.6747845-.3889926 3.812279 1.282 4.781zm.45-3.781c.4139483-.7175469 1.3311887-.9636903 2.0487632-.5497899s.9637791 1.3311244.5499266 2.0487266c-.4138525.7176021-1.33106.9638679-2.0486898.5500633-.3446793-.1987514-.5962737-.5263013-.6994219-.9105751-.1031482-.3842739-.0493985-.7937854.1494219-1.1384249z"/><path id="Shape" d="m54.178 47.469c-1.6742058-.9661283-3.8146187-.3921415-4.7807809 1.2820448s-.3922186 3.8146108 1.2819482 4.7808068 3.8146029.3922957 4.7808327-1.2818516c.9627393-1.6747076.389464-3.8126401-1.282-4.781zm-.45 3.781c-.4139483.7175469-1.3311887.9636903-2.0487632.5497899s-.9637791-1.3311244-.5499266-2.0487266c.4138525-.7176021 1.33106-.9638679 2.0486898-.5500633.3446793.1987514.5962737.5263013.6994219.9105751.1031482.3842739.0493985.7937854-.1494219 1.1384249z"/><path id="Shape" d="m50.678 39.469c-1.6736573.966818-2.2467772 3.107275-1.2801524 4.781044.9666248 1.6737689 3.1070157 2.2471359 4.7808962 1.2807043s2.2474945-3.1067562 1.2812562-4.7807483c-.4641469-.8041269-1.2287847-1.3908803-2.1256312-1.6311272-.8968466-.2402468-1.8524027-.1142981-2.6563688.3501272zm3.05 2.281c.4139146.7174161.1680215 1.6345354-.5492749 2.0486573s-1.6344868.1684938-2.0488159-.5486829c-.4143292-.7171767-.1689662-1.634438.5480908-2.0489744.3446083-.1992208.7542706-.2533003 1.1387713-.1503292.3845007.1029712.7123067.3545483.9112287.6993292z"/><path id="Shape" d="m41.6 48.75c-.9662298-1.6741473-3.1066659-2.2480476-4.7808327-1.2818516s-2.2481104 3.1066205-1.2819482 4.7808068 3.1065751 2.2481731 4.7807809 1.2820448c1.6719358-.9679982 2.2453288-3.1063694 1.282-4.781zm-2.278 3.05c-.5254065.3033679-1.1818233.2603633-1.663159-.1089604-.4813357-.3693238-.6927977-.9922333-.5357797-1.5782618.1570179-.5860286.651593-1.0197657 1.2531018-1.0989568.6015088-.0791912 1.1914921.2117591 1.4948369.737179.414194.7174205.1684022 1.6347744-.549 2.049z"/></g></g></svg>