<?xml version="1.0" encoding="utf-8"?>
<!-- Generator: Adobe Illustrator 22.1.0, SVG Export Plug-In . SVG Version: 6.00 Build 0)  -->
<svg version="1.1" id="Layer_1" xmlns="http://www.w3.org/2000/svg" xmlns:xlink="http://www.w3.org/1999/xlink" x="0px" y="0px"
	 viewBox="0 0 504 504" style="enable-background:new 0 0 504 504;" xml:space="preserve">
<style type="text/css">
	.st0{fill:#FFFFFF;}
	.st1{fill:#D84315;}
	.st2{fill:#F57C00;}
	.st3{fill:#FF9801;}
	.st4{fill:#FFDC00;}
	.st5{fill:#FEC108;}
	.st6{fill:#707070;}
	.st7{fill:#9E9E9E;}
	.st8{fill:#56595E;}
	.st9{fill:#37474F;}
</style>
<circle class="st0" cx="252" cy="252" r="252"/>
<g id="_x31_00---Movies">
	<g id="Icons" transform="translate(1)">
		<path id="Shape" class="st1" d="M343.4,442.8c0,0.9,8.7,0.6-111.7,0.6c-2.5,0-4.8-1.5-5.9-3.7s-0.8-5,0.8-7l15.8-19.8
			c1.2-1.6,3.1-2.5,5.1-2.5h36.5C298.8,428.5,320.1,440.1,343.4,442.8z"/>
		<path id="Shape_1_" class="st2" d="M279.5,304.3c-14.8,21.9-19.1,49.1-11.9,74.5L138,418.6c-3.2,1-6.6-0.6-7.9-3.6
			c-1.4-5.2-4.8-9.6-9.5-12.1c-4.7-2.6-10.2-3.2-15.3-1.6c-1.6,0.5-3.4,0.3-4.9-0.5c-1.5-0.8-2.7-2.2-3.2-3.8
			C58.1,269.8,60.4,277.8,60.4,276.1c0-2.8,1.8-5.4,4.6-6.2c3.8-1.1,7.1-3.3,9.5-6.4c5.1,10.5,12.7,26.4,40.1,83.5
			c1.3,2.6,4.1,4,7,3.6c3.3-1.5,6.8-2.3,10.3-2.5c7.6,0,14.6,4.4,17.9,11.2c0.8,1.6,2.1,2.8,3.8,3.4s3.5,0.5,5.1-0.3
			C207.1,339.2,246.9,320,279.5,304.3z"/>
		<path id="Shape_2_" class="st2" d="M441.6,293.3c0,2.8-1.8,5.4-4.6,6.2c-3.6,1-6.8,3.2-9.1,6.1c-15.1-23.1-40.1-37.9-67.6-40.1
			c22-10.7,62.2-30,63.6-30.7C443.1,296.9,441.6,291.7,441.6,293.3L441.6,293.3z"/>
		<path id="Shape_3_" class="st3" d="M279.5,304.3c-13.2,19.4-18.1,43.3-13.8,66.3C242,381.6,267,373,130.1,415
			c-1.4-5.2-4.8-9.6-9.5-12.1c-4.7-2.6-10.2-3.2-15.3-1.6c-1.6,0.5-3.4,0.3-4.9-0.5c-1.5-0.8-2.7-2.2-3.2-3.8
			C58.1,269.8,60.4,277.8,60.4,276.1c0-2.8,1.8-5.4,4.6-6.2c3.8-1.1,7.1-3.3,9.5-6.4c5.1,10.5,12.7,26.4,40.1,83.5
			c1.3,2.6,4.1,4,7,3.6c3.3-1.5,6.8-2.3,10.3-2.5c7.6,0,14.6,4.4,17.9,11.2c0.8,1.6,2.1,2.8,3.8,3.4s3.5,0.5,5.1-0.3
			C207.1,339.2,246.9,320,279.5,304.3z"/>
		<path id="Shape_4_" class="st3" d="M421.8,293.3c0,1.1-0.3,2.1-0.8,3c-15.3-17.9-37.1-29-60.7-30.9c22.6-10.9,37.2-17.9,46.3-22.3
			l0.1,0.1C406.8,244,421.8,290.9,421.8,293.3L421.8,293.3z"/>
		<path id="Shape_5_" class="st4" d="M442.4,192.6c0,2.6-1.4,4.9-3.8,6c-4.7,2.3-8.4,6.3-10.1,11.3c-1.7,5-1.4,10.4,0.9,15.1
			c0.8,1.6,0.9,3.4,0.3,5c-0.6,1.6-1.8,3-3.4,3.7c-2.3,1.1-10.3,5.1-66,31.8c-32-2.6-62.8,12.2-80.8,38.8
			c-32.6,15.6-72.4,34.8-120.8,58.1c-1.6,0.8-3.4,0.9-5.1,0.3s-3-1.8-3.8-3.4c-3.3-6.9-10.3-11.2-17.9-11.2c-3.6,0.2-7.1,1-10.3,2.5
			c-2.9,0.4-5.7-1-7-3.6c-48-99.9-35.4-73.7-54.3-113c-0.8-1.6-0.9-3.4-0.3-5c0.6-1.6,1.8-3,3.4-3.7c9.8-4.7,14-16.6,9.2-26.4
			c-0.8-1.6-0.9-3.4-0.3-5.1c0.6-1.7,1.8-3,3.4-3.8C362.9,51.9,344.1,60.7,346.2,60.7c2.6,0,4.9,1.4,6,3.8c4.7,9.8,16.6,14,26.4,9.2
			c1.6-0.8,3.4-0.9,5.1-0.3s3,1.8,3.8,3.4C445.4,197.5,442.4,190.4,442.4,192.6L442.4,192.6z"/>
		<path id="Shape_6_" class="st5" d="M115.6,348.5c1.5,1.7,3.7,2.5,5.9,2.2C119.7,349.6,117.7,348.9,115.6,348.5z"/>
		<path id="Shape_7_" class="st5" d="M387.4,76.8c-0.8-1.6-2.1-2.8-3.8-3.4s-3.5-0.5-5.1,0.3c-3.7,1.8-8,2.4-12.1,1.6
			c0.4,0.4,0.8,0.9,1.1,1.5c58,120.7,55,113.6,55,115.8c0,2.6-1.4,4.9-3.8,6c-4.7,2.3-8.4,6.3-10.1,11.3c-1.7,5-1.4,10.4,0.9,15.1
			c0.8,1.6,0.9,3.4,0.3,5c-0.6,1.6-1.8,3-3.4,3.7c-30.9,15,16.3-7.9-257.6,123.9c0.3,0.6,0.7,1.1,0.9,1.7c0.8,1.6,2.1,2.8,3.8,3.4
			c1.7,0.6,3.5,0.5,5.1-0.3c321.9-154.9,235.9-113.3,267.6-128.7c1.6-0.7,2.8-2.1,3.4-3.7c0.6-1.6,0.5-3.5-0.3-5
			c-2.3-4.7-2.6-10.2-0.9-15.1c1.7-5,5.4-9,10.1-11.3c2.3-1.1,3.8-3.4,3.8-6C442.4,190.4,445.5,197.5,387.4,76.8L387.4,76.8z"/>
		<ellipse id="Oval" class="st6" cx="353.3" cy="354.3" rx="89.1" ry="89.1"/>
		<ellipse id="Oval_1_" class="st7" cx="343.4" cy="354.3" rx="79.2" ry="88.5"/>
		<ellipse id="Oval_2_" class="st8" cx="353.3" cy="301.5" rx="16.5" ry="16.5"/>
		<ellipse id="Oval_3_" class="st8" cx="353.3" cy="407.1" rx="16.5" ry="16.5"/>
		<ellipse id="Oval_4_" class="st9" cx="353.3" cy="301.5" rx="16.5" ry="16.5"/>
		<ellipse id="Oval_5_" class="st9" cx="353.3" cy="407.1" rx="16.5" ry="16.5"/>
		<ellipse id="Oval_6_" class="st8" cx="353.3" cy="354.3" rx="16.5" ry="16.5"/>
		<ellipse id="Oval_7_" class="st9" cx="353.3" cy="354.3" rx="16.5" ry="16.5"/>
		<ellipse id="Oval_8_" class="st8" cx="307.6" cy="327.9" rx="16.5" ry="16.5"/>
		<ellipse id="Oval_9_" class="st8" cx="399" cy="380.7" rx="16.5" ry="16.5"/>
		<ellipse id="Oval_10_" class="st9" cx="307.6" cy="327.9" rx="16.5" ry="16.5"/>
		<ellipse id="Oval_11_" class="st9" cx="399" cy="380.7" rx="16.5" ry="16.5"/>
		<ellipse id="Oval_12_" class="st8" cx="399" cy="327.9" rx="16.5" ry="16.5"/>
		<ellipse id="Oval_13_" class="st8" cx="307.6" cy="380.7" rx="16.5" ry="16.5"/>
		<g>
			<ellipse id="Oval_14_" class="st9" cx="399" cy="327.9" rx="16.5" ry="16.5"/>
			<ellipse id="Oval_15_" class="st9" cx="307.6" cy="380.7" rx="16.5" ry="16.5"/>
		</g>
	</g>
	<g id="Outline" transform="translate(0 -1)">
		<path id="Shape_8_" d="M166.7,293.4c2.3,0,4.4-1.2,5.6-3.1c1.2-1.9,1.3-4.3,0.4-6.4l-22.9-47.6l5.9-2.9c3.1-1.7,4.3-5.5,2.8-8.7
			c-1.5-3.2-5.3-4.6-8.5-3.2l-23.8,11.4c-2.8,1.3-4.2,4.4-3.6,7.4c0.7,3,3.4,5.1,6.4,5.1c1.9,0,2.4-0.4,8.8-3.5l22.9,47.6
			C161.9,292,164.2,293.4,166.7,293.4L166.7,293.4z"/>
		<path id="Shape_9_" d="M199.3,278.5c1.6-0.8,2.8-2.1,3.4-3.8c0.6-1.7,0.5-3.5-0.3-5l-25.7-53.5c-1.7-3.1-5.5-4.3-8.7-2.8
			c-3.2,1.5-4.6,5.3-3.2,8.5l25.7,53.5C192.1,278.7,196.1,280,199.3,278.5L199.3,278.5z"/>
		<path id="Shape_10_" d="M352,139.2l5.9-2.9c3.1-1.7,4.4-5.5,2.8-8.7c-1.5-3.2-5.3-4.6-8.6-3.2l-23.8,11.4
			c-2.8,1.3-4.2,4.4-3.6,7.4c0.7,3,3.4,5.1,6.4,5.1c1.9,0,2.5-0.5,8.8-3.5l22.9,47.6c1,2.2,3.1,3.8,5.5,4c2.4,0.2,4.8-0.9,6.1-2.9
			c1.3-2,1.5-4.6,0.3-6.8L352,139.2z"/>
		<path id="Shape_11_" d="M249.8,246.7c2-5.8,1.7-12.1-1-17.7c-1.7-3.1-5.5-4.3-8.7-2.8c-3.2,1.5-4.6,5.3-3.2,8.5
			c1.1,2.4,1.3,5.1,0.4,7.6c-1.3,3.8-4.8,6.4-8.8,6.6s-7.7-2-9.5-5.6l-11.4-23.8c-2.1-4.9,0.1-10.5,4.8-12.8
			c4.8-2.3,10.5-0.4,13,4.2c1,2.2,3.1,3.8,5.5,4c2.4,0.2,4.8-0.9,6.1-2.9c1.3-2,1.5-4.6,0.3-6.8c-5.7-11.1-19.3-15.7-30.6-10.2
			c-11.3,5.4-16.2,18.8-11.1,30.3l11.4,23.8c4,8.4,12.8,13.6,22.1,13.1C238.6,261.6,246.7,255.5,249.8,246.7L249.8,246.7z"/>
		<path id="Shape_12_" d="M299.8,217.7L266.8,206l11.3-33.5c0.8-2.3,0.4-4.8-1.2-6.6s-4-2.7-6.4-2.1c-2.4,0.5-4.3,2.2-4.9,4.6
			l-9.9,29.4l-7.6-15.8c-1-2.2-3.1-3.8-5.5-4c-2.4-0.2-4.8,0.9-6.1,2.9c-1.3,2-1.5,4.6-0.3,6.8l25.7,53.5c1,2.2,3.1,3.8,5.5,4
			s4.8-0.9,6.1-2.9s1.5-4.6,0.3-6.8l-7.6-15.8l29.2,10.6c2.2,0.9,4.7,0.4,6.6-1.1c1.8-1.5,2.7-3.9,2.3-6.3
			C303.8,220.5,302.1,218.5,299.8,217.7L299.8,217.7z"/>
		<path id="Shape_13_" d="M295.2,188.5l14.3,29.7c1.1,2.3,3.4,3.7,5.9,3.7c2.1,0,1.2,0.2,26.6-12.1c3.1-1.7,4.3-5.5,2.8-8.7
			c-1.5-3.2-5.3-4.6-8.5-3.2l-17.8,8.6l-8.6-17.8l11.9-5.7c3.1-1.7,4.3-5.5,2.8-8.7c-1.5-3.2-5.3-4.6-8.5-3.2l-11.9,5.7l-5.7-11.9
			l17.8-8.6c2.2-1,3.8-3.1,4-5.5c0.2-2.4-0.9-4.8-2.9-6.1c-2-1.3-4.6-1.5-6.8-0.3L286.8,156c-1.6,0.8-2.8,2.1-3.4,3.8
			c-0.6,1.7-0.5,3.5,0.3,5L295.2,188.5z"/>
		<path id="Shape_14_" d="M319.2,242.8l-12.2,5.9c-2.2,1-3.8,3.1-4,5.5c-0.2,2.4,0.9,4.8,2.9,6.1c2,1.3,4.6,1.5,6.8,0.3l12.2-5.9
			c3.1-1.7,4.3-5.5,2.8-8.7C326.3,242.8,322.5,241.4,319.2,242.8L319.2,242.8z"/>
		<path id="Shape_15_" d="M209.7,295.5l-12.2,5.9c-3.1,1.7-4.3,5.5-2.8,8.7c1.5,3.2,5.3,4.6,8.5,3.2l12.2-5.9c2.2-1,3.8-3.1,4-5.5
			c0.2-2.4-0.9-4.8-2.9-6.1C214.4,294.4,211.8,294.3,209.7,295.5L209.7,295.5z"/>
		<path id="Shape_16_" d="M246.2,277.9l-12.2,5.9c-3.1,1.7-4.3,5.5-2.8,8.7s5.3,4.6,8.5,3.2l12.2-5.9c2.2-1,3.8-3.1,4-5.5
			c0.2-2.4-0.9-4.8-2.9-6.1C250.9,276.9,248.3,276.8,246.2,277.9L246.2,277.9z"/>
		<path id="Shape_17_" d="M282.7,260.3l-12.2,5.9c-3.1,1.7-4.3,5.5-2.8,8.7c1.5,3.2,5.3,4.6,8.5,3.2l12.2-5.9
			c3.1-1.7,4.3-5.5,2.8-8.7C289.7,260.4,286,259,282.7,260.3L282.7,260.3z"/>
		<path id="Shape_18_" d="M394.3,181.4c2.1,3.5,3.8,7.2,5.1,11.1c0.6,2.3,2.4,4.1,4.7,4.7c2.3,0.6,4.7,0,6.4-1.7
			c1.7-1.7,2.3-4.1,1.7-6.4c-1.6-4.7-3.5-9.2-5.9-13.5c-1.7-3.1-5.5-4.3-8.7-2.8S393,178.1,394.3,181.4L394.3,181.4z"/>
		<path id="Shape_19_" d="M392.3,207.7l-12.2,5.9c-2.2,1-3.8,3.1-4,5.5c-0.2,2.4,0.9,4.8,2.9,6.1c2,1.3,4.6,1.5,6.8,0.3l12.4-5.9
			c1.6-0.8,2.8-2.1,3.3-3.8c0.6-1.6,0.4-3.4-0.3-5C399.6,207.4,395.6,206.1,392.3,207.7z"/>
		<path id="Shape_20_" d="M376.9,114.8c-1.8-4.7-4.3-9.2-7.3-13.2c-1.5-1.8-3.9-2.7-6.2-2.3c-2.3,0.4-4.3,2-5.1,4.2
			s-0.4,4.7,1.1,6.5c2.2,3.3,4.1,6.8,5.5,10.5c1.7,3.1,5.5,4.3,8.7,2.8C376.9,121.8,378.3,118,376.9,114.8L376.9,114.8z"/>
		<path id="Shape_21_" d="M355.8,225.2l-12.2,5.9c-2.2,1-3.8,3.1-4,5.5c-0.2,2.4,0.9,4.8,2.9,6.1c2,1.3,4.6,1.5,6.8,0.3l12.2-5.9
			c3.1-1.7,4.3-5.5,2.8-8.7C362.8,225.3,359,223.8,355.8,225.2L355.8,225.2z"/>
		<path id="Shape_22_" d="M379.8,136c-3.3,1.6-4.7,5.5-3.1,8.8l5.9,12.2c1.7,3.1,5.5,4.3,8.7,2.8c3.2-1.5,4.6-5.3,3.2-8.5l-5.8-12.2
			c-0.8-1.6-2.1-2.8-3.8-3.4C383.2,135.2,381.4,135.3,379.8,136L379.8,136z"/>
		<path id="Shape_23_" d="M294.2,130.4l12.2-5.9c2.2-1,3.8-3.1,4-5.5c0.2-2.4-0.9-4.8-2.9-6.1c-2-1.3-4.6-1.5-6.8-0.3l-12.2,5.9
			c-3.1,1.7-4.3,5.5-2.8,8.7C287.2,130.3,291,131.7,294.2,130.4L294.2,130.4z"/>
		<path id="Shape_24_" d="M109.7,244.3c-2-3.5-3.7-7.2-5-11.1c-0.9-3.5-4.5-5.7-8-4.8c-3.5,0.9-5.7,4.5-4.8,8
			c1.5,4.7,3.5,9.2,5.9,13.6c1,2.2,3.1,3.8,5.5,4s4.8-0.9,6.1-2.9C110.7,249,110.8,246.4,109.7,244.3L109.7,244.3z"/>
		<path id="Shape_25_" d="M184.7,183l12.2-5.9c2.2-1,3.8-3.1,4-5.5c0.2-2.4-0.9-4.8-2.9-6.1c-2-1.3-4.6-1.5-6.8-0.3l-12.2,5.9
			c-3.1,1.7-4.3,5.5-2.8,8.7C177.7,183,181.4,184.4,184.7,183L184.7,183z"/>
		<path id="Shape_26_" d="M127.2,280.8l-5.9-12.2c-1-2.2-3.1-3.8-5.5-4c-2.4-0.2-4.8,0.9-6.1,2.9c-1.3,2-1.5,4.6-0.3,6.8l5.9,12.2
			c1.7,3.1,5.5,4.3,8.7,2.8C127.2,287.8,128.6,284.1,127.2,280.8L127.2,280.8z"/>
		<path id="Shape_27_" d="M257.7,147.9l12.2-5.9c2.2-1,3.8-3.1,4-5.5c0.2-2.4-0.9-4.8-2.9-6.1c-2-1.3-4.6-1.5-6.8-0.3L252,136
			c-3.1,1.7-4.3,5.5-2.8,8.7C250.7,147.9,254.5,149.3,257.7,147.9L257.7,147.9z"/>
		<path id="Shape_28_" d="M148.1,200.6l12.2-5.9c2.2-1,3.8-3.1,4-5.5c0.2-2.4-0.9-4.8-2.9-6.1c-2-1.3-4.6-1.5-6.8-0.3l-12.2,5.9
			c-2.2,0.9-3.8,3.1-4,5.5c-0.2,2.4,0.9,4.8,2.9,6.1C143.4,201.6,146,201.8,148.1,200.6z"/>
		<path id="Shape_29_" d="M111.7,218.1l12.1-5.8c3.1-1.7,4.3-5.5,2.8-8.7s-5.3-4.6-8.5-3.2l-12.2,5.9c-1.6,0.8-2.8,2.1-3.3,3.8
			c-0.6,1.6-0.5,3.5,0.3,5C104.5,218.3,108.4,219.7,111.7,218.1L111.7,218.1z"/>
		<path id="Shape_30_" d="M330.8,112.8l12.2-5.9c3.1-1.7,4.3-5.5,2.8-8.7c-1.5-3.2-5.3-4.6-8.5-3.2l-12.2,5.9c-2.2,1-3.8,3.1-4,5.5
			c-0.2,2.4,0.9,4.8,2.9,6.1C326,113.8,328.6,113.9,330.8,112.8L330.8,112.8z"/>
		<path id="Shape_31_" d="M221.2,165.5l12.2-5.9c2.2-1,3.8-3.1,4-5.5c0.2-2.4-0.9-4.8-2.9-6.1c-2-1.3-4.6-1.5-6.8-0.3l-12.2,5.9
			c-3.1,1.7-4.3,5.5-2.8,8.7C214.2,165.4,217.9,166.9,221.2,165.5L221.2,165.5z"/>
		<path id="Shape_32_" d="M173.1,313.1l-12.2,5.9c-3.1,1.7-4.3,5.5-2.8,8.7c1.5,3.2,5.3,4.6,8.5,3.2l12.2-5.9
			c3.1-1.7,4.3-5.5,2.8-8.7S176.4,311.7,173.1,313.1L173.1,313.1z"/>
		<path id="Shape_33_" d="M138.9,305.1c-1-2.2-3.1-3.8-5.5-4c-2.4-0.2-4.8,0.9-6.1,2.9c-1.3,2-1.5,4.6-0.3,6.8
			c1.9,4.7,4.3,9.1,7.2,13.2c1.4,2,3.9,3,6.3,2.7c2.4-0.3,4.5-2,5.3-4.3s0.3-4.9-1.4-6.7C142.2,312.4,140.3,308.9,138.9,305.1
			L138.9,305.1z"/>
		<path id="Shape_34_" d="M442.5,205.5c6.6-3.2,9.4-11.1,6.2-17.7L394.4,74.9c-3.2-6.6-11-9.3-17.6-6.2c-6.5,3-14.3,0.4-17.6-6.1
			c-2.2-4.6-6.9-7.6-12-7.5c-4.4,0,12.7-7.5-273.3,130c-6.6,3.2-9.3,11.1-6.2,17.6c3.2,6.5,0.4,14.4-6.1,17.6
			c-4.6,2.2-7.5,6.8-7.6,11.9c0,3.9,0.1,3.2,13.4,30.8c-1.1,0.7-2.2,1.2-3.4,1.6c-5.5,1.7-9.2,6.8-9.2,12.5c0,3-2.7-7.3,37.1,122.8
			c1,3.3,3.3,6.1,6.4,7.7s6.7,2,10,0.9c6.9-2.1,14.1,1.7,16.3,8.6c2.1,6.9,9.5,10.8,16.4,8.8L264.5,388c2.1,5.8,4.8,11.5,8.1,16.8
			h-24c-4,0-7.8,1.8-10.3,5l-15.8,19.8c-3.2,4-3.8,9.4-1.6,13.9c2.2,4.6,6.8,7.5,11.9,7.5c120.4,0,111.7,0.2,113.7-0.4
			c35.3,2.9,69.4-14,88.5-43.8c19.1-29.9,20.1-67.9,2.5-98.7c0.8-0.5,1.7-0.9,2.6-1.2c5.5-1.7,9.2-6.8,9.2-12.5
			c0-3,0.8,0.4-16.4-55.4c4.6-3.8,6.1-10.3,3.5-15.8C433.2,216.6,435.9,208.7,442.5,205.5L442.5,205.5z M137.2,413.4
			c-2-6.6-6.6-12.2-12.7-15.5c-6.1-3.3-13.3-3.9-20-1.8L67.9,277.2c1.8-0.6,3.6-1.4,5.3-2.3l36.5,76c3.2,6.5,11.1,9.2,17.6,6.1
			c6.6-2.9,14.3-0.2,17.6,6.2c2.2,4.6,6.9,7.5,12,7.5c4.3,0-3.9,3.3,108.7-50.9c-7.1,17.6-8.8,36.9-4.7,55.5L137.2,413.4z
			 M232.7,437.8l15.8-19.8h33.6c6.8,7.8,14.9,14.5,23.9,19.8H232.7z M354.3,437.8c-33.4,0-63.5-20.1-76.2-50.9s-5.7-66.3,17.9-89.9
			s59.1-30.6,89.9-17.9c30.8,12.8,50.9,42.8,50.9,76.2C436.8,400.8,399.8,437.7,354.3,437.8L354.3,437.8z M430,297
			c-12.1-15.8-28.8-27.4-47.8-33.2l38.8-18.7l15.2,49.1C434,294.9,432,295.8,430,297z M424.4,228.8l-64.6,31.1
			c-32.9-2-64.5,13.2-83.5,40.1l-119.6,57.5c-6.4-13.1-22.1-18.6-35.2-12.3l-54.3-113c13.1-6.4,18.6-22.1,12.3-35.2L347.2,68.3
			c6.3,13.1,22.1,18.6,35.2,12.3l54.3,113C423.7,199.9,418.1,215.7,424.4,228.8L424.4,228.8z"/>
		<path id="Shape_35_" d="M354.3,325.6c12.8,0,23.1-10.3,23.1-23.1s-10.3-23.1-23.1-23.1s-23.1,10.3-23.1,23.1
			S341.5,325.6,354.3,325.6z M354.3,292.6c5.5,0,9.9,4.4,9.9,9.9s-4.4,9.9-9.9,9.9s-9.9-4.4-9.9-9.9S348.8,292.6,354.3,292.6z"/>
		<path id="Shape_36_" d="M354.3,385c-12.8,0-23.1,10.3-23.1,23.1s10.3,23.1,23.1,23.1s23.1-10.3,23.1-23.1S367.1,385,354.3,385z
			 M354.3,418c-5.5,0-9.9-4.4-9.9-9.9s4.4-9.9,9.9-9.9s9.9,4.4,9.9,9.9S359.8,418,354.3,418z"/>
		<path id="Shape_37_" d="M331.2,355.3c0,12.8,10.3,23.1,23.1,23.1s23.1-10.3,23.1-23.1c0-12.8-10.3-23.1-23.1-23.1
			S331.2,342.5,331.2,355.3z M364.2,355.3c0,5.5-4.4,9.9-9.9,9.9s-9.9-4.4-9.9-9.9c0-5.5,4.4-9.9,9.9-9.9S364.2,349.8,364.2,355.3z"
			/>
		<path id="Shape_38_" d="M297,348.9c11,6.4,25.2,2.6,31.6-8.5c6.4-11,2.6-25.2-8.5-31.5c-11-6.4-25.2-2.6-31.6,8.5
			C282.2,328.4,286,342.5,297,348.9z M300,323.9c2.7-4.7,8.8-6.4,13.5-3.6s6.4,8.8,3.6,13.5c-2.7,4.7-8.8,6.4-13.5,3.6
			c-2.3-1.3-3.9-3.5-4.6-6C298.3,328.9,298.7,326.2,300,323.9z"/>
		<path id="Shape_39_" d="M411.6,361.7c-11-6.4-25.2-2.6-31.6,8.5s-2.6,25.2,8.5,31.5c11,6.4,25.2,2.6,31.6-8.5
			C426.4,382.2,422.6,368.1,411.6,361.7z M408.6,386.6c-2.7,4.7-8.8,6.4-13.5,3.6s-6.4-8.8-3.6-13.5c2.7-4.7,8.8-6.4,13.5-3.6
			c2.3,1.3,3.9,3.5,4.6,6C410.3,381.7,409.9,384.4,408.6,386.6z"/>
		<path id="Shape_40_" d="M388.5,308.9c-11,6.4-14.8,20.5-8.4,31.5c6.4,11,20.5,14.8,31.6,8.5c11-6.4,14.8-20.5,8.5-31.5
			c-3.1-5.3-8.1-9.2-14-10.8C400.1,305,393.8,305.8,388.5,308.9L388.5,308.9z M408.6,323.9c2.7,4.7,1.1,10.8-3.6,13.5
			c-4.7,2.7-10.8,1.1-13.5-3.6c-2.7-4.7-1.1-10.8,3.6-13.5c2.3-1.3,5-1.7,7.5-1S407.3,321.7,408.6,323.9z"/>
		<path id="Shape_41_" d="M328.6,370.1c-6.4-11-20.5-14.8-31.6-8.5c-11,6.4-14.8,20.5-8.5,31.5s20.5,14.8,31.6,8.5
			C331.1,395.3,334.9,381.2,328.6,370.1z M313.5,390.3c-3.5,2-7.8,1.7-11-0.7c-3.2-2.4-4.6-6.5-3.5-10.4s4.3-6.7,8.3-7.3
			c4-0.5,7.9,1.4,9.9,4.9C319.9,381.5,318.3,387.5,313.5,390.3L313.5,390.3z"/>
	</g>
</g>
</svg>
