<?xml version="1.0" encoding="iso-8859-1"?>
<!-- Generator: Adobe Illustrator 16.0.0, SVG Export Plug-In . SVG Version: 6.00 Build 0)  -->
<!DOCTYPE svg PUBLIC "-//W3C//DTD SVG 1.1//EN" "http://www.w3.org/Graphics/SVG/1.1/DTD/svg11.dtd">
<svg version="1.1" id="Capa_1" xmlns="http://www.w3.org/2000/svg" xmlns:xlink="http://www.w3.org/1999/xlink" x="0px" y="0px"
	 width="529.227px" height="529.227px" viewBox="0 0 529.227 529.227" style="enable-background:new 0 0 529.227 529.227;"
	 xml:space="preserve">
<g>
	<g>
		<path d="M444.866,397.277h-13.453v-28.641h0.891c2.143,0,3.88-1.736,3.88-3.881v-39.792h8.684c1.654,0,3.128-1.052,3.669-2.614
			c0.54-1.562,0.027-3.296-1.271-4.318c-11.157-8.766-40.114-35.275-40.114-52.453v-16.604l26.823-12.796
			c0.039-0.02,0.07-0.045,0.106-0.066c0.141-0.072,0.272-0.155,0.404-0.243c0.075-0.052,0.152-0.098,0.222-0.153
			c0.128-0.101,0.242-0.213,0.356-0.328c0.054-0.055,0.114-0.104,0.164-0.162c0.307-0.354,0.556-0.767,0.721-1.225
			c0.029-0.08,0.045-0.166,0.068-0.246c0.036-0.13,0.082-0.254,0.105-0.392c0.002-0.018,0.001-0.033,0.004-0.053
			c0.027-0.152,0.028-0.308,0.036-0.465c0.004-0.101,0.021-0.202,0.016-0.301c-0.004-0.126-0.027-0.25-0.047-0.377
			c-0.018-0.128-0.024-0.256-0.056-0.381c-0.022-0.096-0.062-0.188-0.091-0.285c-0.048-0.148-0.094-0.3-0.159-0.441
			c-0.008-0.019-0.01-0.034-0.021-0.051c-0.035-0.083-0.092-0.151-0.136-0.229c-0.076-0.129-0.144-0.257-0.229-0.376
			c-0.075-0.1-0.156-0.188-0.238-0.278c-0.083-0.097-0.169-0.195-0.264-0.285c-0.088-0.083-0.188-0.155-0.286-0.229
			c-0.104-0.08-0.202-0.159-0.313-0.228c-0.104-0.065-0.218-0.115-0.327-0.171c-0.114-0.057-0.227-0.116-0.346-0.161
			c-0.136-0.05-0.271-0.08-0.409-0.116c-0.092-0.023-0.176-0.06-0.27-0.078l-29.033-5.2c-0.112-0.02-0.223-0.015-0.334-0.025
			c-0.117-0.011-0.229-0.035-0.35-0.035c-0.021,0-0.032,0.005-0.052,0.005c-0.144,0.002-0.283,0.027-0.424,0.043
			c-0.116,0.015-0.235,0.021-0.349,0.043c-0.128,0.026-0.244,0.075-0.367,0.114c-0.118,0.038-0.241,0.068-0.352,0.116
			c-0.117,0.05-0.225,0.12-0.335,0.183c-0.105,0.059-0.217,0.109-0.314,0.178c-0.118,0.08-0.222,0.18-0.33,0.272
			c-0.08,0.067-0.163,0.127-0.238,0.201c-0.104,0.106-0.189,0.226-0.284,0.344c-0.062,0.078-0.132,0.151-0.188,0.234
			c-0.075,0.108-0.129,0.231-0.188,0.348c-0.058,0.108-0.121,0.212-0.168,0.325c-0.042,0.102-0.065,0.211-0.1,0.317
			c-0.043,0.14-0.094,0.28-0.123,0.43c-0.002,0.016-0.01,0.027-0.012,0.045c-0.024,0.116-0.02,0.231-0.028,0.347
			c-0.01,0.112-0.033,0.222-0.033,0.338v38.103c0,13.652-18.29,33.193-31.396,45.041V194.944h1.041
			c8.989,0,16.303-7.312,16.303-16.3c0-8.989-7.312-16.303-16.303-16.303h-0.825v-27.119h0.55c2.145,0,3.88-1.737,3.88-3.88V94.674
			h7.786c1.652,0,3.125-1.051,3.667-2.614c0.541-1.563,0.028-3.298-1.271-4.319c-10.331-8.116-37.144-32.65-37.144-48.487V24.012
			l24.754-11.806c0.039-0.019,0.07-0.045,0.106-0.063c0.141-0.072,0.273-0.156,0.403-0.245c0.076-0.05,0.151-0.097,0.224-0.152
			c0.127-0.101,0.242-0.213,0.354-0.328c0.055-0.054,0.115-0.104,0.164-0.161c0.31-0.354,0.559-0.769,0.724-1.226
			c0.025-0.08,0.043-0.165,0.067-0.247c0.036-0.129,0.081-0.255,0.106-0.39c0.002-0.019,0.001-0.035,0.004-0.054
			c0.026-0.153,0.028-0.309,0.036-0.466c0.004-0.101,0.019-0.2,0.015-0.3c-0.003-0.127-0.027-0.249-0.046-0.376
			c-0.017-0.13-0.024-0.257-0.056-0.383c-0.023-0.096-0.063-0.188-0.093-0.285c-0.048-0.148-0.093-0.299-0.159-0.441
			c-0.009-0.018-0.011-0.032-0.02-0.051c-0.039-0.083-0.095-0.154-0.141-0.234c-0.073-0.125-0.139-0.252-0.226-0.369
			c-0.074-0.104-0.162-0.194-0.242-0.29c-0.082-0.093-0.161-0.188-0.252-0.271c-0.096-0.089-0.2-0.164-0.305-0.243
			c-0.095-0.074-0.188-0.149-0.293-0.212c-0.114-0.071-0.235-0.127-0.355-0.187c-0.104-0.051-0.205-0.106-0.314-0.146
			c-0.146-0.056-0.298-0.092-0.451-0.13c-0.08-0.021-0.153-0.053-0.236-0.069L342.479,0.06c-0.114-0.021-0.227-0.017-0.339-0.026
			C342.024,0.023,341.912,0,341.794,0c-0.019,0-0.031,0.004-0.049,0.005c-0.146,0.002-0.29,0.026-0.433,0.045
			c-0.114,0.014-0.23,0.018-0.341,0.041c-0.116,0.027-0.228,0.071-0.341,0.104c-0.13,0.042-0.262,0.076-0.387,0.13
			c-0.087,0.037-0.168,0.091-0.253,0.137c-0.134,0.072-0.273,0.137-0.396,0.223c-0.086,0.058-0.159,0.133-0.241,0.198
			c-0.111,0.09-0.229,0.174-0.326,0.276c-0.083,0.085-0.152,0.185-0.229,0.276c-0.08,0.1-0.169,0.192-0.24,0.3
			c-0.065,0.098-0.111,0.206-0.168,0.31c-0.065,0.119-0.136,0.233-0.188,0.359c-0.038,0.098-0.062,0.203-0.093,0.304
			c-0.046,0.146-0.097,0.287-0.127,0.44c-0.002,0.015-0.01,0.028-0.014,0.045c-0.021,0.116-0.018,0.231-0.026,0.347
			c-0.01,0.112-0.031,0.221-0.031,0.339v35.375c0,15.837-26.812,40.371-37.144,48.487c-1.303,1.021-1.811,2.756-1.27,4.319
			c0.54,1.562,2.012,2.614,3.666,2.614h7.785v36.668c0,2.143,1.737,3.88,3.879,3.88h0.551v27.119h-0.826
			c-8.987,0-16.3,7.313-16.3,16.302c0,8.566,6.646,15.596,15.052,16.239v71.509l-28.9-27.267v-44.178h8.878
			c1.542,0,2.938-0.915,3.557-2.33c0.618-1.414,0.337-3.059-0.715-4.19c-0.26-0.282-26.14-28.365-26.14-47.051V126.5l18.478-11.266
			c0.033-0.021,0.062-0.049,0.095-0.071c0.146-0.096,0.284-0.201,0.417-0.316c0.052-0.044,0.104-0.085,0.151-0.131
			c0.168-0.16,0.322-0.333,0.46-0.521c0.019-0.025,0.027-0.051,0.045-0.076c0.114-0.164,0.215-0.337,0.302-0.52
			c0.037-0.08,0.064-0.162,0.098-0.243c0.037-0.093,0.082-0.184,0.113-0.282c0.013-0.037,0.014-0.075,0.024-0.11
			c0.038-0.138,0.063-0.28,0.083-0.422c0.021-0.112,0.041-0.226,0.048-0.338c0.012-0.13,0.007-0.263,0.002-0.395
			c-0.004-0.122-0.004-0.241-0.02-0.359c-0.016-0.125-0.045-0.247-0.074-0.372c-0.025-0.123-0.053-0.243-0.091-0.364
			c-0.037-0.112-0.087-0.221-0.135-0.332c-0.057-0.127-0.11-0.25-0.18-0.371c-0.021-0.033-0.029-0.074-0.052-0.107
			c-0.04-0.066-0.095-0.12-0.138-0.184c-0.079-0.113-0.16-0.227-0.25-0.332c-0.081-0.092-0.167-0.178-0.254-0.261
			c-0.093-0.089-0.189-0.175-0.291-0.256c-0.103-0.08-0.206-0.149-0.315-0.217c-0.104-0.065-0.205-0.128-0.314-0.184
			c-0.127-0.063-0.255-0.113-0.386-0.163c-0.072-0.027-0.136-0.067-0.21-0.089l-20.34-6.324c-2.047-0.637-4.221,0.507-4.857,2.553
			c-0.204,0.661-0.207,1.329-0.071,1.96c-0.063,0.279-0.104,0.564-0.104,0.859v34.109c0,15.44-20.221,39.128-28.012,46.954
			c-1.104,1.11-1.434,2.777-0.834,4.227c0.602,1.447,2.015,2.393,3.582,2.393h7.636v90.092c-8.334-9.629-23.745-30.334-23.745-44.37
			v-14.875l18.479-11.266c0.034-0.021,0.061-0.049,0.095-0.071c0.146-0.096,0.284-0.202,0.418-0.315
			c0.052-0.044,0.106-0.084,0.154-0.132c0.167-0.16,0.323-0.332,0.458-0.522c0.013-0.02,0.024-0.039,0.036-0.056
			c0.117-0.172,0.224-0.351,0.314-0.542c0.032-0.075,0.061-0.15,0.088-0.228c0.041-0.097,0.087-0.191,0.12-0.296
			c0.013-0.038,0.014-0.08,0.025-0.117c0.036-0.135,0.06-0.268,0.081-0.403c0.02-0.118,0.041-0.236,0.05-0.353
			c0.011-0.128,0.004-0.252,0-0.38c-0.005-0.126-0.005-0.248-0.02-0.372c-0.016-0.125-0.046-0.243-0.072-0.364
			c-0.029-0.125-0.053-0.249-0.094-0.369c-0.036-0.112-0.086-0.22-0.135-0.33c-0.056-0.127-0.11-0.252-0.18-0.373
			c-0.02-0.036-0.027-0.073-0.052-0.107c-0.04-0.068-0.093-0.121-0.136-0.185c-0.081-0.115-0.161-0.228-0.252-0.332
			c-0.081-0.092-0.166-0.179-0.256-0.263c-0.09-0.086-0.186-0.175-0.288-0.252c-0.104-0.08-0.21-0.151-0.319-0.22
			c-0.103-0.064-0.204-0.129-0.312-0.183c-0.126-0.063-0.255-0.115-0.389-0.166c-0.071-0.026-0.135-0.064-0.207-0.086l-20.34-6.325
			c-2.045-0.637-4.222,0.508-4.857,2.554c-0.204,0.661-0.207,1.328-0.073,1.961c-0.062,0.276-0.104,0.562-0.104,0.858v34.109
			c0,15.442-20.218,39.13-28.009,46.955c-0.771,0.772-1.154,1.813-1.118,2.864c-0.001,0.043-0.014,0.082-0.014,0.127v2.686
			c-13.478-11.632-43.969-40.223-43.969-60.734v-21.243l33.897-16.169c0.037-0.018,0.069-0.045,0.105-0.064
			c0.141-0.074,0.276-0.158,0.407-0.245c0.074-0.051,0.15-0.098,0.218-0.153c0.131-0.103,0.248-0.217,0.364-0.337
			c0.052-0.052,0.108-0.098,0.158-0.153c0.309-0.354,0.557-0.769,0.722-1.226c0.029-0.079,0.043-0.159,0.067-0.241
			c0.036-0.131,0.083-0.258,0.108-0.397c0.003-0.019,0.001-0.037,0.004-0.055c0.025-0.15,0.027-0.303,0.034-0.455
			c0.005-0.104,0.022-0.21,0.018-0.312c-0.004-0.122-0.029-0.243-0.044-0.363c-0.02-0.134-0.028-0.267-0.058-0.395
			c-0.023-0.092-0.062-0.182-0.091-0.271c-0.049-0.155-0.096-0.309-0.162-0.458c-0.007-0.016-0.01-0.031-0.017-0.048
			c-0.039-0.08-0.093-0.145-0.136-0.223c-0.073-0.13-0.144-0.261-0.232-0.382c-0.074-0.102-0.157-0.189-0.241-0.283
			c-0.082-0.095-0.164-0.192-0.256-0.278c-0.094-0.088-0.196-0.162-0.298-0.241c-0.099-0.075-0.192-0.151-0.299-0.217
			c-0.113-0.07-0.233-0.125-0.35-0.183c-0.105-0.052-0.208-0.107-0.32-0.148c-0.149-0.056-0.301-0.094-0.456-0.131
			c-0.08-0.021-0.149-0.052-0.23-0.066l-36.106-6.466c-0.107-0.019-0.215-0.014-0.322-0.024c-0.121-0.012-0.237-0.036-0.36-0.036
			c-0.02,0-0.035,0.005-0.055,0.005c-0.132,0.001-0.256,0.026-0.385,0.039c-0.131,0.016-0.264,0.022-0.39,0.05
			c-0.103,0.021-0.196,0.062-0.295,0.091c-0.145,0.044-0.293,0.08-0.427,0.14c-0.083,0.036-0.157,0.087-0.237,0.131
			c-0.139,0.074-0.284,0.141-0.411,0.233c-0.088,0.058-0.162,0.134-0.244,0.198c-0.109,0.088-0.224,0.174-0.323,0.273
			c-0.083,0.085-0.156,0.188-0.233,0.283c-0.08,0.097-0.164,0.188-0.235,0.294c-0.065,0.098-0.112,0.207-0.169,0.311
			c-0.064,0.119-0.134,0.234-0.187,0.358c-0.041,0.099-0.062,0.205-0.095,0.307c-0.047,0.143-0.095,0.286-0.126,0.437
			c-0.002,0.016-0.01,0.028-0.012,0.044c-0.023,0.117-0.02,0.232-0.028,0.349c-0.01,0.112-0.033,0.222-0.033,0.336v47.38
			c0,26.199-49.742,65.576-50.246,65.97c-1.3,1.023-1.81,2.757-1.27,4.32c0.541,1.562,2.013,2.613,3.666,2.613h11.743v50.428
			c0,2.143,1.737,3.881,3.88,3.881h2.051v37.504H89.852c-2.142,0-3.879,1.736-3.879,3.879v124.188c0,2.143,1.737,3.879,3.879,3.879
			h137.73c2.142,0,3.88-1.736,3.88-3.879v-51.059c0-19.789,16.099-35.887,35.888-35.887c19.787,0,35.887,16.098,35.887,35.887
			v51.059c0,2.143,1.736,3.879,3.88,3.879h137.733c2.144,0,3.88-1.736,3.88-3.879V401.158
			C448.746,399.012,447.007,397.277,444.866,397.277z M345.672,8.51l10.522,1.884l-10.522,5.02V8.51z M341.792,53.309
			c6.446,12.896,19.506,25.908,28.071,33.603h-1.108h-53.922h-1.107C322.288,79.216,335.345,66.206,341.792,53.309z M364.875,94.67
			v32.789h-0.55h-45.064h-0.551V94.67H364.875z M360.445,135.221v26.039h-37.305v-26.039H360.445z M269.986,110.867l7.107,2.21
			l-7.107,4.335V110.867z M265.981,157.391c4.821,11.552,13.245,22.928,18.845,29.794h-39.011
			C251.834,180.291,260.828,168.931,265.981,157.391z M428.42,360.878h-0.889h-48.533h-0.889v-35.914h50.31L428.42,360.878
			L428.42,360.878z M407.147,232.115l12.596,2.257l-12.596,6.009V232.115z M403.269,280.059c6.959,14.305,21.7,28.846,31.01,37.146
			h-1.975h-58.069h-1.976C381.564,308.904,396.309,294.367,403.269,280.059z M370.352,324.966v39.794
			c0,2.143,1.736,3.881,3.88,3.881h0.89v28.639h-7.132v-72.312L370.352,324.966L370.352,324.966z M191.713,355.891H360.23v10.689
			H191.713V355.891z M306.014,178.642c0-4.713,3.833-8.543,8.54-8.543h54.475c4.713,0,8.544,3.833,8.544,8.543
			c0,4.71-3.833,8.541-8.544,8.541h-54.475C309.847,187.185,306.014,183.352,306.014,178.642z M314.522,278.203
			c1.124,1.062,2.774,1.357,4.197,0.742c1.425-0.615,2.345-2.018,2.345-3.564v-80.072h39.166v121.962
			c0,1.269,0.002,4.016,0.002,7.405v23.454H191.713V294.49h56.766c2.143,0,3.879-1.735,3.879-3.881v-95.298h24.287v45.485
			c0,1.068,0.439,2.089,1.215,2.823L314.522,278.203z M220.855,210.16l7.107,2.21l-7.107,4.335V210.16z M216.847,256.684
			c4.826,11.555,13.247,22.93,18.85,29.795h-39.011C202.705,279.586,211.698,268.227,216.847,256.684z M183.954,397.277H170.16
			v-37.504h2.053c2.143,0,3.879-1.738,3.879-3.879v-50.429h7.862V397.277L183.954,397.277z M139.985,189.821l19.669,3.524
			l-19.669,9.382V189.821z M136.106,248.383c8.587,19.156,29.364,39.09,41.054,49.322h-4.946H99.999h-4.948
			C106.741,287.472,127.518,267.54,136.106,248.383z M168.333,305.466v46.548h-2.053h-60.352h-2.051v-46.548H168.333z
			 M440.986,521.463h-129.97v-47.176c0-24.064-19.583-43.646-43.646-43.646c-24.067,0-43.646,19.582-43.646,43.646v47.176H93.752
			V405.037h12.177c2.141,0,3.88-1.738,3.88-3.881v-41.383h52.592v41.383c0,2.143,1.737,3.881,3.88,3.881h21.554
			c2.141,0,3.879-1.738,3.879-3.881V374.34h168.517v26.816c0,2.143,1.736,3.881,3.88,3.881h14.892c2.144,0,3.88-1.738,3.88-3.881
			v-32.52h40.773v32.52c0,2.143,1.736,3.881,3.88,3.881h13.452v116.426H440.986z"/>
		<path d="M136.106,346.8c6.893,0,12.5-5.608,12.5-12.503v-10.305c0-6.894-5.607-12.502-12.5-12.502
			c-6.895,0-12.502,5.608-12.502,12.502v10.306C123.604,341.193,129.212,346.8,136.106,346.8z M131.363,323.994
			c0-2.613,2.127-4.741,4.742-4.741c2.613,0,4.741,2.128,4.741,4.741v10.307c0,2.614-2.13,4.743-4.741,4.743
			c-2.615,0-4.742-2.129-4.742-4.743V323.994z"/>
		<path d="M136.106,374.449c-6.895,0-12.502,5.607-12.502,12.5v10.305c0,6.895,5.607,12.504,12.502,12.504
			c6.893,0,12.5-5.609,12.5-12.504v-10.305C148.606,380.057,142.998,374.449,136.106,374.449z M140.847,397.254
			c0,2.615-2.13,4.744-4.741,4.744c-2.615,0-4.742-2.129-4.742-4.744v-10.305c0-2.615,2.127-4.742,4.742-4.742
			c2.613,0,4.741,2.127,4.741,4.742V397.254z"/>
		<path d="M403.269,374.449c-6.894,0-12.5,5.607-12.5,12.5v10.305c0,6.895,5.606,12.504,12.5,12.504s12.501-5.609,12.501-12.504
			v-10.305C415.77,380.057,410.159,374.449,403.269,374.449z M408.009,397.254c0,2.615-2.129,4.744-4.74,4.744
			c-2.614,0-4.741-2.129-4.741-4.744v-10.305c0-2.615,2.127-4.742,4.741-4.742c2.612,0,4.74,2.127,4.74,4.742V397.254z"/>
		<path d="M341.794,235.069c6.894,0,12.5-5.607,12.5-12.501V212.26c0-6.894-5.606-12.501-12.5-12.501s-12.501,5.607-12.501,12.501
			v10.308C329.293,229.462,334.9,235.069,341.794,235.069z M337.054,212.26c0-2.614,2.127-4.741,4.74-4.741
			c2.612,0,4.74,2.127,4.74,4.741v10.308c0,2.614-2.129,4.742-4.74,4.742c-2.613,0-4.74-2.128-4.74-4.742V212.26z"/>
		<path d="M341.794,277.959c6.894,0,12.5-5.61,12.5-12.502V255.15c0-6.894-5.606-12.501-12.5-12.501s-12.501,5.607-12.501,12.501
			v10.307C329.293,272.348,334.9,277.959,341.794,277.959z M337.054,255.15c0-2.614,2.127-4.742,4.74-4.742
			c2.612,0,4.74,2.128,4.74,4.742v10.307c0,2.613-2.129,4.742-4.74,4.742c-2.613,0-4.74-2.129-4.74-4.742V255.15z"/>
		<path d="M213.323,303.429c-6.893,0-12.5,5.608-12.5,12.503v10.307c0,6.893,5.607,12.5,12.5,12.5c6.894,0,12.501-5.607,12.501-12.5
			v-10.307C225.824,309.039,220.217,303.429,213.323,303.429z M218.064,326.238c0,2.613-2.129,4.74-4.741,4.74
			c-2.614,0-4.741-2.127-4.741-4.74v-10.307c0-2.615,2.127-4.742,4.741-4.742c2.613,0,4.741,2.127,4.741,4.742V326.238z"/>
		<path d="M252.497,303.429c-6.894,0-12.501,5.608-12.501,12.503v10.307c0,6.893,5.607,12.5,12.501,12.5
			c6.893,0,12.5-5.607,12.5-12.5v-10.307C264.996,309.039,259.39,303.429,252.497,303.429z M257.238,326.238
			c0,2.613-2.13,4.74-4.741,4.74c-2.614,0-4.741-2.127-4.741-4.74v-10.307c0-2.615,2.127-4.742,4.741-4.742
			c2.612,0,4.741,2.127,4.741,4.742V326.238z"/>
	</g>
</g>
<g>
</g>
<g>
</g>
<g>
</g>
<g>
</g>
<g>
</g>
<g>
</g>
<g>
</g>
<g>
</g>
<g>
</g>
<g>
</g>
<g>
</g>
<g>
</g>
<g>
</g>
<g>
</g>
<g>
</g>
</svg>
