<?xml version="1.0" encoding="iso-8859-1"?>
<!-- Generator: Adobe Illustrator 19.0.0, SVG Export Plug-In . SVG Version: 6.00 Build 0)  -->
<svg version="1.1" id="Layer_1" xmlns="http://www.w3.org/2000/svg" xmlns:xlink="http://www.w3.org/1999/xlink" x="0px" y="0px"
	 viewBox="0 0 512 512" style="enable-background:new 0 0 512 512;" xml:space="preserve">
<path style="fill:#57565C;" d="M69.473,306.12H38.126v-55.257c0-59.729,22.605-115.908,63.651-158.187
	C142.946,50.271,197.717,26.918,256,26.918s113.054,23.353,154.223,65.756c41.046,42.279,63.651,98.458,63.651,158.187v50.13
	h-31.347v-50.13c0-106.198-83.675-192.597-186.527-192.597S69.473,144.664,69.473,250.862V306.12z"/>
<path style="fill:#F3D332;" d="M150.194,290.462v194.623H63.101C28.306,485.084,0,456.715,0,421.837v-68.138
	c0-34.879,28.306-63.258,63.101-63.258h45.39v0.021L150.194,290.462L150.194,290.462z"/>
<rect x="69.475" y="290.461" style="fill:#00CFB4;" width="80.718" height="194.623"/>
<rect x="108.492" y="290.461" style="fill:#00AF94;" width="41.702" height="194.623"/>
<path style="fill:#3E3D43;" d="M473.872,250.858v50.134h-31.347v-50.134c0-106.193-83.675-192.596-186.525-192.596h-0.063V26.916
	H256c58.284,0,113.058,23.353,154.227,65.755C451.271,134.958,473.872,191.132,473.872,250.858z"/>
<path style="fill:#F3D332;" d="M512,353.699v68.138c0,34.879-28.379,63.248-63.248,63.248h-87.395V290.441h87.395
	C483.621,290.441,512,318.82,512,353.699z"/>
<rect x="361.357" y="290.44" style="fill:#00CFB4;" width="81.157" height="194.644"/>
<rect x="361.357" y="290.44" style="fill:#00AF94;" width="39.361" height="194.644"/>
<g>
</g>
<g>
</g>
<g>
</g>
<g>
</g>
<g>
</g>
<g>
</g>
<g>
</g>
<g>
</g>
<g>
</g>
<g>
</g>
<g>
</g>
<g>
</g>
<g>
</g>
<g>
</g>
<g>
</g>
</svg>
