<?xml version="1.0" encoding="utf-8"?>
<!-- Generator: Adobe Illustrator 22.1.0, SVG Export Plug-In . SVG Version: 6.00 Build 0)  -->
<svg version="1.1" id="Layer_1" xmlns="http://www.w3.org/2000/svg" xmlns:xlink="http://www.w3.org/1999/xlink" x="0px" y="0px"
	 viewBox="0 0 504 504" style="enable-background:new 0 0 504 504;" xml:space="preserve">
<style type="text/css">
	.st0{fill:#FFFFFF;}
	.st1{fill:#57565C;}
	.st2{fill:#F3D332;}
	.st3{fill:#00CFB4;}
	.st4{fill:#00AF94;}
	.st5{fill:#3E3D43;}
</style>
<circle class="st0" cx="252" cy="252" r="252"/>
<g>
	<path class="st1" d="M114.3,264.3H91.1v-45.6c0-49.3,16.7-95.6,47-130.5C168.5,53.3,209,34,252,34s83.5,19.3,113.9,54.3
		c30.3,34.9,47,81.2,47,130.5v41.4h-23.1v-41.4c0-87.6-61.8-158.9-137.7-158.9s-137.7,71.3-137.7,158.9L114.3,264.3L114.3,264.3z"/>
	<path class="st2" d="M173.9,251.4V412h-64.3C83.9,412,63,388.6,63,359.8v-56.2c0-28.8,20.9-52.2,46.6-52.2h33.5l0,0L173.9,251.4
		L173.9,251.4z"/>
	<rect x="114.3" y="251.4" class="st3" width="59.6" height="160.6"/>
	<rect x="143.1" y="251.4" class="st4" width="30.8" height="160.6"/>
	<path class="st5" d="M412.9,218.8v41.4h-23.1v-41.4c0-87.6-61.8-158.9-137.7-158.9l0,0V34l0,0c43,0,83.5,19.3,113.9,54.2
		C396.2,123.1,412.9,169.5,412.9,218.8z"/>
	<path class="st2" d="M441,303.6v56.2c0,28.8-21,52.2-46.7,52.2h-64.5V251.4h64.5C420,251.4,441,274.8,441,303.6z"/>
	<rect x="329.8" y="251.4" class="st3" width="59.9" height="160.6"/>
	<rect x="329.8" y="251.4" class="st4" width="29.1" height="160.6"/>
</g>
</svg>
