<?xml version="1.0" encoding="utf-8"?>
<!-- Generator: Adobe Illustrator 22.1.0, SVG Export Plug-In . SVG Version: 6.00 Build 0)  -->
<svg version="1.1" id="Capa_1" xmlns="http://www.w3.org/2000/svg" xmlns:xlink="http://www.w3.org/1999/xlink" x="0px" y="0px"
	 viewBox="0 0 504 504" style="enable-background:new 0 0 504 504;" xml:space="preserve">
<style type="text/css">
	.st0{fill:#FFFFFF;}
	.st1{fill:#D5011D;}
	.st2{fill:#FF0021;}
</style>
<circle class="st0" cx="252" cy="252" r="252"/>
<g>
	<path class="st1" d="M356.1,63h-85.6v378h85.6c46.8,0,84.9-38.1,84.9-84.9V147.9C441,101.1,402.9,63,356.1,63z M355.8,308.1
		c-24.6,0-44.7-20-44.7-44.7s20-44.7,44.7-44.7s44.7,20,44.7,44.7C400.4,288.1,380.4,308.1,355.8,308.1z"/>
	<g>
		<path class="st2" d="M248.3,441H147.9c-46.8,0-84.9-38.1-84.9-84.9V147.9c0-46.8,38.1-84.9,84.9-84.9h100.4L248.3,441L248.3,441z
			 M147.9,85.1c-34.7,0-62.7,28.2-62.7,62.7V356c0,34.6,28.2,62.7,62.7,62.7h78.3V85.1H147.9z"/>
		<path class="st2" d="M155.7,218.8c-24.6,0-44.7-20-44.7-44.7s20-44.7,44.7-44.7s44.7,20,44.7,44.7S180.3,218.8,155.7,218.8z"/>
	</g>
</g>
</svg>
