<svg id="Layer_3" enable-background="new 0 0 64 64" height="512" viewBox="0 0 64 64" width="512" xmlns="http://www.w3.org/2000/svg"><path d="m36 62c0-3.866 3.134-7 7-7s7 3.134 7 7h10v-60h-10c0 3.866-3.134 7-7 7s-7-3.134-7-7h-10v60z" fill="#f5b953"/><path d="m47.958 6.941c-1.268 1.272-3.021 2.059-4.958 2.059-3.866 0-7-3.134-7-7h-10v60h10c0-3.866 3.134-7 7-7 .503 0 .993.055 1.465.156 3.495-8.489 5.535-18.685 5.535-29.656 0-6.526-.723-12.777-2.042-18.559z" fill="#f9d18b"/><circle cx="43" cy="34" fill="#c66b60" r="12"/><path d="m43 22c-6.627 0-12 5.373-12 12 0 2.06.521 3.999 1.435 5.693 2.076 2.043 4.922 3.307 8.065 3.307 6.351 0 11.5-5.149 11.5-11.5 0-3.143-1.264-5.989-3.307-8.065-1.695-.915-3.633-1.435-5.693-1.435z" fill="#e47c6e"/><g fill="#8892a0"><path d="m51 45h2v10h-2z"/><path d="m55 45h2v10h-2z"/><path d="m55 17h5v2h-5z"/><path d="m41 17h4v2h-4z"/><path d="m48 17h4v2h-4z"/></g><path d="m54 30h.303c-.243-.686-.542-1.343-.9-1.965l-5.076.317c-1.824.114-3.611.466-5.327 1.018v-.23c0-1.005.5-1.938 1.336-2.496l4.154-2.773.481-.271c-.692-.398-1.426-.731-2.197-.986l-3.548 2.365c-1.393.931-2.226 2.486-2.226 4.162v.736c0 .079.016.154.02.232-1.214.524-2.378 1.157-3.48 1.887-.576-1.435-.991-2.944-1.2-4.509l-.34-2.553v-.667c-.686.494-1.315 1.059-1.882 1.685l.24 1.8c.254 1.905.776 3.739 1.519 5.465-1.619 1.304-3.054 2.844-4.256 4.576.251.753.575 1.472.963 2.151l.248-.389.226-.339c1.045-1.568 2.306-2.962 3.725-4.159 2.465 4.47 6.521 7.996 11.455 9.727.802-.39 1.556-.861 2.245-1.412l-1.169-.321-.148-.049c-4.683-1.562-8.519-4.911-10.778-9.162.991-.68 2.041-1.271 3.137-1.764.637 1.291 1.816 2.29 3.325 2.667 2.836.709 5.212 2.615 6.519 5.229l.699 1.398.107.355c.506-.6.955-1.248 1.336-1.94l-.354-.708c-1.568-3.137-4.42-5.424-7.885-6.291-.822-.205-1.49-.739-1.884-1.438 1.627-.545 3.326-.892 5.064-1z" fill="#bf5763"/><path d="m14 62c0-3.866 3.134-7 7-7s7 3.134 7 7h10v-60h-10c0 3.866-3.134 7-7 7s-7-3.134-7-7h-10v60z" fill="#f5b953"/><path d="m4 51.57c1.301.278 2.636.43 4 .43 13.255 0 24-13.655 24-30.5 0-6.484-1.597-12.49-4.311-17.432-.882 2.856-3.543 4.932-6.689 4.932-3.866 0-7-3.134-7-7h-10z" fill="#f9d18b"/><circle cx="21" cy="34" fill="#c66b60" r="12"/><path d="m21 22c-6.627 0-12 5.373-12 12 0 2.06.521 3.999 1.435 5.693 2.076 2.043 4.922 3.307 8.065 3.307 6.351 0 11.5-5.149 11.5-11.5 0-3.143-1.264-5.989-3.307-8.065-1.695-.915-3.633-1.435-5.693-1.435z" fill="#e47c6e"/><path d="m32 30h.303c-.243-.686-.542-1.343-.9-1.965l-5.076.317c-1.824.114-3.611.466-5.327 1.018v-.23c0-1.005.5-1.938 1.336-2.496l4.154-2.773.481-.271c-.692-.398-1.426-.731-2.197-.986l-3.548 2.365c-1.393.931-2.226 2.486-2.226 4.162v.736c0 .079.016.154.02.232-1.214.524-2.378 1.157-3.48 1.887-.576-1.435-.991-2.944-1.2-4.509l-.34-2.553v-.667c-.686.494-1.315 1.059-1.882 1.685l.24 1.8c.254 1.905.776 3.739 1.519 5.465-1.619 1.304-3.054 2.844-4.256 4.576.251.753.575 1.472.963 2.151l.248-.389.226-.339c1.045-1.568 2.306-2.962 3.725-4.159 2.465 4.47 6.521 7.996 11.455 9.727.802-.39 1.556-.861 2.245-1.412l-1.169-.321-.148-.049c-4.683-1.562-8.519-4.911-10.778-9.162.991-.68 2.041-1.271 3.137-1.764.637 1.291 1.816 2.29 3.325 2.667 2.836.709 5.212 2.615 6.519 5.229l.699 1.398.107.355c.506-.6.955-1.248 1.336-1.94l-.354-.708c-1.568-3.137-4.42-5.424-7.885-6.291-.822-.205-1.49-.739-1.884-1.438 1.627-.545 3.326-.892 5.064-1z" fill="#bf5763"/><path d="m4 17h5v2h-5z" fill="#8892a0"/><path d="m19 17h4v2h-4z" fill="#8892a0"/><path d="m12 17h4v2h-4z" fill="#8892a0"/><path d="m7 45h2v10h-2z" fill="#8892a0"/><path d="m11 45h2v10h-2z" fill="#8892a0"/><path d="m29 45h2v10h-2z"/><path d="m33 45h2v10h-2z"/><path d="m26 17h5v2h-5z" fill="#8892a0"/><path d="m29 45h2v10h-2z" fill="#8892a0"/><path d="m33 45h2v10h-2z" fill="#8892a0"/></svg>