<?xml version="1.0" encoding="utf-8"?>
<!-- Generator: Adobe Illustrator 22.1.0, SVG Export Plug-In . SVG Version: 6.00 Build 0)  -->
<svg version="1.1" id="Bold" xmlns="http://www.w3.org/2000/svg" xmlns:xlink="http://www.w3.org/1999/xlink" x="0px" y="0px"
	 viewBox="0 0 504 504" style="enable-background:new 0 0 504 504;" xml:space="preserve">
<style type="text/css">
	.st0{fill:#FFFFFF;}
</style>
<circle class="st0" cx="252" cy="252" r="252"/>
<path d="M349.4,54c-55.3,0-100.3,52.1-100.8,116.3l-62.7,104.8c-17.5-1.9-32.6,2.4-46,11.9L54,246.5v110.6l50.8,23.8
	c7.3,39.4,37.6,69.1,73.4,69.1c38.9,0,71.1-34.8,74.7-79.2l96.6-82.3c55.4,0,100.5-52.4,100.5-117.3l0,0
	C450,106.6,404.9,54,349.4,54L349.4,54z M129.4,392.5c9,4,18.1,8.4,27.1,12.6c22.6,10.8,48.2-2.1,57.2-28.4
	c9.1-26.3-1.9-56-24.5-66.5l-23-10.8c34.2-8.9,67.2,21.1,67.2,62.9C233.4,398,156.3,451.3,129.4,392.5z M349.5,249.8
	c-37.3,0-67.6-35.1-67.6-78.6c0-43.3,30.2-78.6,67.6-78.6c37,0,67.4,35.3,67.4,78.6C416.9,214.9,386.5,249.9,349.5,249.8z"/>
<path d="M349.7,108.2c-29.8,0-53.9,28.1-53.9,62.9s24,62.9,53.9,62.9c29.6,0,53.9-28,53.9-62.9S379.3,108.2,349.7,108.2L349.7,108.2
	z"/>
</svg>
