<?xml version="1.0" encoding="utf-8"?>
<!-- Generator: Adobe Illustrator 22.1.0, SVG Export Plug-In . SVG Version: 6.00 Build 0)  -->
<svg version="1.1" id="Layer_1" xmlns="http://www.w3.org/2000/svg" xmlns:xlink="http://www.w3.org/1999/xlink" x="0px" y="0px"
	 viewBox="0 0 504 504" style="enable-background:new 0 0 504 504;" xml:space="preserve">
<style type="text/css">
	.st0{fill:#FFFFFF;}
	.st1{fill:#384949;}
	.st2{fill:#293939;}
	.st3{fill:#ECECF1;}
	.st4{fill:#E2E2E7;}
	.st5{fill:#00DDC1;}
	.st6{fill:#00CCB2;}
	.st7{fill:#FF3939;}
	.st8{fill:#00AA95;}
	.st9{fill:#FF001E;}
	.st10{fill:#4A696F;}
</style>
<circle class="st0" cx="252" cy="252" r="252"/>
<g>
	<path class="st1" d="M432,188.1v212.3c0,17.5-14.1,31.6-31.6,31.6H103.7c-17.5,0-31.6-14.1-31.6-31.6V188.1
		c0-17.5,14.1-31.6,31.6-31.6h296.7C417.9,156.4,432,170.5,432,188.1z"/>
	<path class="st2" d="M432,293.5v106.9c0,17.5-14.1,31.6-31.6,31.6H103.7c-17.5,0-31.6-14.1-31.6-31.6V293.5H432z"/>
	<path class="st3" d="M347.6,209.1v170.1c0,5.9-4.6,10.5-10.5,10.5H124.8c-5.9,0-10.5-4.6-10.5-10.5V209.1c0-5.9,4.6-10.5,10.5-10.5
		h212.3C343,198.6,347.6,203.2,347.6,209.1z"/>
	<path class="st4" d="M347.6,293.5v85.8c0,5.9-4.6,10.5-10.5,10.5H124.8c-5.9,0-10.5-4.6-10.5-10.5v-85.8H347.6z"/>
	<path class="st5" d="M379.3,261.9c-5.8,0-10.5-4.7-10.5-10.5v-42.2c0-5.8,4.7-10.5,10.5-10.5c5.8,0,10.5,4.7,10.5,10.5v42.2
		C389.8,257.2,385.1,261.9,379.3,261.9z"/>
	<path class="st6" d="M379.3,389.8c-5.8,0-10.5-4.7-10.5-10.5v-43.6c0-5.8,4.7-10.5,10.5-10.5c5.8,0,10.5,4.7,10.5,10.5v43.6
		C389.8,385.1,385.1,389.8,379.3,389.8z"/>
	<path class="st7" d="M389.8,293.5c0,5.9-4.6,10.5-10.5,10.5c-5.9,0-10.5-4.6-10.5-10.5c0-5.9,4.6-10.5,10.5-10.5
		C385.2,283,389.8,287.6,389.8,293.5z"/>
	<path class="st5" d="M148.4,103.7l-6.1,36.1l-2.1,0.4l-36.5,8.2L81.3,126c-12.4-12.2-12.4-32.5,0-44.7c12.2-12.4,32.5-12.4,44.7,0
		L148.4,103.7z"/>
	<path class="st8" d="M140.2,140.2l-36.5,8.2L81.3,126c-12.4-12.2-12.4-32.5,0-44.7L140.2,140.2z"/>
	<path class="st9" d="M389.8,293.5c0,5.9-4.6,10.5-10.5,10.5c-5.9,0-10.5-4.6-10.5-10.5H389.8z"/>
	<path class="st10" d="M290.1,290.1c-3.2,3.2-8.2,4-12.2,1.9l-59.7-29.7c-0.8-0.6-1.9-1.3-2.7-2.1L103.7,148.4l44.7-44.7
		l111.8,111.8c0.8,0.8,1.5,1.9,2.1,2.7l29.7,59.7C294.1,281.9,293.3,287,290.1,290.1z"/>
	<path class="st1" d="M290.1,290.1c-3.2,3.2-8.2,4-12.2,1.9l-59.7-29.7c-0.8-0.6-1.9-1.3-2.7-2.1L103.7,148.4L126,126L290.1,290.1z"
		/>
</g>
</svg>
