<svg height="512pt" viewBox="1 1 511.99975 511.99975" width="512pt" xmlns="http://www.w3.org/2000/svg"><path d="m512 165.050781v301.957031c0 24.894532-20.097656 44.992188-44.992188 44.992188h-421.9375c-24.898437 0-44.9960932-20.097656-44.9960932-44.992188v-301.957031c0-24.898437 20.0976562-44.992187 44.9960932-44.992187h421.9375c24.894532 0 44.992188 20.09375 44.992188 44.992187zm0 0" fill="#384949"/><path d="m512 315.027344v151.980468c0 24.894532-20.097656 44.992188-44.992188 44.992188h-421.9375c-24.898437 0-44.9960932-20.097656-44.9960932-44.992188v-151.980468zm0 0" fill="#293939"/><path d="m392.015625 195.046875v241.964844c0 8.398437-6.597656 14.996093-14.996094 14.996093h-301.953125c-8.402344 0-15-6.597656-15-14.996093v-241.964844c0-8.398437 6.597656-14.996094 15-14.996094h301.953125c8.398438 0 14.996094 6.597657 14.996094 14.996094zm0 0" fill="#ececf1"/><path d="m392.015625 315.027344v121.984375c0 8.398437-6.597656 14.996093-14.996094 14.996093h-301.953125c-8.402344 0-15-6.597656-15-14.996093v-121.984375zm0 0" fill="#e2e2e7"/><path d="m437.011719 270.035156c-8.289063 0-15-6.707031-15-14.996094v-59.992187c0-8.289063 6.710937-14.996094 15-14.996094 8.289062 0 14.996093 6.707031 14.996093 14.996094v59.992187c0 8.289063-6.707031 14.996094-14.996093 14.996094zm0 0" fill="#00ddc1"/><path d="m437.011719 452.007812c-8.289063 0-15-6.707031-15-14.996093v-61.992188c0-8.289062 6.710937-14.996093 15-14.996093 8.289062 0 14.996093 6.707031 14.996093 14.996093v61.992188c0 8.289062-6.707031 14.996093-14.996093 14.996093zm0 0" fill="#00ccb2"/><path d="m452.007812 315.027344c0 8.398437-6.597656 15-14.996093 15-8.402344 0-15-6.601563-15-15 0-8.398438 6.597656-14.996094 15-14.996094 8.398437 0 14.996093 6.597656 14.996093 14.996094zm0 0" fill="#ff3939"/><path d="m108.660156 45.070312-8.699218 51.289063-3 .601563-51.890626 11.699218-31.796874-31.796875c-17.699219-17.398437-17.699219-46.191406 0-63.589843 17.398437-17.699219 46.191406-17.699219 63.589843 0zm0 0" fill="#00ddc1"/><path d="m96.960938 96.960938-51.890626 11.699218-31.796874-31.796875c-17.699219-17.398437-17.699219-46.195312 0-63.589843zm0 0" fill="#00aa95"/><path d="m452.007812 315.027344c0 8.398437-6.597656 15-14.996093 15-8.402344 0-15-6.601563-15-15zm0 0" fill="#ff001e"/><path d="m310.230469 310.230469c-4.5 4.5-11.699219 5.699219-17.398438 2.699219l-84.890625-42.296876c-1.199218-.898437-2.695312-1.796874-3.898437-2.996093l-158.976563-158.976563 63.589844-63.589844 158.976562 158.976563c1.203126 1.199219 2.101563 2.699219 3 3.898437l42.292969 84.886719c3.003907 5.699219 1.800781 12.898438-2.695312 17.398438zm0 0" fill="#4a696f"/><path d="m310.230469 310.230469c-4.5 4.5-11.699219 5.699219-17.398438 2.699219l-84.890625-42.296876c-1.199218-.898437-2.695312-1.796874-3.898437-2.996093l-158.976563-158.976563 31.796875-31.796875zm0 0" fill="#384949"/></svg>