<?xml version="1.0" encoding="iso-8859-1"?>
<!-- Generator: Adobe Illustrator 19.0.0, SVG Export Plug-In . SVG Version: 6.00 Build 0)  -->
<svg version="1.1" id="Capa_1" xmlns="http://www.w3.org/2000/svg" xmlns:xlink="http://www.w3.org/1999/xlink" x="0px" y="0px"
	 viewBox="0 0 512 512" style="enable-background:new 0 0 512 512;" xml:space="preserve">
<path style="fill:#F0EFEB;" d="M512,256c0,5.016-0.146,10-0.428,14.942c-0.334,5.799-0.857,11.536-1.578,17.22
	c-8.328,66.456-42.12,124.98-91.314,165.501C374.45,490.12,317.785,512,256,512C126.652,512,19.707,416.068,2.445,291.464
	C0.825,279.876,0,268.037,0,256c0-9.853,0.554-19.581,1.64-29.142c0.01-0.01,0-0.021,0-0.021C16.123,99.182,124.479,0,256,0
	c61.785,0,118.45,21.88,162.68,58.337c49.173,40.5,82.954,99.004,91.303,165.418c0.721,5.674,1.243,11.41,1.588,17.209
	C511.854,245.938,512,250.953,512,256z"/>
<path style="fill:#017BC9;" d="M81.283,218.979c-3.082,11.515-6.113,23.05-9.164,34.576c-3.459,13.113-6.938,26.237-10.365,39.372
	c-0.282,1.045-0.752,1.442-1.818,1.62c-2.873,0.46-5.747,0.742-8.62,0.136c-4.702-1.003-7.513-4.075-8.85-8.516
	c-1.515-5.005-2.372-10.177-3.49-15.287c-2.069-9.404-4.253-18.787-5.747-28.317c-0.324-2.006-0.564-4.023-1.087-6.06
	c-0.376,2.09-0.721,4.18-1.128,6.269c-2.142,10.982-5.11,21.776-7.711,32.663c-1.4,5.841-2.884,11.661-4.274,17.502
	c-0.23,0.982-0.616,1.452-1.682,1.578c-2.048,0.251-4.086,0.533-6.165,0.512c-3.699-0.031-6.614-1.212-8.735-3.563
	C0.825,279.876,0,268.037,0,256c0-9.853,0.554-19.581,1.64-29.142c3.166,16.29,6.489,32.538,9.153,48.922
	c0.063,0.397,0.167,0.794,0.439,1.202c0.522-2.79,1.003-5.59,1.578-8.37c3.135-14.952,6.74-29.79,10.198-44.669
	c0.397-1.745,0.867-3.469,1.212-5.224c0.157-0.815,0.428-1.139,1.327-1.139c4.963,0.052,9.927,0.052,14.89,0.01
	c0.878-0.01,1.139,0.303,1.317,1.128c2.988,14.315,6.207,28.588,8.986,42.956c0.951,4.953,1.808,9.927,2.738,14.942
	c0.345-2.006,0.679-4.012,1.045-6.019c2.842-15.851,6.322-31.577,9.561-47.344c0.313-1.526,0.7-3.041,0.94-4.577
	c0.136-0.899,0.522-1.097,1.358-1.087c4.598,0.031,9.195,0.063,13.793-0.01C81.398,217.558,81.596,217.819,81.283,218.979z"/>
<path style="fill:#FEC301;" d="M468.955,322.048c-1.113-0.37-2.262-0.657-3.333-1.124c-3.184-1.389-4.25-3.428-3.93-6.872
	c0.717-7.725,2.577-29.5,2.875-32.653c0.107-1.123,0.748-1.94,1.65-2.584c2.3-1.643,6.113-1.706,8.477-0.142
	c1.146,0.758,1.803,1.786,1.922,3.172c0.662,7.73,1.336,15.459,2.007,23.189c0.282,3.248,0.493,6.503,0.877,9.738
	c0.301,2.542-0.871,4.196-2.818,5.537c-1.422,0.979-3.118,1.191-4.694,1.74C470.977,322.048,469.967,322.048,468.955,322.048z"/>
<g>
	<path style="fill:#017BC9;" d="M212.693,245.787c1.333-1.788,2.593-3.424,4.148-4.794c5.944-5.237,12.803-6.845,20.379-4.714
		c6.461,1.818,10.033,6.6,12.013,12.758c1.165,3.623,1.544,7.367,1.558,11.142c0.039,10.935,0,21.87,0.044,32.805
		c0.004,1.075-0.33,1.287-1.327,1.275c-4.365-0.052-8.73-0.059-13.094,0.003c-1.039,0.015-1.288-0.265-1.284-1.292
		c0.041-9.97,0.022-19.94,0.026-29.91c0.001-2.442-0.188-4.86-0.81-7.232c-1.255-4.79-4.199-7.353-8.504-7.4
		c-4.536-0.049-8.407,2.888-9.654,7.361c-0.446,1.601-0.572,3.249-0.572,4.91c0.005,10.705-0.016,21.411,0.029,32.116
		c0.004,1.121-0.235,1.471-1.412,1.45c-4.318-0.076-8.638-0.066-12.956-0.005c-1.037,0.015-1.306-0.265-1.302-1.299
		c0.039-10.291,0.025-20.583,0.022-30.876c-0.001-2.673-0.171-5.318-1.153-7.853c-2.36-6.102-9.442-7.799-14.267-3.372
		c-2.632,2.415-4.02,5.433-4.025,9.031c-0.015,10.935-0.037,21.87,0.015,32.805c0.006,1.285-0.352,1.589-1.591,1.567
		c-4.272-0.076-8.545-0.059-12.818-0.007c-0.978,0.011-1.324-0.164-1.321-1.253c0.039-18.378,0.034-36.756,0.006-55.134
		c-0.001-0.964,0.259-1.237,1.224-1.226c4.181,0.051,8.362,0.047,12.543,0.002c0.92-0.009,1.169,0.277,1.143,1.174
		c-0.063,2.157-0.02,4.315,0.094,6.639c3.938-6.216,9.591-9.116,16.827-9.035C204.106,235.508,209.454,238.83,212.693,245.787z"/>
	<path style="fill:#017BC9;" d="M307.785,293.324c-0.387-2.497-0.648-5.015-0.658-7.544c-0.052-8.265-0.063-16.541-0.115-24.806
		c-0.01-2.299-0.125-4.587-0.428-6.875c-1.306-9.916-7.387-16.332-17.241-18.108c-5.684-1.014-11.337-0.679-16.969,0.449
		c-3.657,0.742-7.178,1.902-10.48,3.668c-0.366,0.188-0.888,0.24-0.669,0.951c0.993,3.281,1.933,6.572,2.915,9.927
		c0.449-0.24,0.763-0.428,1.087-0.596c5.454-2.832,11.212-4.242,17.387-3.605c5.099,0.512,8.255,3.73,8.328,8.401
		c0.01,0.92-0.272,1.181-1.17,1.181c-3.678-0.042-7.346,0.251-10.961,0.899c-5.58,1.014-10.867,2.696-15.329,6.384
		c-9.226,7.638-8.568,22.622,1.264,28.985c6.614,4.274,16.927,3.814,23.677-1.055c1.641-1.181,2.999-2.623,4.315-4.2
		c0.742,1.055,1.411,2.1,2.173,3.062c3.124,3.971,7.199,5.13,12.037,4.065C307.67,294.348,307.911,294.139,307.785,293.324z
		 M291.453,267.703c-0.084,1.191-0.021,2.393-0.021,3.584h-0.084c0,1.421,0.167,2.863-0.031,4.263
		c-0.888,6.311-8.704,10.512-14.514,7.858c-4.848-2.215-5.423-9.697-1.014-13.239c2.487-2.006,5.465-2.727,8.516-3.218
		c1.954-0.313,3.929-0.345,5.904-0.418C291.129,266.491,291.537,266.689,291.453,267.703z"/>
	<path style="fill:#017BC9;" d="M128.815,293.313c-0.272-2.236-0.512-4.472-0.606-6.719c-0.345-8.579-0.136-17.178-0.188-25.757
		c-0.021-2.759-0.094-5.517-0.658-8.223c-1.797-8.714-6.855-14.294-15.621-16.363c-3.709-0.867-7.471-0.961-11.233-0.742
		c-6.008,0.345-11.776,1.714-17.22,4.357c-1.024,0.502-1.128,1.014-0.815,1.985c0.836,2.623,1.63,5.256,2.33,7.92
		c0.272,1.024,0.481,1.181,1.494,0.637c5.423-2.884,11.191-4.263,17.366-3.626c5.089,0.522,8.265,3.762,8.328,8.401
		c0.01,0.92-0.272,1.181-1.17,1.181c-3.678-0.031-7.335,0.251-10.961,0.899c-5.517,0.993-10.773,2.664-15.214,6.29
		c-10.47,8.547-8.265,25.809,4.054,30.542c7.492,2.873,14.712,1.755,21.285-2.915c1.463-1.034,2.612-2.393,3.793-3.814
		c0.721,1.024,1.358,2.027,2.09,2.968c3.124,4.033,7.22,5.245,12.121,4.169C128.731,294.348,128.919,294.097,128.815,293.313z
		 M112.494,271.172c-0.01,0.878-0.031,1.745,0,2.623c0.23,6.823-6.886,11.672-13.364,10.041c-2.759-0.7-4.504-2.487-5.026-5.256
		c-0.596-3.208-0.021-6.154,2.654-8.349c2.424-1.996,5.35-2.738,8.359-3.25c2.132-0.355,4.284-0.408,6.447-0.449
		c0.721-0.021,0.972,0.199,0.94,0.92C112.452,268.695,112.494,269.928,112.494,271.172z"/>
	<path style="fill:#017BC9;" d="M357.554,247.965c0-9.649,0.02-19.297-0.026-28.946c-0.005-1.136,0.279-1.461,1.434-1.441
		c4.18,0.073,8.362,0.076,12.542-0.001c1.202-0.022,1.427,0.389,1.416,1.486c-0.053,5.145,0.008,10.292-0.05,15.437
		c-0.013,1.057,0.299,1.296,1.309,1.279c3.675-0.061,7.352,0.02,11.026-0.051c1.07-0.021,1.289,0.317,1.275,1.318
		c-0.056,4.043-0.052,8.086-0.002,12.129c0.011,0.953-0.238,1.253-1.217,1.237c-3.721-0.056-7.443-0.005-11.165-0.037
		c-0.816-0.007-1.231,0.106-1.221,1.096c0.07,7.672,0.074,15.344,0.121,23.017c0.008,1.433,0.317,2.824,0.839,4.162
		c0.915,2.346,2.678,3.545,5.15,3.705c1.978,0.128,3.957,0.041,5.887-0.433c0.818-0.201,1.05-0.027,1.051,0.805
		c0.007,3.446,0.052,6.891,0.118,10.337c0.011,0.606-0.17,0.947-0.76,1.092c-5.17,1.275-10.38,2.052-15.657,0.759
		c-6.909-1.694-10.392-6.433-11.503-13.216c-0.447-2.729-0.576-5.474-0.572-8.235C357.561,264.964,357.554,256.464,357.554,247.965z
		"/>
	<path style="fill:#017BC9;" d="M153.959,256.028c0,12.264-0.016,24.528,0.026,36.791c0.004,1.141-0.275,1.465-1.435,1.446
		c-4.316-0.072-8.635-0.059-12.952-0.006c-0.967,0.011-1.217-0.254-1.216-1.219c0.027-24.757,0.025-49.515,0.004-74.271
		c-0.001-0.866,0.177-1.194,1.122-1.184c4.362,0.049,8.727,0.057,13.089-0.003c1.088-0.015,1.386,0.294,1.382,1.38
		C153.947,231.317,153.959,243.672,153.959,256.028z"/>
	<path style="fill:#017BC9;" d="M331.652,247.51c0.559-0.252,0.55-0.825,0.739-1.256c2.487-5.665,6.565-9.428,12.749-10.643
		c1.631-0.321,3.291-0.213,4.942-0.064c0.777,0.071,1.057,0.414,1.049,1.243c-0.046,4.27-0.041,8.542-0.005,12.813
		c0.007,0.891-0.193,1.235-1.162,1.076c-2.232-0.368-4.48-0.423-6.71,0.052c-5.467,1.166-9.195,5.443-9.658,11.108
		c-0.116,1.417-0.18,2.842-0.182,4.264c-0.016,8.956-0.026,17.911,0.017,26.866c0.005,1.037-0.272,1.305-1.299,1.293
		c-4.546-0.057-9.093-0.048-13.639-0.004c-0.901,0.008-1.157-0.241-1.156-1.149c0.025-18.416,0.027-36.833-0.002-55.249
		c-0.002-0.992,0.308-1.224,1.249-1.212c3.903,0.048,7.807,0.046,11.71,0.001c0.903-0.01,1.179,0.25,1.16,1.163
		c-0.057,2.8-0.03,5.603-0.01,8.404C331.445,246.639,331.248,247.123,331.652,247.51z"/>
</g>
<g>
	<path style="fill:#FEC301;" d="M470.382,189.954c2.619-0.027,4.911,0.537,6.885,2.04c1.631,1.241,2.447,2.826,2.247,5.001
		c-1.002,10.877-1.947,21.76-2.853,32.645c-0.164,1.97-1.07,3.277-2.823,4.032c-2.32,0.999-4.648,0.976-6.912-0.168
		c-1.495-0.755-2.281-1.93-2.43-3.697c-0.921-10.885-1.898-21.764-2.915-32.639c-0.223-2.383,0.711-4.106,2.582-5.399
		C466.073,190.449,468.233,189.913,470.382,189.954z"/>
	<path style="fill:#FEC301;" d="M452.968,241.669c-0.238,2.547-1.425,4.828-3.886,6.326c-1.285,0.782-2.599,0.887-4.051,0.205
		c-10.044-4.719-20.109-9.394-30.178-14.06c-2.33-1.08-3.162-3.079-3.089-5.39c0.143-4.555,2.236-8.088,6.244-10.328
		c1.865-1.043,3.831-1.206,5.721,0.121c9.168,6.436,18.339,12.867,27.516,19.289C452.501,238.709,452.951,239.935,452.968,241.669z"
		/>
	<path style="fill:#FEC301;" d="M511.572,240.964c-5.141,2.382-10.271,4.786-15.402,7.199c-1.546,0.731-2.926,0.606-4.294-0.261
		c-1.964-1.243-3.177-3.051-3.594-5.319c-0.387-2.152,0.178-3.835,2.163-5.193c6.541-4.504,13.051-9.059,19.54-13.636
		C510.704,229.428,511.227,235.165,511.572,240.964z"/>
	<path style="fill:#FEC301;" d="M420.959,294.219c-1.104,0.028-2.055-0.298-2.966-0.749c-4.005-1.985-6.753-7.172-6.118-11.583
		c0.281-1.949,1.27-3.368,3.114-4.22c9.987-4.617,19.962-9.265,29.936-13.91c0.588-0.274,1.172-0.523,1.836-0.509
		c2.388,0.053,3.912,1.48,5.023,3.361c1.158,1.96,1.736,4.064,0.598,6.279c-0.279,0.543-0.75,0.909-1.248,1.256
		c-9.063,6.343-18.124,12.688-27.178,19.043C423.028,293.84,422.056,294.299,420.959,294.219z"/>
	<path style="fill:#FEC301;" d="M511.572,270.942c-0.334,5.799-0.857,11.536-1.578,17.22c-6.583-4.65-13.197-9.268-19.811-13.866
		c-1.442-0.993-2.069-2.257-1.985-3.95c0.104-2.445,1.16-4.409,3.041-5.935c1.557-1.254,3.208-1.494,5.12-0.596
		C501.426,266.198,506.493,268.581,511.572,270.942z"/>
</g>
<g>
</g>
<g>
</g>
<g>
</g>
<g>
</g>
<g>
</g>
<g>
</g>
<g>
</g>
<g>
</g>
<g>
</g>
<g>
</g>
<g>
</g>
<g>
</g>
<g>
</g>
<g>
</g>
<g>
</g>
</svg>
