<?xml version="1.0" encoding="utf-8"?>
<!-- Generator: Adobe Illustrator 22.1.0, SVG Export Plug-In . SVG Version: 6.00 Build 0)  -->
<svg version="1.1" id="Layer_1" xmlns="http://www.w3.org/2000/svg" xmlns:xlink="http://www.w3.org/1999/xlink" x="0px" y="0px"
	 viewBox="0 0 504 504" style="enable-background:new 0 0 504 504;" xml:space="preserve">
<style type="text/css">
	.st0{fill:#FFFFFF;}
	.st1{fill:#37474F;}
	.st2{fill:#FFC107;}
</style>
<g id="Layer_2_1_">
	<circle class="st0" cx="252" cy="252" r="252"/>
</g>
<g id="Capa_1">
	<g>
		<path class="st1" d="M366.4,253.2c-7.2-12.4-12.4-26.1-15.4-40.4v-98.7c-0.8-45.6-35.3-81.9-77.2-81.1c-1.8,0-3.5,0.1-5.3,0.3
			c-53.2,0-85.5,25.6-98.7,78.4c-1.2,4.7,1.4,9.7,5.8,11c0.1,0,0.3,0.1,0.4,0.1c16.7,4,33.7,7,50.7,9.1c3.7,0.2,7.3-2.3,8.4-6.2
			c4.8-16.3,8.6-20.7,25.2-20.7c19.3,0,24,10.8,24.6,36.3c-91.1,5.5-131.9,33.2-131.9,89.3c0,40.5,39.9,71.8,74.3,71.8
			c23.7,2.2,47.2-5.9,65.2-22.8c8.9,9.1,19.3,16.6,30.5,22.1c1,0.4,2.2,0.8,3.3,0.8c2.2,0,4.3-1,5.8-2.6l33-35.9
			C367.7,261.1,368.3,256.7,366.4,253.2z M282.6,250.7c-7.8,9.6-18.8,15.3-30.6,16c-7.5,0-32.1-3.2-33-44.7
			c-0.1-8.6,3.1-16.7,8.7-22.7c18.7-15.6,41.9-23.7,65.6-22.4c4.4,0,8,3.7,8.3,8.6C303.9,209.1,297.1,232.8,282.6,250.7L282.6,250.7
			z"/>
		<path class="st2" d="M443.9,315.8c-2.3-0.7-57.1-16-82.2,11.3c-3.2,3.5-3.1,9.2,0.2,12.7c3.2,3.4,8.3,3.4,11.4,0
			c13.2-14.4,43.3-11.7,59.8-8.3c-1.4,19.9-6.9,51.3-19,56.3c-4.3,1.7-6.5,6.8-5,11.6c1.5,4.6,6.3,7,10.6,5.4c0.1,0,0.1-0.1,0.2-0.1
			c27.7-11.6,29.9-73.1,30-80.1C450.1,320.5,447.5,316.9,443.9,315.8z"/>
		<path class="st2" d="M417,360.4c0-9.9-7.4-17.9-16.5-17.9c-3.4,0-6.6,1.2-9.4,3.3C280,393.9,182.7,385.1,66.2,316.6
			c-4-2.4-9-0.9-11.2,3.4c-1.9,3.6-1.2,8.1,1.5,11c57.9,61.9,121.9,93,191.6,93c54.1-1.5,107.3-17.3,154.7-45.8
			C411.1,377,417,369.4,417,360.4z"/>
	</g>
</g>
</svg>
