<?xml version="1.0" encoding="utf-8"?>
<!-- Generator: Adobe Illustrator 22.1.0, SVG Export Plug-In . SVG Version: 6.00 Build 0)  -->
<svg version="1.1" id="Layer_1" xmlns="http://www.w3.org/2000/svg" xmlns:xlink="http://www.w3.org/1999/xlink" x="0px" y="0px"
	 viewBox="0 0 504 504" style="enable-background:new 0 0 504 504;" xml:space="preserve">
<style type="text/css">
	.st0{fill:#FFFFFF;}
	.st1{fill:#E5D2B8;}
	.st2{fill:#92563A;}
	.st3{fill:#693924;}
	.st4{fill:#FFB531;}
	.st5{fill:#FFBF57;}
	.st6{fill:#4DB7E5;}
	.st7{fill:#3B9DC7;}
</style>
<circle class="st0" cx="252" cy="252" r="252"/>
<g id="Flat">
	<path class="st1" d="M380,165l-13.6,88.2L332,477H172l-22.6-147L124,165H380z"/>
	<path class="st2" d="M380,165l-13.6,88.2c-0.8-0.1-1.6-0.2-2.4-0.2c-8.8,0-16,7.1-16,16c0,0,0,0,0,0v40c0,8.8-7.2,16-16,16
		s-16-7.2-16-16v-24c0-8.8-7.2-16-16-16s-16,7.2-16,16v72c0,8.8-7.2,16-16,16s-16-7.2-16-16v-56c0-8.8-7.2-16-16-16s-16,7.2-16,16
		v16c0,8.8-7.2,16-16,16s-16-7.2-16-16v-32c0-8.8-7.2-16-16-16s-16,7.2-16,16v32c0,5.1-2.5,10-6.6,13L124,165H380z"/>
	<g>
		<circle class="st3" cx="192" cy="457" r="20"/>
		<circle class="st3" cx="232" cy="457" r="20"/>
		<circle class="st3" cx="272" cy="457" r="20"/>
		<circle class="st3" cx="312" cy="457" r="20"/>
		<circle class="st3" cx="208" cy="417" r="20"/>
		<circle class="st3" cx="248" cy="417" r="20"/>
		<circle class="st3" cx="184" cy="377" r="20"/>
		<circle class="st3" cx="320" cy="393" r="20"/>
	</g>
	<ellipse class="st4" cx="252" cy="165" rx="128" ry="80"/>
	<path class="st5" d="M189.7,138.4l-7.2-14.3c5.2-2.6,10.6-4.8,16.1-6.7l5.1,15.2C199,134.2,194.3,136.1,189.7,138.4L189.7,138.4z"
		/>
	<path class="st5" d="M157.2,186.9c-6-7.1-9.2-14.7-9.2-21.9c0-11.2,7.4-22.7,20.7-32.5l9.4,12.9c-8.9,6.5-14.2,13.8-14.2,19.6
		c0,3.4,1.9,7.5,5.4,11.6L157.2,186.9z"/>
	<path class="st6" d="M228,37h48v128h-48V37z"/>
	<circle class="st7" cx="252" cy="37" r="24"/>
</g>
</svg>
