<?xml version="1.0" encoding="utf-8"?>
<!-- Generator: Adobe Illustrator 22.1.0, SVG Export Plug-In . SVG Version: 6.00 Build 0)  -->
<svg version="1.1" id="Capa_1" xmlns="http://www.w3.org/2000/svg" xmlns:xlink="http://www.w3.org/1999/xlink" x="0px" y="0px"
	 viewBox="0 0 504 504" style="enable-background:new 0 0 504 504;" xml:space="preserve">
<style type="text/css">
	.st0{fill:#FFFFFF;}
</style>
<circle class="st0" cx="252" cy="252" r="252"/>
<g>
	<g>
		<path d="M410.6,331.3h-11.8v-21.4h0.8c1.9,0,3.4-1.3,3.4-2.9v-29.8h7.6c1.5,0,2.8-0.8,3.2-2c0.5-1.2,0-2.5-1.1-3.2
			c-9.8-6.6-35.3-26.4-35.3-39.2v-12.4l23.6-9.6c0,0,0.1,0,0.1,0c0.1-0.1,0.2-0.1,0.4-0.2c0.1,0,0.1-0.1,0.2-0.1
			c0.1-0.1,0.2-0.2,0.3-0.2c0,0,0.1-0.1,0.1-0.1c0.3-0.3,0.5-0.6,0.6-0.9c0-0.1,0-0.1,0.1-0.2c0-0.1,0.1-0.2,0.1-0.3c0,0,0,0,0,0
			c0-0.1,0-0.2,0-0.3c0-0.1,0-0.2,0-0.2c0-0.1,0-0.2,0-0.3c0-0.1,0-0.2,0-0.3c0-0.1-0.1-0.1-0.1-0.2c0-0.1-0.1-0.2-0.1-0.3
			c0,0,0,0,0,0c0-0.1-0.1-0.1-0.1-0.2c-0.1-0.1-0.1-0.2-0.2-0.3c-0.1-0.1-0.1-0.1-0.2-0.2c-0.1-0.1-0.1-0.1-0.2-0.2
			c-0.1-0.1-0.2-0.1-0.3-0.2c-0.1-0.1-0.2-0.1-0.3-0.2c-0.1,0-0.2-0.1-0.3-0.1c-0.1,0-0.2-0.1-0.3-0.1c-0.1,0-0.2-0.1-0.4-0.1
			c-0.1,0-0.2,0-0.2-0.1l-25.5-3.9c-0.1,0-0.2,0-0.3,0c-0.1,0-0.2,0-0.3,0c0,0,0,0,0,0c-0.1,0-0.2,0-0.4,0c-0.1,0-0.2,0-0.3,0
			c-0.1,0-0.2,0.1-0.3,0.1c-0.1,0-0.2,0.1-0.3,0.1c-0.1,0-0.2,0.1-0.3,0.1c-0.1,0-0.2,0.1-0.3,0.1c-0.1,0.1-0.2,0.1-0.3,0.2
			c-0.1,0.1-0.1,0.1-0.2,0.2c-0.1,0.1-0.2,0.2-0.2,0.3c-0.1,0.1-0.1,0.1-0.2,0.2c-0.1,0.1-0.1,0.2-0.2,0.3c-0.1,0.1-0.1,0.2-0.1,0.2
			c0,0.1-0.1,0.2-0.1,0.2c0,0.1-0.1,0.2-0.1,0.3c0,0,0,0,0,0c0,0.1,0,0.2,0,0.3c0,0.1,0,0.2,0,0.3v28.5c0,10.2-16.1,24.8-27.6,33.7
			v-86.6h0.9c7.9,0,14.3-5.5,14.3-12.2c0-6.7-6.4-12.2-14.3-12.2h-0.7v-20.3h0.5c1.9,0,3.4-1.3,3.4-2.9v-27.4h6.9
			c1.5,0,2.7-0.8,3.2-2c0.5-1.2,0-2.5-1.1-3.2c-9.1-6.1-32.7-24.4-32.7-36.3V52l21.8-8.8c0,0,0.1,0,0.1,0c0.1-0.1,0.2-0.1,0.4-0.2
			c0.1,0,0.1-0.1,0.2-0.1c0.1-0.1,0.2-0.2,0.3-0.2c0,0,0.1-0.1,0.1-0.1c0.3-0.3,0.5-0.6,0.6-0.9c0-0.1,0-0.1,0.1-0.2
			c0-0.1,0.1-0.2,0.1-0.3c0,0,0,0,0,0c0-0.1,0-0.2,0-0.3c0-0.1,0-0.1,0-0.2c0-0.1,0-0.2,0-0.3c0-0.1,0-0.2,0-0.3
			c0-0.1-0.1-0.1-0.1-0.2c0-0.1-0.1-0.2-0.1-0.3c0,0,0,0,0,0c0-0.1-0.1-0.1-0.1-0.2c-0.1-0.1-0.1-0.2-0.2-0.3
			c-0.1-0.1-0.1-0.1-0.2-0.2c-0.1-0.1-0.1-0.1-0.2-0.2c-0.1-0.1-0.2-0.1-0.3-0.2c-0.1-0.1-0.2-0.1-0.3-0.2c-0.1-0.1-0.2-0.1-0.3-0.1
			c-0.1,0-0.2-0.1-0.3-0.1c-0.1,0-0.3-0.1-0.4-0.1c-0.1,0-0.1,0-0.2-0.1L320.5,34c-0.1,0-0.2,0-0.3,0c-0.1,0-0.2,0-0.3,0
			c0,0,0,0,0,0c-0.1,0-0.3,0-0.4,0c-0.1,0-0.2,0-0.3,0c-0.1,0-0.2,0.1-0.3,0.1c-0.1,0-0.2,0.1-0.3,0.1c-0.1,0-0.1,0.1-0.2,0.1
			c-0.1,0.1-0.2,0.1-0.3,0.2c-0.1,0-0.1,0.1-0.2,0.1c-0.1,0.1-0.2,0.1-0.3,0.2c-0.1,0.1-0.1,0.1-0.2,0.2c-0.1,0.1-0.1,0.1-0.2,0.2
			c-0.1,0.1-0.1,0.2-0.1,0.2c-0.1,0.1-0.1,0.2-0.2,0.3c0,0.1-0.1,0.2-0.1,0.2c0,0.1-0.1,0.2-0.1,0.3c0,0,0,0,0,0c0,0.1,0,0.2,0,0.3
			c0,0.1,0,0.2,0,0.3v26.5c0,11.9-23.6,30.2-32.7,36.3c-1.1,0.8-1.6,2.1-1.1,3.2c0.5,1.2,1.8,2,3.2,2h6.8v27.4
			c0,1.6,1.5,2.9,3.4,2.9h0.5v20.3h-0.7c-7.9,0-14.3,5.5-14.3,12.2c0,6.4,5.8,11.7,13.2,12.2v53.5l-25.4-20.4v-33.1h7.8
			c1.4,0,2.6-0.7,3.1-1.7c0.5-1.1,0.3-2.3-0.6-3.1c-0.2-0.2-23-21.2-23-35.2v-11.1l16.3-8.4c0,0,0.1,0,0.1-0.1
			c0.1-0.1,0.2-0.2,0.4-0.2c0,0,0.1-0.1,0.1-0.1c0.1-0.1,0.3-0.2,0.4-0.4c0,0,0,0,0-0.1c0.1-0.1,0.2-0.3,0.3-0.4
			c0-0.1,0.1-0.1,0.1-0.2c0-0.1,0.1-0.1,0.1-0.2c0,0,0-0.1,0-0.1c0-0.1,0.1-0.2,0.1-0.3c0-0.1,0-0.2,0-0.3c0-0.1,0-0.2,0-0.3
			c0-0.1,0-0.2,0-0.3c0-0.1,0-0.2-0.1-0.3c0-0.1,0-0.2-0.1-0.3c0-0.1-0.1-0.2-0.1-0.2c-0.1-0.1-0.1-0.2-0.2-0.3c0,0,0-0.1,0-0.1
			c0,0-0.1-0.1-0.1-0.1c-0.1-0.1-0.1-0.2-0.2-0.2c-0.1-0.1-0.1-0.1-0.2-0.2c-0.1-0.1-0.2-0.1-0.3-0.2c-0.1-0.1-0.2-0.1-0.3-0.2
			c-0.1,0-0.2-0.1-0.3-0.1c-0.1,0-0.2-0.1-0.3-0.1c-0.1,0-0.1-0.1-0.2-0.1l-17.9-4.7c-1.8-0.5-3.7,0.4-4.3,1.9
			c-0.2,0.5-0.2,1-0.1,1.5c-0.1,0.2-0.1,0.4-0.1,0.6v25.5c0,11.6-17.8,29.3-24.6,35.1c-1,0.8-1.3,2.1-0.7,3.2
			c0.5,1.1,1.8,1.8,3.2,1.8h6.7v67.4c-7.3-7.2-20.9-22.7-20.9-33.2V203l16.3-8.4c0,0,0.1,0,0.1-0.1c0.1-0.1,0.2-0.2,0.4-0.2
			c0,0,0.1-0.1,0.1-0.1c0.1-0.1,0.3-0.2,0.4-0.4c0,0,0,0,0,0c0.1-0.1,0.2-0.3,0.3-0.4c0-0.1,0.1-0.1,0.1-0.2c0-0.1,0.1-0.1,0.1-0.2
			c0,0,0-0.1,0-0.1c0-0.1,0.1-0.2,0.1-0.3c0-0.1,0-0.2,0-0.3c0-0.1,0-0.2,0-0.3c0-0.1,0-0.2,0-0.3c0-0.1,0-0.2-0.1-0.3
			c0-0.1,0-0.2-0.1-0.3c0-0.1-0.1-0.2-0.1-0.2c0-0.1-0.1-0.2-0.2-0.3c0,0,0-0.1,0-0.1c0-0.1-0.1-0.1-0.1-0.1
			c-0.1-0.1-0.1-0.2-0.2-0.2c-0.1-0.1-0.1-0.1-0.2-0.2c-0.1-0.1-0.2-0.1-0.3-0.2c-0.1-0.1-0.2-0.1-0.3-0.2c-0.1,0-0.2-0.1-0.3-0.1
			c-0.1,0-0.2-0.1-0.3-0.1c-0.1,0-0.1,0-0.2-0.1l-17.9-4.7c-1.8-0.5-3.7,0.4-4.3,1.9c-0.2,0.5-0.2,1-0.1,1.5
			c-0.1,0.2-0.1,0.4-0.1,0.6v25.5c0,11.6-17.8,29.3-24.6,35.1c-0.7,0.6-1,1.4-1,2.1c0,0,0,0.1,0,0.1v2
			c-11.9-8.7-38.7-30.1-38.7-45.4v-15.9l29.8-12.1c0,0,0.1,0,0.1,0c0.1-0.1,0.2-0.1,0.4-0.2c0.1,0,0.1-0.1,0.2-0.1
			c0.1-0.1,0.2-0.2,0.3-0.3c0,0,0.1-0.1,0.1-0.1c0.3-0.3,0.5-0.6,0.6-0.9c0-0.1,0-0.1,0.1-0.2c0-0.1,0.1-0.2,0.1-0.3c0,0,0,0,0,0
			c0-0.1,0-0.2,0-0.3c0-0.1,0-0.2,0-0.2c0-0.1,0-0.2,0-0.3c0-0.1,0-0.2-0.1-0.3c0-0.1-0.1-0.1-0.1-0.2c0-0.1-0.1-0.2-0.1-0.3
			c0,0,0,0,0,0c0-0.1-0.1-0.1-0.1-0.2c-0.1-0.1-0.1-0.2-0.2-0.3c-0.1-0.1-0.1-0.1-0.2-0.2c-0.1-0.1-0.1-0.1-0.2-0.2
			c-0.1-0.1-0.2-0.1-0.3-0.2c-0.1-0.1-0.2-0.1-0.3-0.2c-0.1-0.1-0.2-0.1-0.3-0.1c-0.1,0-0.2-0.1-0.3-0.1c-0.1,0-0.3-0.1-0.4-0.1
			c-0.1,0-0.1,0-0.2,0l-31.8-4.8c-0.1,0-0.2,0-0.3,0c-0.1,0-0.2,0-0.3,0c0,0,0,0,0,0c-0.1,0-0.2,0-0.3,0c-0.1,0-0.2,0-0.3,0
			c-0.1,0-0.2,0-0.3,0.1c-0.1,0-0.3,0.1-0.4,0.1c-0.1,0-0.1,0.1-0.2,0.1c-0.1,0.1-0.2,0.1-0.4,0.2c-0.1,0-0.1,0.1-0.2,0.1
			c-0.1,0.1-0.2,0.1-0.3,0.2c-0.1,0.1-0.1,0.1-0.2,0.2c-0.1,0.1-0.1,0.1-0.2,0.2c-0.1,0.1-0.1,0.2-0.1,0.2c-0.1,0.1-0.1,0.2-0.2,0.3
			c0,0.1-0.1,0.2-0.1,0.2c0,0.1-0.1,0.2-0.1,0.3c0,0,0,0,0,0c0,0.1,0,0.2,0,0.3c0,0.1,0,0.2,0,0.3V208c0,19.6-43.8,49.1-44.2,49.4
			c-1.1,0.8-1.6,2.1-1.1,3.2c0.5,1.2,1.8,2,3.2,2h10.3v37.7c0,1.6,1.5,2.9,3.4,2.9h1.8v28.1H98.2c-1.9,0-3.4,1.3-3.4,2.9v92.9
			c0,1.6,1.5,2.9,3.4,2.9h121.2c1.9,0,3.4-1.3,3.4-2.9v-38.2c0-14.8,14.2-26.9,31.6-26.9c17.4,0,31.6,12,31.6,26.9v38.2
			c0,1.6,1.5,2.9,3.4,2.9h121.2c1.9,0,3.4-1.3,3.4-2.9v-92.9C414,332.6,412.5,331.3,410.6,331.3z M323.3,40.4l9.3,1.4l-9.3,3.8V40.4
			z M319.9,73.9c5.7,9.6,17.2,19.4,24.7,25.1h-1h-47.4h-1C302.7,93.3,314.2,83.5,319.9,73.9z M340.2,104.8v24.5h-0.5h-39.6h-0.5
			v-24.5H340.2z M336.3,135.2v19.5h-32.8v-19.5H336.3z M256.7,117l6.3,1.7l-6.3,3.2V117z M253.2,151.8c4.2,8.6,11.7,17.2,16.6,22.3
			h-34.3C240.8,168.9,248.7,160.4,253.2,151.8z M396.1,304h-0.8h-42.7h-0.8v-26.9h44.3L396.1,304L396.1,304z M377.4,207.7l11.1,1.7
			l-11.1,4.5V207.7z M374,243.6c6.1,10.7,19.1,21.6,27.3,27.8h-1.7h-51.1h-1.7C354.9,265.1,367.9,254.3,374,243.6z M345,277.2v29.8
			c0,1.6,1.5,2.9,3.4,2.9h0.8v21.4h-6.3v-54.1L345,277.2L345,277.2z M187.9,300.3h148.3v8H187.9V300.3z M288.4,167.7
			c0-3.5,3.4-6.4,7.5-6.4h47.9c4.1,0,7.5,2.9,7.5,6.4s-3.4,6.4-7.5,6.4h-47.9C291.8,174.1,288.4,171.2,288.4,167.7z M295.9,242.2
			c1,0.8,2.4,1,3.7,0.6c1.3-0.5,2.1-1.5,2.1-2.7v-59.9h34.5v91.3c0,0.9,0,3,0,5.5v17.5H187.9v-40.1h49.9c1.9,0,3.4-1.3,3.4-2.9
			v-71.3h21.4v34c0,0.8,0.4,1.6,1.1,2.1L295.9,242.2z M213.5,191.3l6.3,1.7l-6.3,3.2V191.3z M210,226.1c4.2,8.6,11.7,17.2,16.6,22.3
			h-34.3C197.5,243.2,205.4,234.7,210,226.1z M181,331.3h-12.1v-28.1h1.8c1.9,0,3.4-1.3,3.4-2.9v-37.7h6.9V331.3L181,331.3z
			 M142.4,176l17.3,2.6l-17.3,7V176z M138.9,219.9c7.6,14.3,25.8,29.2,36.1,36.9h-4.4h-63.5h-4.4
			C113.1,249.1,131.4,234.2,138.9,219.9z M167.3,262.6v34.8h-1.8h-53.1h-1.8v-34.8H167.3z M407.2,424.2H292.8v-35.3
			c0-18-17.2-32.7-38.4-32.7c-21.2,0-38.4,14.7-38.4,32.7v35.3H101.7v-87.1h10.7c1.9,0,3.4-1.3,3.4-2.9v-31h46.3v31
			c0,1.6,1.5,2.9,3.4,2.9h19c1.9,0,3.4-1.3,3.4-2.9v-20.1h148.3v20.1c0,1.6,1.5,2.9,3.4,2.9h13.1c1.9,0,3.4-1.3,3.4-2.9v-24.3h35.9
			v24.3c0,1.6,1.5,2.9,3.4,2.9h11.8L407.2,424.2L407.2,424.2z"/>
		<path d="M138.9,293.5c6.1,0,11-4.2,11-9.4v-7.7c0-5.2-4.9-9.4-11-9.4c-6.1,0-11,4.2-11,9.4v7.7
			C127.9,289.3,132.9,293.5,138.9,293.5z M134.8,276.4c0-2,1.9-3.5,4.2-3.5c2.3,0,4.2,1.6,4.2,3.5v7.7c0,2-1.9,3.5-4.2,3.5
			c-2.3,0-4.2-1.6-4.2-3.5V276.4z"/>
		<path d="M138.9,314.2c-6.1,0-11,4.2-11,9.4v7.7c0,5.2,4.9,9.4,11,9.4c6.1,0,11-4.2,11-9.4v-7.7C149.9,318.4,145,314.2,138.9,314.2
			z M143.1,331.2c0,2-1.9,3.5-4.2,3.5c-2.3,0-4.2-1.6-4.2-3.5v-7.7c0-2,1.9-3.5,4.2-3.5c2.3,0,4.2,1.6,4.2,3.5V331.2z"/>
		<path d="M374,314.2c-6.1,0-11,4.2-11,9.4v7.7c0,5.2,4.9,9.4,11,9.4s11-4.2,11-9.4v-7.7C385,318.4,380,314.2,374,314.2z
			 M378.2,331.2c0,2-1.9,3.5-4.2,3.5c-2.3,0-4.2-1.6-4.2-3.5v-7.7c0-2,1.9-3.5,4.2-3.5c2.3,0,4.2,1.6,4.2,3.5V331.2z"/>
		<path d="M319.9,209.9c6.1,0,11-4.2,11-9.4v-7.7c0-5.2-4.9-9.4-11-9.4s-11,4.2-11,9.4v7.7C308.9,205.7,313.8,209.9,319.9,209.9z
			 M315.7,192.8c0-2,1.9-3.5,4.2-3.5c2.3,0,4.2,1.6,4.2,3.5v7.7c0,2-1.9,3.5-4.2,3.5c-2.3,0-4.2-1.6-4.2-3.5V192.8z"/>
		<path d="M319.9,242c6.1,0,11-4.2,11-9.4v-7.7c0-5.2-4.9-9.4-11-9.4s-11,4.2-11,9.4v7.7C308.9,237.8,313.8,242,319.9,242z
			 M315.7,224.9c0-2,1.9-3.5,4.2-3.5c2.3,0,4.2,1.6,4.2,3.5v7.7c0,2-1.9,3.5-4.2,3.5c-2.3,0-4.2-1.6-4.2-3.5V224.9z"/>
		<path d="M206.9,261c-6.1,0-11,4.2-11,9.4v7.7c0,5.2,4.9,9.4,11,9.4c6.1,0,11-4.2,11-9.4v-7.7C217.9,265.2,212.9,261,206.9,261z
			 M211,278.1c0,2-1.9,3.5-4.2,3.5c-2.3,0-4.2-1.6-4.2-3.5v-7.7c0-2,1.9-3.5,4.2-3.5c2.3,0,4.2,1.6,4.2,3.5V278.1z"/>
		<path d="M241.3,261c-6.1,0-11,4.2-11,9.4v7.7c0,5.2,4.9,9.4,11,9.4c6.1,0,11-4.2,11-9.4v-7.7C252.3,265.2,247.4,261,241.3,261z
			 M245.5,278.1c0,2-1.9,3.5-4.2,3.5c-2.3,0-4.2-1.6-4.2-3.5v-7.7c0-2,1.9-3.5,4.2-3.5c2.3,0,4.2,1.6,4.2,3.5V278.1z"/>
	</g>
</g>
</svg>
