<?xml version="1.0" encoding="utf-8"?>
<!-- Generator: Adobe Illustrator 22.1.0, SVG Export Plug-In . SVG Version: 6.00 Build 0)  -->
<svg version="1.1" id="Layer_1" xmlns="http://www.w3.org/2000/svg" xmlns:xlink="http://www.w3.org/1999/xlink" x="0px" y="0px"
	 viewBox="0 0 504 504" style="enable-background:new 0 0 504 504;" xml:space="preserve">
<style type="text/css">
	.st0{fill:#FFFFFF;}
</style>
<circle class="st0" cx="252" cy="252" r="252"/>
<g id="_x30_64---Drone-Flying">
	<path id="Shape" d="M257,273.2c13.9,0,26-9.9,29.2-24c3.2-14.1-3.3-28.6-15.8-35.1c-12.4-6.5-27.6-3.2-36.5,7.9
		c-7.5,9.3-9.1,22.2-4.2,33.2C234.8,266.2,245.4,273.2,257,273.2L257,273.2z M243.2,230c4.7-5.8,12.2-8.1,19.2-5.9
		c7,2.3,11.9,8.7,12.6,16.2c0.6,7.5-3.1,14.8-9.6,18.3c-6.5,3.5-14.3,2.6-19.9-2.2C237.9,249.8,236.9,238,243.2,230L243.2,230z"/>
	<path id="Shape_1_" d="M81.8,236.1c-2.5-2.2-6.3-1.9-8.5,0.8c-2.1,2.7-1.8,6.6,0.8,8.8l55.3,48.1c2.5,2.2,6.3,1.9,8.5-0.8
		c2.1-2.7,1.8-6.6-0.8-8.8l-8.5-7.4c27.8-20,98,17.5,117,70.9c4.4,10.1,4.9,21.5,1.3,31.9l-8.5-7.4c-2.5-2.2-6.3-1.9-8.5,0.8
		c-2.1,2.6-1.8,6.6,0.8,8.8l55.3,48.1c2.5,2.2,6.3,1.9,8.5-0.8c2.1-2.6,1.8-6.6-0.8-8.8l-15.6-13.5l20-87.9l58.2,43.7
		c10.9,8.2,26,6.1,34.5-4.6c8.5-10.8,7.5-26.6-2.4-36l10.7-13.3c25.4,22.1,23.9,21.5,26.9,21.5c2.5,0,4.8-1.6,5.6-4.1
		c0.9-2.5,0.1-5.2-1.8-6.9l-23-20l7.7-9.6c1.4-1.7,1.8-4.1,1.1-6.2c-0.7-2.1-2.5-3.7-4.6-4s-4.3,0.5-5.7,2.2l-7.7,9.6l-23-20
		c-2.5-2.2-6.3-1.9-8.5,0.8c-2.1,2.6-1.8,6.6,0.8,8.8l23,20l-10.2,12.6l-50.4-50.6c-3.4-3.4-4.5-8.5-3-13.1l1.2-3.6
		c2.2-6.5,0.7-13.8-3.8-18.9c4.7-5.8,8.8-10,8.1-18.6c-0.4-5-2.7-9.5-6.4-12.7l-36.8-32c-7.6-6.6-19-5.6-25.4,2.4l-4,4.9
		c-5.6-3.7-12.8-3.9-18.6-0.5l-3.2,1.9c-4.1,2.4-9.1,2.1-12.9-0.7L163,125.4l10.4-13c25.4,22.1,23.9,21.5,26.9,21.5
		c2.5,0,4.8-1.6,5.6-4.1c0.9-2.5,0.1-5.2-1.8-6.9l-23-20l7.7-9.6c2.1-2.6,1.8-6.6-0.8-8.8c-2.5-2.2-6.3-1.9-8.5,0.8l-7.7,9.6l-23-20
		c-2.5-2.2-6.3-1.9-8.5,0.8s-1.8,6.6,0.8,8.8l23,20l-11.4,14.2c-11.2-5-24.3-0.9-31.1,9.6c-6.8,10.6-5.3,24.7,3.5,33.5l51.7,51.9
		l-79.6,36L81.8,236.1z M272.5,174.1c2.1-2.6,5.9-3,8.5-0.8l36.8,32c1.2,1.1,2,2.6,2.1,4.2c0.3,3.1-1,4.1-5.2,9.4l-46-40
		L272.5,174.1z M132.7,134c4.5-5.5,12.3-6.6,18-2.4l66.9,50.2c7.6,5.7,17.7,6.3,25.9,1.5l3.1-1.8c2.2-1.3,4.9-1.1,6.9,0.6l60.9,52.9
		c1.9,1.7,2.7,4.4,1.8,6.9l-1.2,3.6c-3.1,9.2-0.7,19.4,6,26.2l59.4,59.6c5,5.1,5.4,13.3,0.9,18.9c-4.5,5.6-12.3,6.6-18,2.4
		l-66.9-50.2c-7.6-5.7-17.7-6.3-25.9-1.5l-3.1,1.9c-2.2,1.3-5,1.1-6.9-0.6l-60.9-53c-1.9-1.7-2.7-4.4-1.8-6.9l1.2-3.6
		c3.3-9.9,0.4-20.8-7.3-27.5l-58.1-58.3C128.7,147.8,128.3,139.5,132.7,134L132.7,134z M186.1,223.2c2.3,3.3,2.9,7.5,1.6,11.3
		l-1.2,3.6c-2.5,7.4-0.3,15.5,5.5,20.5l60.9,52.9c5.8,5,13.9,5.8,20.5,1.9l3.2-1.9c3.4-1.9,7.5-2.1,11-0.3l-19.7,86.4l-11.4-9.9
		c6.4-11.7,6.7-27.2,0.5-44.5c-20.8-58.1-102.1-106-137.8-74.9l-11.4-9.9L186.1,223.2z"/>
	<path id="Shape_2_" d="M187.7,316.6l-72,74.9c-1.6,1.6-2.2,3.9-1.6,6.1s2.2,3.9,4.3,4.5c2.1,0.6,4.3-0.1,5.8-1.7l72-74.9
		c2.3-2.4,2.2-6.3-0.1-8.7C193.8,314.3,190.1,314.3,187.7,316.6L187.7,316.6z"/>
	<path id="Shape_3_" d="M145.7,310.4l-48,49.9c-2.3,2.4-2.2,6.3,0.1,8.7s6.1,2.4,8.4,0.1l48-49.9c2.3-2.4,2.2-6.3-0.1-8.7
		C151.8,308,148.1,308,145.7,310.4z"/>
	<path id="Shape_4_" d="M145.7,410.2c-1.6,1.6-2.2,3.9-1.6,6.1c0.5,2.2,2.2,3.9,4.3,4.5s4.3-0.1,5.8-1.7l48-49.9
		c2.3-2.4,2.2-6.3-0.1-8.7c-2.3-2.4-6.1-2.4-8.4-0.1L145.7,410.2z"/>
	<path id="Shape_5_" d="M85.7,431.6c2.3,2.4,6.1,2.4,8.5,0l12-12.5c2.3-2.4,2.2-6.3-0.1-8.7c-2.3-2.4-6.1-2.4-8.4-0.1l-12,12.5
		C83.3,425.2,83.3,429.1,85.7,431.6L85.7,431.6z"/>
	<path id="Shape_6_" d="M393.9,196c3.2,0.9,6.5-1.1,7.4-4.4c7.7-30.1-0.6-62.2-21.8-84.3c-21.2-22-52.1-30.7-81-22.7
		c-2.1,0.6-3.7,2.3-4.3,4.4c-0.6,2.2,0,4.5,1.6,6.1c1.5,1.6,3.8,2.2,5.9,1.6c24.8-6.8,51.2,0.6,69.4,19.5
		c18.2,18.9,25.3,46.4,18.7,72.2C388.8,191.6,390.7,195.1,393.9,196L393.9,196z"/>
	<path id="Shape_7_" d="M370.8,189.6c1.5,0.4,3.2,0.2,4.5-0.7c1.4-0.8,2.4-2.2,2.8-3.8c5.5-21.5-0.5-44.4-15.6-60.1
		c-15.1-15.7-37.1-21.9-57.8-16.2c-3.2,0.9-5.1,4.3-4.3,7.6c0.8,3.3,4.1,5.3,7.3,4.5c16.6-4.6,34.2,0.4,46.3,13
		c12.1,12.6,16.9,31,12.5,48.2c-0.4,1.6-0.2,3.3,0.6,4.7C368,188.1,369.3,189.2,370.8,189.6L370.8,189.6z"/>
	<path id="Shape_8_" d="M347.6,183.1c1.5,0.4,3.2,0.2,4.6-0.6c1.4-0.8,2.4-2.2,2.8-3.8c3.3-12.9-0.3-26.7-9.4-36.1
		s-22.3-13.2-34.7-9.7c-2.1,0.6-3.7,2.3-4.2,4.4c-0.6,2.2,0,4.5,1.6,6s3.7,2.2,5.8,1.6c8.3-2.3,17.1,0.2,23.2,6.5s8.4,15.5,6.2,24.1
		C342.5,178.8,344.4,182.2,347.6,183.1L347.6,183.1z"/>
</g>
</svg>
