<?xml version="1.0" encoding="iso-8859-1"?>
<!-- Generator: Adobe Illustrator 21.0.0, SVG Export Plug-In . SVG Version: 6.00 Build 0)  -->
<svg version="1.1" id="Capa_1" xmlns="http://www.w3.org/2000/svg" xmlns:xlink="http://www.w3.org/1999/xlink" x="0px" y="0px"
	 viewBox="0 0 512 512" style="enable-background:new 0 0 512 512;" xml:space="preserve">
<path style="fill:#4D4D4D;" d="M497.702,50.076H314H14.298C6.403,50.076,0,56.479,0,64.374v261.995l251.483,36.051L512,326.369
	V64.374C511.999,56.479,505.596,50.076,497.702,50.076z"/>
<path style="fill:#3B3B3B;" d="M497.702,50.076H314l-196.472,324.76h92.922h91.111h196.141c7.894,0,14.297-6.403,14.297-14.309
	V326.37V64.374C511.999,56.479,505.596,50.076,497.702,50.076z"/>
<polygon style="fill:#808080;" points="301.561,367.734 312.284,456.372 199.727,456.372 210.45,367.734 "/>
<polygon style="fill:#616161;" points="308.676,426.548 301.561,367.734 210.45,367.734 203.335,426.548 "/>
<path style="fill:#CCCCCC;" d="M146.845,326.369H0v34.158c0,7.906,6.403,14.309,14.298,14.309h103.231h92.922h91.111h196.141
	c7.894,0,14.297-6.403,14.297-14.309v-34.158H146.845z"/>
<path style="fill:#ADADAD;" d="M146.85,326.369l-29.322,48.467h380.174c7.894,0,14.297-6.403,14.297-14.309V326.37L146.85,326.369
	L146.85,326.369z"/>
<path style="fill:#CCCCCC;" d="M352.308,461.923H159.696c-4.142,0-7.5-3.358-7.5-7.5s3.358-7.5,7.5-7.5h192.611
	c4.142,0,7.5,3.358,7.5,7.5S356.45,461.923,352.308,461.923z"/>
<g>
</g>
<g>
</g>
<g>
</g>
<g>
</g>
<g>
</g>
<g>
</g>
<g>
</g>
<g>
</g>
<g>
</g>
<g>
</g>
<g>
</g>
<g>
</g>
<g>
</g>
<g>
</g>
<g>
</g>
</svg>
