<?xml version="1.0" encoding="utf-8"?>
<!-- Generator: Adobe Illustrator 22.1.0, SVG Export Plug-In . SVG Version: 6.00 Build 0)  -->
<svg version="1.1" id="Capa_1" xmlns="http://www.w3.org/2000/svg" xmlns:xlink="http://www.w3.org/1999/xlink" x="0px" y="0px"
	 viewBox="0 0 504 504" style="enable-background:new 0 0 504 504;" xml:space="preserve">
<style type="text/css">
	.st0{fill:#FFFFFF;}
	.st1{fill:#4D4D4D;}
	.st2{fill:#3B3B3B;}
	.st3{fill:#808080;}
	.st4{fill:#616161;}
	.st5{fill:#CCCCCC;}
	.st6{fill:#ADADAD;}
</style>
<circle class="st0" cx="252" cy="252" r="252"/>
<g>
	<path class="st1" d="M421.9,102H292.8H82.1c-5.6,0-10.1,5.6-10.1,12.5v229L248.8,375L432,343.5v-229C432,107.6,427.5,102,421.9,102
		z"/>
	<path class="st2" d="M421.9,102H292.8L154.6,385.9H220h64h137.9c5.6,0,10.1-5.6,10.1-12.5v-29.9v-229
		C432,107.6,427.5,102,421.9,102z"/>
	<polygon class="st3" points="284,379.7 291.6,457.1 212.4,457.1 220,379.7 	"/>
	<polygon class="st4" points="289,431.1 284,379.7 220,379.7 215,431.1 	"/>
	<path class="st5" d="M175.3,343.5H72v29.9c0,6.9,4.5,12.5,10.1,12.5h72.6H220h64h137.9c5.6,0,10.1-5.6,10.1-12.5v-29.9H175.3z"/>
	<path class="st6" d="M175.3,343.5l-20.6,42.4H422c5.6,0,10.1-5.6,10.1-12.5v-29.9H175.3L175.3,343.5z"/>
	<path class="st5" d="M319.7,462H184.3c-2.9,0-5.3-2.9-5.3-6.6c0-3.6,2.4-6.6,5.3-6.6h135.4c2.9,0,5.3,2.9,5.3,6.6
		S322.6,462,319.7,462z"/>
</g>
</svg>
