<?xml version="1.0" encoding="utf-8"?>
<!-- Generator: Adobe Illustrator 22.1.0, SVG Export Plug-In . SVG Version: 6.00 Build 0)  -->
<svg version="1.1" id="Layer_3" xmlns="http://www.w3.org/2000/svg" xmlns:xlink="http://www.w3.org/1999/xlink" x="0px" y="0px"
	 viewBox="0 0 504 504" style="enable-background:new 0 0 504 504;" xml:space="preserve">
<style type="text/css">
	.st0{fill:#FFFFFF;}
	.st1{fill:#F5B953;}
	.st2{fill:#F9D18B;}
	.st3{fill:#C66B60;}
	.st4{fill:#E47C6E;}
	.st5{fill:#8892A0;}
	.st6{fill:#BF5763;}
</style>
<ellipse class="st0" cx="251" cy="251" rx="252" ry="251.6"/>
<g>
	<path class="st1" d="M276.4,423c0-22,19.1-39.9,42.8-39.9s42.8,17.9,42.8,39.9H423V81h-61.1c0,22-19.1,39.9-42.8,39.9
		S276.4,103,276.4,81h-61.1v342H276.4z"/>
	<path class="st2" d="M349.5,109.1c-7.8,7.2-18.4,11.8-30.3,11.8c-23.7,0-42.8-17.9-42.8-39.9h-61.1v342h61.1
		c0-22,19.1-39.9,42.8-39.9c3,0,6.1,0.3,8.9,0.9c21.4-48.4,33.8-106.5,33.8-169C361.9,177.7,357.5,142.1,349.5,109.1L349.5,109.1z"
		/>
	<ellipse class="st3" cx="319.2" cy="263.4" rx="73.2" ry="68.4"/>
	<path class="st4" d="M319.2,195c-40.5,0-73.2,30.6-73.2,68.4c0,11.8,3.1,22.8,8.7,32.5c12.6,11.7,30,18.8,49.2,18.8
		c38.8,0,70.2-29.4,70.2-65.6c0-18-7.7-34.1-20.2-46C343.6,197.9,331.8,195,319.2,195L319.2,195z"/>
	<g>
		<path class="st5" d="M368,326.1h12.3v57H368V326.1z"/>
		<path class="st5" d="M392.5,326.1h12.3v57h-12.3V326.1z"/>
		<path class="st5" d="M392.5,166.5H423v11.4h-30.5V166.5z"/>
		<path class="st5" d="M307,166.5h24.4v11.4H307V166.5z"/>
		<path class="st5" d="M349.8,166.5h24.4v11.4h-24.4V166.5z"/>
	</g>
	<path class="st6" d="M386.3,240.6h1.8c-1.5-3.9-3.3-7.7-5.5-11.2l-31,1.8c-11.1,0.7-22,2.7-32.5,5.8v-1.3c0-5.7,3-11,8.2-14.3
		l25.4-15.8l2.9-1.5c-4.2-2.3-8.7-4.2-13.4-5.6L320.6,212c-8.6,5.3-13.6,14.2-13.6,23.8v4.2c0,0.5,0.1,0.9,0.1,1.3
		c-7.4,2.9-14.5,6.6-21.3,10.7c-3.5-8.2-6.1-16.8-7.3-25.7l-2.1-14.5v-3.8c-4.2,2.8-8.1,6.1-11.5,9.6l1.4,10.3
		c1.5,10.8,4.8,21.3,9.3,31.2c-9.9,7.4-18.6,16.2-26,26.1c1.5,4.3,3.5,8.4,5.9,12.3l1.5-2.2l1.4-1.9c6.4-8.9,14.1-16.9,22.7-23.8
		c15,25.5,39.8,45.6,69.9,55.5c4.9-2.2,9.5-4.9,13.7-8.1l-7.1-1.8l-1-0.3c-28.6-8.9-52.1-28-65.8-52.3c6.1-3.9,12.4-7.2,19.2-10.1
		c3.9,7.3,11.1,13,20.3,15.2c17.3,4.1,31.8,14.9,39.8,29.8l4.3,8l0.7,2c3.1-3.4,5.8-7.1,8.2-11l-2.2-4c-9.6-17.9-27-30.9-48.2-35.8
		c-5-1.1-9.1-4.2-11.5-8.2c10-3.1,20.3-5.1,31-5.7L386.3,240.6z"/>
	<path class="st1" d="M142.1,423c0-22,19.1-39.9,42.8-39.9s42.8,17.9,42.8,39.9h61.1V81h-61.1c0,22-19.1,39.9-42.8,39.9
		S142.1,103,142.1,81H81v342H142.1z"/>
	<path class="st2" d="M81,363.5c8,1.6,16.1,2.5,24.4,2.5c80.9,0,146.6-77.8,146.6-173.9c0-37-9.8-71.2-26.3-99.4
		c-5.4,16.2-21.7,28.1-40.8,28.1c-23.7,0-42.8-17.9-42.8-39.9H81V363.5z"/>
	<ellipse class="st3" cx="184.8" cy="263.4" rx="73.2" ry="68.4"/>
	<path class="st4" d="M184.8,195c-40.5,0-73.2,30.6-73.2,68.4c0,11.8,3.1,22.8,8.7,32.5c12.6,11.7,30,18.8,49.2,18.8
		c38.8,0,70.2-29.4,70.2-65.6c0-18-7.7-34.1-20.2-46C209.3,197.9,197.4,195,184.8,195L184.8,195z"/>
	<path class="st6" d="M252,240.6h1.8c-1.5-3.9-3.3-7.7-5.5-11.2l-31,1.8c-11.1,0.7-22,2.7-32.5,5.8v-1.3c0-5.7,3-11,8.2-14.3
		l25.4-15.8l2.9-1.5c-4.2-2.3-8.7-4.2-13.4-5.6L186.3,212c-8.6,5.3-13.6,14.2-13.6,23.8v4.2c0,0.5,0.1,0.9,0.1,1.3
		c-7.4,2.9-14.5,6.6-21.3,10.7c-3.5-8.2-6.1-16.8-7.3-25.7l-2.1-14.5v-3.8c-4.2,2.8-8.1,6.1-11.5,9.6l1.4,10.3
		c1.5,10.8,4.8,21.3,9.3,31.2c-9.9,7.4-18.6,16.2-26,26.1c1.5,4.3,3.5,8.4,5.9,12.3l1.5-2.2l1.4-1.9c6.4-8.9,14.1-16.9,22.7-23.8
		c15,25.5,39.8,45.6,69.9,55.5c4.9-2.2,9.5-4.9,13.7-8.1l-7.1-1.8l-0.9-0.3c-28.6-8.9-52.1-28-65.8-52.3c6.1-3.9,12.4-7.2,19.2-10.1
		c3.9,7.3,11.1,13,20.3,15.2c17.3,4.1,31.8,14.9,39.8,29.8l4.3,8l0.7,2c3.1-3.4,5.8-7.1,8.2-11l-2.2-4c-9.6-17.9-27-30.9-48.2-35.8
		c-5-1.1-9.1-4.2-11.5-8.2c10-3.1,20.3-5.1,31-5.7L252,240.6z"/>
	<path class="st5" d="M81,166.5h30.5v11.4H81V166.5z"/>
	<path class="st5" d="M172.6,166.5H197v11.4h-24.4V166.5z"/>
	<path class="st5" d="M129.8,166.5h24.4v11.4h-24.4C129.8,177.9,129.8,166.5,129.8,166.5z"/>
	<path class="st5" d="M99.3,326.1h12.3v57H99.3V326.1z"/>
	<path class="st5" d="M123.8,326.1H136v57h-12.3V326.1z"/>
	<path d="M233.7,326.1h12.3v57h-12.3V326.1z"/>
	<path d="M258.1,326.1h12.3v57h-12.3V326.1z"/>
	<path class="st5" d="M215.3,166.5h30.5v11.4h-30.5V166.5z"/>
	<path class="st5" d="M233.7,326.1h12.3v57h-12.3V326.1z"/>
	<path class="st5" d="M258.1,326.1h12.3v57h-12.3V326.1z"/>
</g>
</svg>
