<?xml version="1.0" encoding="utf-8"?>
<!-- Generator: Adobe Illustrator 22.1.0, SVG Export Plug-In . SVG Version: 6.00 Build 0)  -->
<svg version="1.1" id="Layer_1" xmlns="http://www.w3.org/2000/svg" xmlns:xlink="http://www.w3.org/1999/xlink" x="0px" y="0px"
	 viewBox="0 0 504 504" style="enable-background:new 0 0 504 504;" xml:space="preserve">
<style type="text/css">
	.st0{fill:#FFFFFF;}
	.st1{fill:#212121;}
</style>
<circle class="st0" cx="248" cy="252" r="248.4"/>
<path class="st1" d="M0,226.8h175.6V189c0-7,5.7-12.6,12.6-12.6h126.3c7,0,12.6,5.6,12.6,12.6v126c0,7-5.6,12.6-12.6,12.6H188.2
	c-7,0-12.6-5.6-12.6-12.6v0v-37.8H0c14,138.5,137.8,239.4,276.6,225.5c138.8-13.9,240-137.5,226.1-275.9C489.5,98.9,382,0,251.4,0h0
	C120.8,0,13.3,98.9,0.1,225.7L0,226.8z"/>
</svg>
