<?xml version="1.0"?>
<svg xmlns="http://www.w3.org/2000/svg" id="Layer_5" enable-background="new 0 0 64 64" height="512px" viewBox="0 0 64 64" width="512px" class=""><g><g><path d="m45 57h-26c-1.654 0-3 1.346-3 3 0 .552.448 1 1 1h30c.552 0 1-.448 1-1 0-1.654-1.346-3-3-3z" data-original="#000000" class="active-path" data-old_color="#000000" fill="#FFFFFF"/><path d="m25.963 51c-.114 1.464-.634 2.845-1.492 4h15.059c-.858-1.155-1.378-2.536-1.492-4z" data-original="#000000" class="active-path" data-old_color="#000000" fill="#FFFFFF"/><path d="m32 11v-8h-25c-2.206 0-4 1.794-4 4s1.794 4 4 4z" data-original="#000000" class="active-path" data-old_color="#000000" fill="#FFFFFF"/><path d="m34 3h2v8h-2z" data-original="#000000" class="active-path" data-old_color="#000000" fill="#FFFFFF"/><path d="m5 46c0 1.654 1.346 3 3 3h48c1.654 0 3-1.346 3-3v-3h-54zm12-1h2v2h-2zm-4 0h2v2h-2zm-4 0h2v2h-2z" data-original="#000000" class="active-path" data-old_color="#000000" fill="#FFFFFF"/><path d="m38 3h2v8h-2z" data-original="#000000" class="active-path" data-old_color="#000000" fill="#FFFFFF"/><path d="m52 11h.397c.84 0 1.644-.258 2.324-.745l4.558-3.255-4.557-3.255c-.681-.487-1.485-.745-2.325-.745h-.397c-2.206 0-4 1.794-4 4s1.794 4 4 4z" data-original="#000000" class="active-path" data-old_color="#000000" fill="#FFFFFF"/><path d="m46 10v-6c0-.552-.448-1-1-1h-3v8h3c.552 0 1-.448 1-1z" data-original="#000000" class="active-path" data-old_color="#000000" fill="#FFFFFF"/><path d="m59.607 15.217-.156-.459c-.13-.382-.291-.767-.477-1.145l-.214-.436.639-1.335-1.441-1.441-2.073 1.481c-.443.317-.925.556-1.427.74 1.547 1.284 2.542 3.21 2.542 5.378 0 3.866-3.134 7-7 7s-7-3.134-7-7c0-1.964.812-3.737 2.115-5.009-.039.002-.076.009-.115.009h-3.846l.085.178-.214.436c-.186.378-.347.763-.477 1.145l-.156.459-1.392.49v4.584l1.393.491.156.459c.13.382.291.767.477 1.145l.214.436-.639 1.335 3.242 3.242 1.335-.639.436.214c.378.186.763.347 1.145.477l.459.156.49 1.392h4.584l.491-1.393.459-.156c.382-.13.767-.291 1.145-.477l.436-.214 1.335.639 3.242-3.242-.639-1.335.214-.436c.186-.378.347-.763.477-1.145l.156-.459 1.392-.49v-4.584z" data-original="#000000" class="active-path" data-old_color="#000000" fill="#FFFFFF"/><path d="m54.822 28.978c-.156.069-.313.135-.471.196l-.643 1.826h-7.416l-.644-1.826c-.157-.062-.314-.127-.471-.196l-1.749.836-5.242-5.242.836-1.749c-.069-.156-.135-.313-.196-.471l-1.826-.644v-7.416l1.826-.644c.062-.157.127-.314.196-.471l-.085-.177h-31.937c-.702 0-1.373-.128-2-.35v28.35h54v-13.615l-2.429 2.429zm-46.822-12.978h26v6h-26zm17 9v2h-2v-2zm-5 13h-12v-12h12zm15 1h-12v-2h12zm0-4h-12v-2h12zm0-4h-12v-2h12zm0-4h-8v-2h8zm21 11h-18v-4h18z" data-original="#000000" class="active-path" data-old_color="#000000" fill="#FFFFFF"/><circle cx="50" cy="18" r="3" data-original="#000000" class="active-path" data-old_color="#000000" fill="#FFFFFF"/></g></g> </svg>
