<?xml version="1.0"?>
<svg xmlns="http://www.w3.org/2000/svg" id="Capa_1" enable-background="new 0 0 448.026 448.026" height="512px" viewBox="0 0 448.026 448.026" width="512px" class=""><g><path d="m264.013 352.026h-80c-4.416.005-7.995 3.584-8 8v24h96v-24c-.005-4.416-3.584-7.995-8-8z" data-original="#000000" class="active-path" data-old_color="#000000" fill="#FFFFFF"/><path d="m215.584 432.026c-.584 5.442-1.751 10.806-3.48 16h23.818c-1.729-5.194-2.896-10.558-3.48-16z" data-original="#000000" class="active-path" data-old_color="#000000" fill="#FFFFFF"/><path d="m176.013 408.026c.005 4.416 3.584 7.995 8 8h80c4.416-.005 7.995-3.584 8-8v-8h-96z" data-original="#000000" class="active-path" data-old_color="#000000" fill="#FFFFFF"/><path d="m88.013 352.026h-80c-4.416.005-7.995 3.584-8 8v24h96v-24c-.005-4.416-3.584-7.995-8-8z" data-original="#000000" class="active-path" data-old_color="#000000" fill="#FFFFFF"/><path d="m39.584 432.026c-.584 5.442-1.751 10.806-3.48 16h23.818c-1.729-5.194-2.896-10.558-3.48-16z" data-original="#000000" class="active-path" data-old_color="#000000" fill="#FFFFFF"/><path d="m.013 408.026c.005 4.416 3.584 7.995 8 8h80c4.416-.005 7.995-3.584 8-8v-8h-96v8z" data-original="#000000" class="active-path" data-old_color="#000000" fill="#FFFFFF"/><path d="m391.584 432.026c-.584 5.442-1.751 10.806-3.48 16h23.818c-1.729-5.194-2.896-10.558-3.48-16z" data-original="#000000" class="active-path" data-old_color="#000000" fill="#FFFFFF"/><path d="m352.013 408.026c.005 4.416 3.584 7.995 8 8h80c4.416-.005 7.995-3.584 8-8v-8h-96z" data-original="#000000" class="active-path" data-old_color="#000000" fill="#FFFFFF"/><path d="m440.013 352.026h-80c-4.416.005-7.995 3.584-8 8v24h96v-24c-.005-4.416-3.584-7.995-8-8z" data-original="#000000" class="active-path" data-old_color="#000000" fill="#FFFFFF"/><path d="m120.013 176.026h80c4.416-.005 7.995-3.584 8-8v-8h-96v8c.005 4.416 3.584 7.995 8 8z" data-original="#000000" class="active-path" data-old_color="#000000" fill="#FFFFFF"/><path d="m208.013 120.026c-.005-4.416-3.584-7.995-8-8h-80c-4.416.005-7.995 3.584-8 8v24h96z" data-original="#000000" class="active-path" data-old_color="#000000" fill="#FFFFFF"/><path d="m336.013 80.026h-56v-24h-16v24h-8v32h80zm-16 24h-16v-16h16z" data-original="#000000" class="active-path" data-old_color="#000000" fill="#FFFFFF"/><path d="m352.013 72.026v24h68c15.464 0 28-12.536 28-28s-12.536-28-28-28h-4c-4.418 0-8-3.582-8-8 .014-17.673-14.301-32.012-31.974-32.026-13.97-.011-26.332 9.041-30.54 22.362-.796 2.512-2.779 4.471-5.3 5.237-3.894 1.206-6.998 4.167-8.387 8-.937 2.581-3.132 4.501-5.815 5.086-11.354 2.552-19.966 11.829-21.669 23.341h39.685c4.418 0 8 3.582 8 8zm48-8h32v16h-32zm-32 0h16v16h-16z" data-original="#000000" class="active-path" data-old_color="#000000" fill="#FFFFFF"/><path d="m336.013 128.026h-80v32h80zm-16 24h-16v-16h16z" data-original="#000000" class="active-path" data-old_color="#000000" fill="#FFFFFF"/><path d="m216.013 288.026h16v16h-16z" data-original="#000000" class="active-path" data-old_color="#000000" fill="#FFFFFF"/><path d="m216.013 240.026h16v32h-16z" data-original="#000000" class="active-path" data-old_color="#000000" fill="#FFFFFF"/><path d="m48.013 240.026c10.171-.001 19.237-6.411 22.629-16h306.742c4.418 12.497 18.131 19.046 30.627 14.627 12.497-4.418 19.046-18.131 14.627-30.627-4.418-12.497-18.131-19.046-30.627-14.627-6.835 2.416-12.211 7.793-14.627 14.627h-41.371v-32h-80v32h-84.091c-1.729-5.194-2.896-10.558-3.48-16h-16.858c-.584 5.442-1.751 10.806-3.48 16h-77.462c-4.418-12.497-18.131-19.046-30.627-14.627-12.497 4.418-19.046 18.131-14.627 30.627 3.389 9.588 12.455 15.999 22.625 16zm256-56h16v16h-16z" data-original="#000000" class="active-path" data-old_color="#000000" fill="#FFFFFF"/><path d="m46.538 304.163c-3.784.71-6.525 4.013-6.525 7.863v24h16v-17.36l121.475-22.777c3.784-.71 6.525-4.013 6.525-7.863v-48h-16v41.36z" data-original="#000000" class="active-path" data-old_color="#000000" fill="#FFFFFF"/><path d="m408.013 336.026v-24c0-3.85-2.741-7.153-6.525-7.863l-121.475-22.777v-41.36h-16v48c0 3.85 2.741 7.153 6.525 7.863l121.475 22.777v17.36z" data-original="#000000" class="active-path" data-old_color="#000000" fill="#FFFFFF"/><path d="m216.013 320.026h16v16h-16z" data-original="#000000" class="active-path" data-old_color="#000000" fill="#FFFFFF"/></g> </svg>
