<?xml version="1.0"?>
<svg xmlns="http://www.w3.org/2000/svg" xmlns:xlink="http://www.w3.org/1999/xlink" version="1.1" id="Capa_1" x="0px" y="0px" viewBox="0 0 496 496" style="enable-background:new 0 0 496 496;" xml:space="preserve" width="512px" height="512px" class=""><g><g>
	<g>
		<path d="M217.528,96h-14.4L183.44,32h-27.824l-19.688,64h-14.4v16h9.48l-9.128,29.648l15.288,4.704L147.744,112h43.568    l10.568,34.352l15.288-4.704L208.048,112h9.48V96z M152.664,96l14.776-48h4.176l14.768,48H152.664z" data-original="#000000" class="active-path" data-old_color="#000000" fill="#FFFFFF"/>
	</g>
</g><g>
	<g>
		<path d="M294.672,88c6.656-5.864,10.856-14.456,10.856-24c0-17.648-14.352-32-32-32h-32v112h32c17.648,0,32-14.352,32-32    C305.528,102.456,301.328,93.864,294.672,88z M273.528,128h-16V96h16c8.824,0,16,7.176,16,16S282.352,128,273.528,128z     M273.528,80h-16V48h16c8.824,0,16,7.176,16,16S282.352,80,273.528,80z" data-original="#000000" class="active-path" data-old_color="#000000" fill="#FFFFFF"/>
	</g>
</g><g>
	<g>
		<path d="M377.528,48V32c-30.88,0-56,25.12-56,56s25.12,56,56,56v-16c-22.056,0-40-17.944-40-40    C337.528,65.944,355.472,48,377.528,48z" data-original="#000000" class="active-path" data-old_color="#000000" fill="#FFFFFF"/>
	</g>
</g><g>
	<g>
		<path d="M97.528,160v144h304V160H97.528z M385.528,288h-272V176h272V288z" data-original="#000000" class="active-path" data-old_color="#000000" fill="#FFFFFF"/>
	</g>
</g><g>
	<g>
		<rect x="105.528" y="320" width="288" height="16" data-original="#000000" class="active-path" data-old_color="#000000" fill="#FFFFFF"/>
	</g>
</g><g>
	<g>
		<rect x="105.528" y="352" width="288" height="16" data-original="#000000" class="active-path" data-old_color="#000000" fill="#FFFFFF"/>
	</g>
</g><g>
	<g>
		<rect x="377.528" y="384" width="16" height="16" data-original="#000000" class="active-path" data-old_color="#000000" fill="#FFFFFF"/>
	</g>
</g><g>
	<g>
		<rect x="105.528" y="384" width="256" height="16" data-original="#000000" class="active-path" data-old_color="#000000" fill="#FFFFFF"/>
	</g>
</g><g>
	<g>
		<path d="M494.472,32h-60.944V0h-392c-22.056,0-40,17.944-40,40v416c0,22.056,17.944,40,40,40h368h24v-16h-24    c-13.232,0-24-10.768-24-24s10.768-24,24-24h16h8V112h60.944l-20-40L494.472,32z M377.736,480H41.528c-13.232,0-24-10.768-24-24    s10.768-24,24-24h336.208c-5.08,6.704-8.208,14.96-8.208,24C369.528,465.04,372.656,473.296,377.736,480z M417.528,416h-8h-328    v-32h-16v32h-24c-9,0-17.312,2.992-24,8.016V40c0-13.232,10.768-24,24-24h24v352h16V16h336V416z M468.584,96h-35.056V48h35.056    l-12,24L468.584,96z" data-original="#000000" class="active-path" data-old_color="#000000" fill="#FFFFFF"/>
	</g>
</g><g>
	<g>
		<rect x="65.528" y="448" width="288" height="16" data-original="#000000" class="active-path" data-old_color="#000000" fill="#FFFFFF"/>
	</g>
</g><g>
	<g>
		<rect x="33.528" y="448" width="16" height="16" data-original="#000000" class="active-path" data-old_color="#000000" fill="#FFFFFF"/>
	</g>
</g></g> </svg>
