<?xml version="1.0"?>
<svg xmlns="http://www.w3.org/2000/svg" xmlns:xlink="http://www.w3.org/1999/xlink" version="1.1" id="Capa_1" x="0px" y="0px" width="512px" height="512px" viewBox="0 0 143.733 143.733" style="enable-background:new 0 0 143.733 143.733;" xml:space="preserve" class=""><g><g>
	<g>
		<path d="M125.46,43.851c4.037,0,7.31-3.271,7.31-7.308s-3.271-7.308-7.31-7.308h-13.026l11.818-17.898    c2.225-3.369,1.296-7.903-2.07-10.127c-3.369-2.224-7.904-1.296-10.127,2.07L94.915,29.235h-39.56    c-24.478,0-44.391,17.727-44.391,39.518v6.769v1.896c0,16.743,11.011,32.36,25.845,39.809l-10.02,15.172    c-2.224,3.369-1.296,7.903,2.071,10.127c1.242,0.816,2.641,1.209,4.022,1.209c2.373,0,4.702-1.154,6.105-3.281l12.458-18.865    c1.296,0.132,2.6,0.22,3.91,0.22h70.105c4.037,0,7.309-3.271,7.309-7.31c0-4.036-3.271-7.308-7.309-7.308H60.953L77.04,82.828    h19.188c4.037,0,7.31-3.271,7.31-7.309c0-4.037-3.272-7.309-7.31-7.309h-9.535L102.78,43.85L125.46,43.851L125.46,43.851    L125.46,43.851z M44.955,104.891c-9.057-3.958-16.585-12.58-18.743-22.062h33.311L44.955,104.891z M69.174,68.213h-43.56    c0.366-15.058,15.594-24.361,29.74-24.361h29.908L69.174,68.213z" data-original="#000000" class="active-path" data-old_color="#000000" fill="#FFFFFF"/>
	</g>
</g></g> </svg>
