<?xml version="1.0"?>
<svg xmlns="http://www.w3.org/2000/svg" xmlns:xlink="http://www.w3.org/1999/xlink" version="1.1" id="Capa_1" x="0px" y="0px" viewBox="0 0 512.005 512.005" style="enable-background:new 0 0 512.005 512.005;" xml:space="preserve" width="512px" height="512px" class=""><g><g transform="translate(-1)">
	<g>
		<g>
			<path d="M466.172,394.683c-3.025-2.989-6.463-5.529-10.21-7.54c0.167-1.039,0.273-2.087,0.317-3.139     c-0.036-11.585-7.358-21.895-18.286-25.744v-38.256c-0.03-25.235-20.479-45.685-45.714-45.714h-62.134v-18.286H183.859v18.286     h-62.134c-25.235,0.03-45.685,20.479-45.714,45.714v38.256c-10.927,3.849-18.25,14.158-18.286,25.744     c0.044,1.051,0.15,2.099,0.317,3.138c-3.747,2.012-7.185,4.551-10.21,7.54c-9.951,9.941-13.061,24.836-7.92,37.929     c1.026,3.107,3.635,5.428,6.84,6.086c3.205,0.658,6.517-0.447,8.685-2.898c2.167-2.451,2.86-5.873,1.815-8.974     c-3.919-8.836-0.044-19.183,8.714-23.272c10.639,10.509,27.752,10.505,38.386-0.009c8.648,4.195,12.478,14.442,8.703,23.281     c-1.045,3.1-0.353,6.523,1.815,8.974c2.167,2.451,5.48,3.556,8.685,2.898c3.205-0.658,5.814-2.979,6.84-6.086     c5.142-13.092,2.031-27.987-7.92-37.929c-3.025-2.989-6.463-5.529-10.21-7.54c0.167-1.039,0.273-2.087,0.317-3.139     c-0.036-11.585-7.358-21.895-18.286-25.744v-38.256c0.017-15.142,12.287-27.412,27.429-27.429h62.134v45.714h146.286v-45.714     h62.134c15.142,0.017,27.412,12.287,27.429,27.429v38.256c-10.927,3.849-18.25,14.158-18.286,25.744     c0.044,1.051,0.15,2.099,0.317,3.138c-3.747,2.012-7.185,4.551-10.21,7.54c-9.951,9.941-13.061,24.836-7.92,37.929     c1.026,3.107,3.635,5.428,6.84,6.086c3.205,0.658,6.517-0.447,8.685-2.898s2.86-5.873,1.815-8.974     c-3.919-8.836-0.044-19.183,8.714-23.272c10.639,10.509,27.752,10.505,38.386-0.009c8.648,4.195,12.478,14.442,8.703,23.281     c-1.045,3.1-0.353,6.523,1.815,8.974c2.167,2.451,5.48,3.556,8.685,2.898c3.205-0.658,5.814-2.979,6.84-6.086     C479.233,419.52,476.123,404.624,466.172,394.683z M85.154,393.147c-5.049,0-9.143-4.093-9.143-9.143     c0-5.049,4.093-9.143,9.143-9.143c5.049,0,9.143,4.093,9.143,9.143C94.292,389.052,90.201,393.142,85.154,393.147z      M289.002,320.004c-12.624,0-22.857-10.233-22.857-22.857s10.234-22.857,22.857-22.857s22.857,10.234,22.857,22.857     C311.846,309.766,301.62,319.991,289.002,320.004z M428.85,393.147c-5.049,0-9.143-4.093-9.143-9.143     c0-5.049,4.093-9.143,9.143-9.143c5.049,0,9.143,4.093,9.143,9.143C437.988,389.052,433.898,393.142,428.85,393.147z" data-original="#000000" class="active-path" data-old_color="#000000" fill="#FFFFFF"/>
			<rect x="183.859" y="356.576" width="146.286" height="18.286" data-original="#000000" class="active-path" data-old_color="#000000" fill="#FFFFFF"/>
			<circle cx="289.002" cy="297.147" r="9.143" data-original="#000000" class="active-path" data-old_color="#000000" fill="#FFFFFF"/>
			<path d="M183.859,402.29c0.005,5.047,4.096,9.138,9.143,9.143h128c5.047-0.005,9.138-4.096,9.143-9.143v-9.143H183.859V402.29z" data-original="#000000" class="active-path" data-old_color="#000000" fill="#FFFFFF"/>
			<rect x="202.145" y="429.719" width="45.714" height="36.571" data-original="#000000" class="active-path" data-old_color="#000000" fill="#FFFFFF"/>
			<rect x="266.145" y="429.719" width="45.714" height="36.571" data-original="#000000" class="active-path" data-old_color="#000000" fill="#FFFFFF"/>
			<path d="M293.574,512.004h18.286v-27.428h-45.714C266.162,499.717,278.432,511.988,293.574,512.004z" data-original="#000000" class="active-path" data-old_color="#000000" fill="#FFFFFF"/>
			<path d="M257.002,210.29c50.495,0,91.429-40.934,91.429-91.429c0-50.495-40.934-91.429-91.429-91.429     s-91.429,40.934-91.429,91.429C165.584,169.352,206.512,210.28,257.002,210.29z M263.494,180.21     c-3.102,3.164-8.01,3.69-11.712,1.255c-3.702-2.435-5.164-7.149-3.489-11.251c1.675-4.102,6.02-6.445,10.368-5.591     c4.348,0.854,7.484,4.665,7.484,9.096C266.108,176.139,265.161,178.456,263.494,180.21z M224.681,59.103     c13.076-13.07,32.737-16.978,49.817-9.902c17.08,7.076,28.217,23.744,28.218,42.232c0.985,12.666-4.976,24.87-15.571,31.88     c-2.28,1.319-4.629,2.515-7.036,3.585c-2.608,1.065-5.078,2.439-7.357,4.094c-4.335,3.887-6.75,9.478-6.607,15.299     c0,5.049-4.093,9.143-9.143,9.143c-5.049,0-9.143-4.093-9.143-9.143c-0.195-11.271,4.65-22.041,13.214-29.37     c3.472-2.694,7.285-4.917,11.339-6.612c1.819-0.798,3.595-1.691,5.321-2.674c4.009-2.415,6.697-6.098,6.697-16.201     c0.02-7.278-2.874-14.262-8.036-19.393c-10.851-10.363-27.932-10.365-38.786-0.005c-5.161,5.133-8.055,12.118-8.036,19.397     c0,5.049-4.093,9.143-9.143,9.143c-5.049,0-9.143-4.093-9.143-9.143C211.255,79.3,216.078,67.658,224.681,59.103z" data-original="#000000" class="active-path" data-old_color="#000000" fill="#FFFFFF"/>
			<path d="M119.859,210.29c0.017,15.142,12.287,27.412,27.429,27.429h219.429c15.142-0.017,27.412-12.287,27.429-27.429v-73.143     c0-75.718-61.362-137.111-137.08-137.147c-2.232,0-4.467,0.054-6.705,0.161c-74.235,4.578-131.73,66.75-130.5,141.116V210.29z      M257.002,9.147c60.583,0.007,109.69,49.123,109.687,109.705c-0.002,60.583-49.114,109.694-109.696,109.696     s-109.698-49.105-109.705-109.687C147.356,58.296,196.437,9.215,257.002,9.147z" data-original="#000000" class="active-path" data-old_color="#000000" fill="#FFFFFF"/>
			<path d="M439.859,173.719c-0.049-16.63-11.323-31.128-27.429-35.273v70.546C428.536,204.847,439.81,190.349,439.859,173.719z" data-original="#000000" class="active-path" data-old_color="#000000" fill="#FFFFFF"/>
			<path d="M101.574,208.992v-67.715c0-0.969,0.119-1.908,0.136-2.873c-16.175,4.047-27.532,18.567-27.564,35.241     C74.113,190.318,85.414,204.882,101.574,208.992z" data-original="#000000" class="active-path" data-old_color="#000000" fill="#FFFFFF"/>
			<path d="M202.145,512.004h18.286c15.141-0.016,27.412-12.287,27.429-27.428h-45.714V512.004z" data-original="#000000" class="active-path" data-old_color="#000000" fill="#FFFFFF"/>
		</g>
	</g>
</g></g> </svg>
