<?xml version="1.0" ?>
<svg xmlns="http://www.w3.org/2000/svg" id="Capa_1" enable-background="new 0 0 512.07 512.07" height="512px" viewBox="0 0 512.07 512.07" width="512px" class="">
    <g>
        <g>
            <path d="m199.103 292.711-22.193 44.965-49.622 7.21 35.907 35.002-8.477 49.422 44.385-23.334 44.383 23.334-8.476-49.422 35.907-35.002-49.622-7.21z" data-original="#000000" class="active-path" data-old_color="#000000" fill="#FFFFFF" />
            <path d="m506.765 141.15-141.05-141.06c-24.08 7.39-49.67 7.4-73.75.03l-175.98 175.98h50.91l71.89-71.89 21.21 21.21-50.67 50.68h52.47l24.44-24.45 24.44 24.45h75.23l-14.64-14.64 20.77-20.77 21.21 21.22-14.19 14.19h79.83l3.92 9.02c5.33 12.27 13.05 23.11 22.59 32.05l.93-.93c-7.53-24.57-7.37-50.62.44-75.09zm-209.215-53.413-21.213-21.213 20.763-20.763 21.213 21.213zm47.466 47.466-21.213-21.213 20.763-20.763 21.213 21.213z" data-original="#000000" class="active-path" data-old_color="#000000" fill="#FFFFFF" />
            <path d="m512.07 458.934v-200.448c-22.369-11.854-40.56-30.03-52.433-52.389h-405.959c-12.105 22.814-30.732 41.22-53.678 53.046v200.448c22.369 11.854 40.559 30.029 52.432 52.389h405.96c12.104-22.814 30.731-41.22 53.678-53.046zm-232.195 5.073-16.198 9.81-64.574-33.948-64.565 33.943-16.21-9.794 12.633-73.657-51.926-50.616 3.458-18.665 74.496-10.825 32.688-66.231h18.851l32.689 66.231 74.521 10.828 3.419 18.676-51.912 50.602zm152.493 10.565h-31.029v-30h31.029zm0-67.426h-31.029v-30h31.029zm0-67.427h-31.029v-30h31.029zm0-67.426h-31.029v-30h31.029z" data-original="#000000" class="active-path" data-old_color="#000000" fill="#FFFFFF" />
        </g>
    </g>
</svg>