<?xml version="1.0"?>
<svg xmlns="http://www.w3.org/2000/svg" height="512px" viewBox="0 0 54 56" width="512px" class=""><g><g id="029---Painting" transform="translate(-1 -1)"><path id="Shape" d="m11.479 11.878c-7.831 4.267-10.539 10.422-10.462 14.767-.08010687 3.1314875 1.64209764 6.0316332 4.43 7.46 1.61789302.790531 3.28345035 1.4795313 4.987 2.063 1.4296558.4248029 2.7889193 1.0579353 4.034 1.879l19.561-21.047c-.121-2.066.141-6.633 4.241-9-5.489-.946-17.048-1.431-26.791 3.878zm-3.479 16.122c-1.65685425 0-3-1.3431458-3-3s1.34314575-3 3-3 3 1.3431458 3 3-1.34314575 3-3 3zm8-8c-1.6568542 0-3-1.3431458-3-3s1.3431458-3 3-3 3 1.3431458 3 3-1.3431458 3-3 3zm10-4c-1.6568542 0-3-1.3431458-3-3s1.3431458-3 3-3 3 1.3431458 3 3-1.3431458 3-3 3z" data-original="#000000" class="active-path" data-old_color="#000000" fill="#FFFFFF"/><path id="Shape" d="m40.74 21.448c.288-.567-.075-1.891-1.185-3s-2.437-1.475-3.025-1.174c-.129.069-35.093 37.737-35.248 37.9-.40168213.431176-.38880514 1.1032846.02909803 1.5187581.41790316.4154735 1.09007544.4244313 1.51890197.0202419 20.185-18.746 37.843-35.142 37.91-35.265z" data-original="#000000" class="active-path" data-old_color="#000000" fill="#FFFFFF"/><path id="Shape" d="m50.853 21.649c-1.812 1.351-4.653 3.013-7.687 3.013-.7289367.0028712-1.4545635-.0981441-2.155-.3-.109-.032-.206-.073-.308-.112l-24.722 22.972c-.66 3.443.291 6.246 2.679 7.966 3.26 2.349 9.919 3.044 18.844-2.056 13.026-7.447 17.73-18.589 13.349-31.483zm-25.853 31.351c-1.6568542 0-3-1.3431458-3-3s1.3431458-3 3-3 3 1.3431458 3 3-1.3431458 3-3 3zm10-4c-1.2133867 0-2.3072956-.7309265-2.7716386-1.8519497s-.2076757-2.4113767.6503183-3.2693706c.8579939-.857994 2.1483474-1.1146613 3.2693706-.6503183s1.8519497 1.5582519 1.8519497 2.7716386c0 1.6568542-1.3431458 3-3 3zm8-8c-1.6568542 0-3-1.3431458-3-3s1.3431458-3 3-3 3 1.3431458 3 3-1.3431458 3-3 3z" data-original="#000000" class="active-path" data-old_color="#000000" fill="#FFFFFF"/><path id="Shape" d="m52.281 3.229c-.036-.07-.155-.311-.3-.613-.238-.48-.731-1.477-.827-1.638-.5 2.133-1.659 6.9-8.162 7.616-.4011446.04308703-.7997092.10751163-1.194.193-3.2805899.45420255-5.733879 3.2422825-5.767 6.554 1.8317508-.3689308 3.7202283.2772479 4.942 1.691 1.664 1.664 2.3 3.863 1.541 5.347-.044.082-.1.149-.145.224 3.5.47 7.2-2.408 8.3-3.361l.067-.054c2.67-2.337 4.113-5.273 3.976-8.08-.2375297-2.76996642-1.0665134-5.45674676-2.431-7.879z" data-original="#000000" class="active-path" data-old_color="#000000" fill="#FFFFFF"/></g></g> </svg>
