<?xml version="1.0" encoding="iso-8859-1"?>
<!-- Generator: Adobe Illustrator 16.0.0, SVG Export Plug-In . SVG Version: 6.00 Build 0)  -->
<!DOCTYPE svg PUBLIC "-//W3C//DTD SVG 1.1//EN" "http://www.w3.org/Graphics/SVG/1.1/DTD/svg11.dtd">
<svg version="1.1" id="Capa_1" xmlns="http://www.w3.org/2000/svg" xmlns:xlink="http://www.w3.org/1999/xlink" x="0px" y="0px"
	 width="457.205px" height="457.205px" viewBox="0 0 457.205 457.205" style="enable-background:new 0 0 457.205 457.205;"
	 xml:space="preserve" fill="white">
<g>
	<g>
		<path d="M176.628,86.406H27.823C12.481,86.406,0,98.611,0,113.629v287.86c0,15.007,12.481,27.214,27.823,27.214h148.799
			c15.346,0,27.823-12.207,27.823-27.214v-287.86C204.451,98.62,191.976,86.406,176.628,86.406z M186.004,401.489
			c0,4.834-4.207,8.768-9.376,8.768H27.823c-5.17,0-9.376-3.934-9.376-8.768v-43.498h167.558V401.489z M186.004,125.353H18.447
			v-11.724c0-4.84,4.212-8.776,9.376-8.776h148.799c5.176,0,9.377,3.937,9.377,8.776v11.724H186.004z"/>
		<circle cx="102.226" cy="381.688" r="18.834"/>
		<path d="M427.469,28.502H150.783c-16.387,0-29.73,13.336-29.73,29.729v22.02h24.596v-22.02c0-2.828,2.306-5.134,5.134-5.134
			h276.686c2.834,0,5.128,2.306,5.128,5.134v178.3c0,2.829-2.294,5.135-5.128,5.135H213.47v24.596h63.362v10.761h-36.124
			c-6.786,0-12.295,5.519-12.295,12.298s5.509,12.298,12.295,12.298h96.076c6.785,0,12.298-5.519,12.298-12.298
			s-5.513-12.298-12.298-12.298h-35.356v-10.761h126.041c16.394,0,29.735-13.337,29.735-29.73v-178.3
			C457.205,41.838,443.863,28.502,427.469,28.502z"/>
	</g>
</g>
<g>
</g>
<g>
</g>
<g>
</g>
<g>
</g>
<g>
</g>
<g>
</g>
<g>
</g>
<g>
</g>
<g>
</g>
<g>
</g>
<g>
</g>
<g>
</g>
<g>
</g>
<g>
</g>
<g>
</g>
</svg>
